<mxfile host="www.draw.io" modified="2019-12-01T19:24:37.267Z" agent="Mozilla/5.0 (Windows NT 10.0; Win64; x64; rv:70.0) Gecko/20100101 Firefox/70.0" etag="KPuOIczkE1fkFzJqj1KM" version="12.3.3" type="github" pages="1">
  <diagram id="W45O6S--kUXGHwLgUNlQ" name="Page-1">
    <mxGraphModel dx="4436" dy="1122" grid="1" gridSize="10" guides="1" tooltips="1" connect="1" arrows="1" fold="1" page="1" pageScale="1" pageWidth="827" pageHeight="1169" math="0" shadow="0">
      <root>
        <mxCell id="0"/>
        <mxCell id="1" parent="0"/>
        <mxCell id="swZC0YJ0A6inSVuOBq8i-16" value="" style="group;strokeColor=none;" parent="1" vertex="1" connectable="0">
          <mxGeometry x="-376.5" y="190" width="80" height="80" as="geometry"/>
        </mxCell>
        <mxCell id="swZC0YJ0A6inSVuOBq8i-9" value="" style="ellipse;whiteSpace=wrap;html=1;aspect=fixed;fillColor=#ffe6cc;strokeColor=#d79b00;" parent="swZC0YJ0A6inSVuOBq8i-16" vertex="1">
          <mxGeometry width="80" height="80" as="geometry"/>
        </mxCell>
        <mxCell id="swZC0YJ0A6inSVuOBq8i-6" value="" style="shape=flexArrow;endArrow=classic;html=1;endWidth=8.20977056344623;endSize=6.232558139534884;width=4.697986577181208;fillColor=#ffffff;" parent="swZC0YJ0A6inSVuOBq8i-16" edge="1">
          <mxGeometry width="50" height="50" relative="1" as="geometry">
            <mxPoint x="20" y="20" as="sourcePoint"/>
            <mxPoint x="70" y="20" as="targetPoint"/>
            <Array as="points"/>
          </mxGeometry>
        </mxCell>
        <mxCell id="swZC0YJ0A6inSVuOBq8i-13" value="" style="shape=flexArrow;endArrow=classic;html=1;endWidth=8.20977056344623;endSize=6.232558139534884;width=4.697986577181208;fillColor=#ffffff;" parent="swZC0YJ0A6inSVuOBq8i-16" edge="1">
          <mxGeometry width="50" height="50" relative="1" as="geometry">
            <mxPoint x="20" y="40" as="sourcePoint"/>
            <mxPoint x="70" y="40" as="targetPoint"/>
            <Array as="points"/>
          </mxGeometry>
        </mxCell>
        <mxCell id="swZC0YJ0A6inSVuOBq8i-14" value="" style="shape=flexArrow;endArrow=classic;html=1;endWidth=8.20977056344623;endSize=6.232558139534884;width=4.697986577181208;fillColor=#ffffff;" parent="swZC0YJ0A6inSVuOBq8i-16" edge="1">
          <mxGeometry width="50" height="50" relative="1" as="geometry">
            <mxPoint x="20" y="60" as="sourcePoint"/>
            <mxPoint x="70" y="60" as="targetPoint"/>
            <Array as="points"/>
          </mxGeometry>
        </mxCell>
        <mxCell id="swZC0YJ0A6inSVuOBq8i-31" value="" style="group" parent="1" vertex="1" connectable="0">
          <mxGeometry x="93.5" y="30" width="80" height="80" as="geometry"/>
        </mxCell>
        <mxCell id="swZC0YJ0A6inSVuOBq8i-7" value="" style="ellipse;whiteSpace=wrap;html=1;aspect=fixed;fillColor=#ffe6cc;strokeColor=#d79b00;" parent="swZC0YJ0A6inSVuOBq8i-31" vertex="1">
          <mxGeometry width="80" height="80" as="geometry"/>
        </mxCell>
        <mxCell id="swZC0YJ0A6inSVuOBq8i-2" value="" style="shape=flexArrow;endArrow=classic;html=1;fillColor=#ffffff;" parent="swZC0YJ0A6inSVuOBq8i-31" edge="1">
          <mxGeometry width="50" height="50" relative="1" as="geometry">
            <mxPoint x="20" y="40" as="sourcePoint"/>
            <mxPoint x="60" y="40" as="targetPoint"/>
          </mxGeometry>
        </mxCell>
        <mxCell id="swZC0YJ0A6inSVuOBq8i-32" value="" style="group" parent="1" vertex="1" connectable="0">
          <mxGeometry x="-850.5" y="430" width="80" height="80" as="geometry"/>
        </mxCell>
        <mxCell id="swZC0YJ0A6inSVuOBq8i-33" value="" style="ellipse;whiteSpace=wrap;html=1;aspect=fixed;fillColor=#ffe6cc;strokeColor=#d79b00;" parent="swZC0YJ0A6inSVuOBq8i-32" vertex="1">
          <mxGeometry width="80" height="80" as="geometry"/>
        </mxCell>
        <mxCell id="swZC0YJ0A6inSVuOBq8i-34" value="" style="shape=flexArrow;endArrow=classic;html=1;fillColor=#ffffff;" parent="swZC0YJ0A6inSVuOBq8i-32" edge="1">
          <mxGeometry width="50" height="50" relative="1" as="geometry">
            <mxPoint x="20" y="40" as="sourcePoint"/>
            <mxPoint x="60" y="40" as="targetPoint"/>
          </mxGeometry>
        </mxCell>
        <mxCell id="swZC0YJ0A6inSVuOBq8i-35" value="" style="endArrow=classic;html=1;fillColor=#ffffff;exitX=0.5;exitY=1;exitDx=0;exitDy=0;entryX=0.5;entryY=0;entryDx=0;entryDy=0;exitPerimeter=0;" parent="1" source="swZC0YJ0A6inSVuOBq8i-39" target="swZC0YJ0A6inSVuOBq8i-33" edge="1">
          <mxGeometry width="50" height="50" relative="1" as="geometry">
            <mxPoint x="-740.5" y="380.0000000000001" as="sourcePoint"/>
            <mxPoint x="-810.5" y="400" as="targetPoint"/>
          </mxGeometry>
        </mxCell>
        <mxCell id="swZC0YJ0A6inSVuOBq8i-43" value="" style="group" parent="1" vertex="1" connectable="0">
          <mxGeometry x="-860.5" y="310" width="100" height="100" as="geometry"/>
        </mxCell>
        <mxCell id="swZC0YJ0A6inSVuOBq8i-39" value="" style="strokeWidth=2;html=1;shape=mxgraph.flowchart.decision;whiteSpace=wrap;fillColor=#ffe6cc;strokeColor=#d79b00;" parent="swZC0YJ0A6inSVuOBq8i-43" vertex="1">
          <mxGeometry width="100" height="100" as="geometry"/>
        </mxCell>
        <mxCell id="swZC0YJ0A6inSVuOBq8i-41" value="" style="html=1;shadow=0;dashed=0;align=center;verticalAlign=middle;shape=mxgraph.arrows2.uTurnArrow;dy=3.03;arrowHead=19.28;dx2=10.64;" parent="swZC0YJ0A6inSVuOBq8i-43" vertex="1">
          <mxGeometry x="20" y="32.5" width="30" height="30" as="geometry"/>
        </mxCell>
        <mxCell id="swZC0YJ0A6inSVuOBq8i-42" value="" style="html=1;shadow=0;dashed=0;align=center;verticalAlign=middle;shape=mxgraph.arrows2.uTurnArrow;dy=3.03;arrowHead=19.28;dx2=10.64;rotation=180;" parent="swZC0YJ0A6inSVuOBq8i-43" vertex="1">
          <mxGeometry x="50" y="37.5" width="30" height="30" as="geometry"/>
        </mxCell>
        <mxCell id="swZC0YJ0A6inSVuOBq8i-68" style="edgeStyle=orthogonalEdgeStyle;rounded=0;orthogonalLoop=1;jettySize=auto;html=1;exitX=0.5;exitY=1;exitDx=0;exitDy=0;entryX=0.5;entryY=0;entryDx=0;entryDy=0;entryPerimeter=0;strokeWidth=1;fillColor=#ffffff;" parent="1" source="swZC0YJ0A6inSVuOBq8i-9" target="swZC0YJ0A6inSVuOBq8i-39" edge="1">
          <mxGeometry relative="1" as="geometry"/>
        </mxCell>
        <mxCell id="swZC0YJ0A6inSVuOBq8i-69" value="" style="group" parent="1" vertex="1" connectable="0">
          <mxGeometry x="-210" y="610" width="80" height="80" as="geometry"/>
        </mxCell>
        <mxCell id="swZC0YJ0A6inSVuOBq8i-70" value="" style="ellipse;whiteSpace=wrap;html=1;aspect=fixed;fillColor=#ffe6cc;strokeColor=#d79b00;" parent="swZC0YJ0A6inSVuOBq8i-69" vertex="1">
          <mxGeometry width="80" height="80" as="geometry"/>
        </mxCell>
        <mxCell id="swZC0YJ0A6inSVuOBq8i-71" value="" style="shape=flexArrow;endArrow=classic;html=1;fillColor=#ffffff;" parent="swZC0YJ0A6inSVuOBq8i-69" edge="1">
          <mxGeometry width="50" height="50" relative="1" as="geometry">
            <mxPoint x="20" y="40" as="sourcePoint"/>
            <mxPoint x="60" y="40" as="targetPoint"/>
          </mxGeometry>
        </mxCell>
        <mxCell id="swZC0YJ0A6inSVuOBq8i-75" style="edgeStyle=orthogonalEdgeStyle;rounded=0;orthogonalLoop=1;jettySize=auto;html=1;exitX=0.5;exitY=1;exitDx=0;exitDy=0;entryX=0.5;entryY=0;entryDx=0;entryDy=0;strokeWidth=1;fillColor=#ffffff;" parent="1" source="swZC0YJ0A6inSVuOBq8i-70" target="swZC0YJ0A6inSVuOBq8i-73" edge="1">
          <mxGeometry relative="1" as="geometry"/>
        </mxCell>
        <mxCell id="swZC0YJ0A6inSVuOBq8i-76" value="" style="group" parent="1" vertex="1" connectable="0">
          <mxGeometry x="-46.5" y="710" width="80" height="80" as="geometry"/>
        </mxCell>
        <mxCell id="t0tkBBG_7Ige_NxR-B4u-2" value="" style="group" parent="swZC0YJ0A6inSVuOBq8i-76" vertex="1" connectable="0">
          <mxGeometry width="80" height="80" as="geometry"/>
        </mxCell>
        <mxCell id="si8xvzxJP4cne3jjyy44-24" value="" style="group" parent="t0tkBBG_7Ige_NxR-B4u-2" vertex="1" connectable="0">
          <mxGeometry width="80" height="80" as="geometry"/>
        </mxCell>
        <mxCell id="swZC0YJ0A6inSVuOBq8i-77" value="" style="ellipse;whiteSpace=wrap;html=1;aspect=fixed;fillColor=#ffe6cc;strokeColor=#d79b00;" parent="si8xvzxJP4cne3jjyy44-24" vertex="1">
          <mxGeometry width="80" height="80" as="geometry"/>
        </mxCell>
        <mxCell id="swZC0YJ0A6inSVuOBq8i-79" value="?" style="text;html=1;strokeColor=none;fillColor=none;align=center;verticalAlign=middle;whiteSpace=wrap;rounded=0;strokeWidth=5;labelBorderColor=none;fontSize=60;" parent="si8xvzxJP4cne3jjyy44-24" vertex="1">
          <mxGeometry x="20" y="30" width="40" height="20" as="geometry"/>
        </mxCell>
        <mxCell id="7xh4q1Sv84D6rDVdjl3a-23" style="edgeStyle=orthogonalEdgeStyle;rounded=0;orthogonalLoop=1;jettySize=auto;html=1;exitX=0.5;exitY=1;exitDx=0;exitDy=0;entryX=0.5;entryY=0;entryDx=0;entryDy=0;fontSize=18;" parent="1" source="7xh4q1Sv84D6rDVdjl3a-33" target="7xh4q1Sv84D6rDVdjl3a-463" edge="1">
          <mxGeometry relative="1" as="geometry">
            <mxPoint x="370.16666666666674" y="425.16666666666674" as="sourcePoint"/>
            <mxPoint x="369.3571428571431" y="475" as="targetPoint"/>
          </mxGeometry>
        </mxCell>
        <mxCell id="7xh4q1Sv84D6rDVdjl3a-39" value="" style="endArrow=classic;html=1;fontSize=18;exitX=0;exitY=1;exitDx=0;exitDy=0;entryX=0.5;entryY=0;entryDx=0;entryDy=0;" parent="1" source="swZC0YJ0A6inSVuOBq8i-77" target="7xh4q1Sv84D6rDVdjl3a-37" edge="1">
          <mxGeometry width="50" height="50" relative="1" as="geometry">
            <mxPoint x="-616.5" y="1010" as="sourcePoint"/>
            <mxPoint x="-566.5" y="960" as="targetPoint"/>
          </mxGeometry>
        </mxCell>
        <mxCell id="7xh4q1Sv84D6rDVdjl3a-40" value="" style="group" parent="1" vertex="1" connectable="0">
          <mxGeometry x="-590" y="990" width="120" height="60" as="geometry"/>
        </mxCell>
        <mxCell id="7xh4q1Sv84D6rDVdjl3a-37" value="" style="rounded=0;whiteSpace=wrap;html=1;fontSize=18;fillColor=#ffe6cc;strokeColor=#d79b00;" parent="7xh4q1Sv84D6rDVdjl3a-40" vertex="1">
          <mxGeometry width="120" height="60" as="geometry"/>
        </mxCell>
        <mxCell id="7xh4q1Sv84D6rDVdjl3a-38" value="Afraid ?" style="text;html=1;strokeColor=none;fillColor=none;align=center;verticalAlign=middle;whiteSpace=wrap;rounded=0;fontSize=18;" parent="7xh4q1Sv84D6rDVdjl3a-40" vertex="1">
          <mxGeometry y="10" width="120" height="40" as="geometry"/>
        </mxCell>
        <mxCell id="7xh4q1Sv84D6rDVdjl3a-108" style="edgeStyle=orthogonalEdgeStyle;rounded=0;orthogonalLoop=1;jettySize=auto;html=1;exitX=0.5;exitY=1;exitDx=0;exitDy=0;entryX=0.5;entryY=0;entryDx=0;entryDy=0;fontSize=18;" parent="1" source="7xh4q1Sv84D6rDVdjl3a-42" target="7xh4q1Sv84D6rDVdjl3a-106" edge="1">
          <mxGeometry relative="1" as="geometry"/>
        </mxCell>
        <mxCell id="7xh4q1Sv84D6rDVdjl3a-42" value="" style="rounded=0;whiteSpace=wrap;html=1;fontSize=18;fillColor=#ffe6cc;strokeColor=#d79b00;" parent="1" vertex="1">
          <mxGeometry x="-69.5" y="934" width="120" height="60" as="geometry"/>
        </mxCell>
        <mxCell id="7xh4q1Sv84D6rDVdjl3a-43" value="Angry ?" style="text;html=1;strokeColor=none;fillColor=none;align=center;verticalAlign=middle;whiteSpace=wrap;rounded=0;fontSize=18;" parent="1" vertex="1">
          <mxGeometry x="-49.5" y="949" width="80" height="30" as="geometry"/>
        </mxCell>
        <mxCell id="7xh4q1Sv84D6rDVdjl3a-44" value="" style="endArrow=classic;html=1;fontSize=18;exitX=0.5;exitY=1;exitDx=0;exitDy=0;entryX=0.5;entryY=0;entryDx=0;entryDy=0;" parent="1" source="swZC0YJ0A6inSVuOBq8i-77" target="7xh4q1Sv84D6rDVdjl3a-42" edge="1">
          <mxGeometry width="50" height="50" relative="1" as="geometry">
            <mxPoint x="-326.5" y="990" as="sourcePoint"/>
            <mxPoint x="-276.5" y="940" as="targetPoint"/>
          </mxGeometry>
        </mxCell>
        <mxCell id="7xh4q1Sv84D6rDVdjl3a-45" value="" style="group" parent="1" vertex="1" connectable="0">
          <mxGeometry x="-580" y="1080" width="100" height="100" as="geometry"/>
        </mxCell>
        <mxCell id="7xh4q1Sv84D6rDVdjl3a-46" value="" style="strokeWidth=2;html=1;shape=mxgraph.flowchart.decision;whiteSpace=wrap;fillColor=#ffe6cc;strokeColor=#d79b00;" parent="7xh4q1Sv84D6rDVdjl3a-45" vertex="1">
          <mxGeometry width="100" height="100" as="geometry"/>
        </mxCell>
        <mxCell id="7xh4q1Sv84D6rDVdjl3a-47" value="" style="html=1;shadow=0;dashed=0;align=center;verticalAlign=middle;shape=mxgraph.arrows2.uTurnArrow;dy=3.03;arrowHead=19.28;dx2=10.64;" parent="7xh4q1Sv84D6rDVdjl3a-45" vertex="1">
          <mxGeometry x="20" y="32.5" width="30" height="30" as="geometry"/>
        </mxCell>
        <mxCell id="7xh4q1Sv84D6rDVdjl3a-48" value="" style="html=1;shadow=0;dashed=0;align=center;verticalAlign=middle;shape=mxgraph.arrows2.uTurnArrow;dy=3.03;arrowHead=19.28;dx2=10.64;rotation=180;" parent="7xh4q1Sv84D6rDVdjl3a-45" vertex="1">
          <mxGeometry x="50" y="37.5" width="30" height="30" as="geometry"/>
        </mxCell>
        <mxCell id="7xh4q1Sv84D6rDVdjl3a-49" style="edgeStyle=orthogonalEdgeStyle;rounded=0;orthogonalLoop=1;jettySize=auto;html=1;exitX=0.5;exitY=1;exitDx=0;exitDy=0;fontSize=18;" parent="1" source="7xh4q1Sv84D6rDVdjl3a-37" target="7xh4q1Sv84D6rDVdjl3a-46" edge="1">
          <mxGeometry relative="1" as="geometry"/>
        </mxCell>
        <mxCell id="7xh4q1Sv84D6rDVdjl3a-50" value="" style="group" parent="1" vertex="1" connectable="0">
          <mxGeometry x="-570" y="1210" width="80" height="80" as="geometry"/>
        </mxCell>
        <mxCell id="7xh4q1Sv84D6rDVdjl3a-51" value="" style="ellipse;whiteSpace=wrap;html=1;aspect=fixed;fillColor=#ffe6cc;strokeColor=#d79b00;" parent="7xh4q1Sv84D6rDVdjl3a-50" vertex="1">
          <mxGeometry width="80" height="80" as="geometry"/>
        </mxCell>
        <mxCell id="7xh4q1Sv84D6rDVdjl3a-52" value="" style="shape=flexArrow;endArrow=classic;html=1;fillColor=#ffffff;" parent="7xh4q1Sv84D6rDVdjl3a-50" edge="1">
          <mxGeometry width="50" height="50" relative="1" as="geometry">
            <mxPoint x="20" y="40" as="sourcePoint"/>
            <mxPoint x="60" y="40" as="targetPoint"/>
          </mxGeometry>
        </mxCell>
        <mxCell id="7xh4q1Sv84D6rDVdjl3a-55" style="edgeStyle=orthogonalEdgeStyle;rounded=0;orthogonalLoop=1;jettySize=auto;html=1;exitX=0.5;exitY=1;exitDx=0;exitDy=0;exitPerimeter=0;fontSize=18;" parent="1" source="7xh4q1Sv84D6rDVdjl3a-46" target="7xh4q1Sv84D6rDVdjl3a-51" edge="1">
          <mxGeometry relative="1" as="geometry"/>
        </mxCell>
        <mxCell id="7xh4q1Sv84D6rDVdjl3a-58" value="" style="group" parent="1" vertex="1" connectable="0">
          <mxGeometry x="-781.5" y="1360" width="100" height="80" as="geometry"/>
        </mxCell>
        <mxCell id="7xh4q1Sv84D6rDVdjl3a-349" value="" style="group" parent="7xh4q1Sv84D6rDVdjl3a-58" vertex="1" connectable="0">
          <mxGeometry width="100" height="80" as="geometry"/>
        </mxCell>
        <mxCell id="7xh4q1Sv84D6rDVdjl3a-56" value="" style="shape=loopLimit;whiteSpace=wrap;html=1;fillColor=#ffe6cc;strokeColor=#d79b00;strokeWidth=2;" parent="7xh4q1Sv84D6rDVdjl3a-349" vertex="1">
          <mxGeometry width="100" height="80" as="geometry"/>
        </mxCell>
        <mxCell id="7xh4q1Sv84D6rDVdjl3a-57" value="Find Wander Spot" style="text;html=1;strokeColor=none;fillColor=none;align=center;verticalAlign=middle;whiteSpace=wrap;rounded=0;fontSize=18;" parent="7xh4q1Sv84D6rDVdjl3a-349" vertex="1">
          <mxGeometry x="30" y="30" width="40" height="20" as="geometry"/>
        </mxCell>
        <mxCell id="7xh4q1Sv84D6rDVdjl3a-59" value="" style="endArrow=classic;html=1;fontSize=18;exitX=0.5;exitY=1;exitDx=0;exitDy=0;entryX=0.5;entryY=0;entryDx=0;entryDy=0;" parent="1" source="7xh4q1Sv84D6rDVdjl3a-51" target="7xh4q1Sv84D6rDVdjl3a-56" edge="1">
          <mxGeometry width="50" height="50" relative="1" as="geometry">
            <mxPoint x="-386.5" y="1360" as="sourcePoint"/>
            <mxPoint x="-336.5" y="1310" as="targetPoint"/>
          </mxGeometry>
        </mxCell>
        <mxCell id="7xh4q1Sv84D6rDVdjl3a-63" value="" style="endArrow=classic;html=1;fontSize=18;exitX=0.5;exitY=1;exitDx=0;exitDy=0;entryX=0.5;entryY=0;entryDx=0;entryDy=0;" parent="1" source="7xh4q1Sv84D6rDVdjl3a-51" target="7xh4q1Sv84D6rDVdjl3a-365" edge="1">
          <mxGeometry width="50" height="50" relative="1" as="geometry">
            <mxPoint x="-286.5" y="1340" as="sourcePoint"/>
            <mxPoint x="-506.5" y="1360" as="targetPoint"/>
          </mxGeometry>
        </mxCell>
        <mxCell id="7xh4q1Sv84D6rDVdjl3a-67" value="" style="endArrow=classic;html=1;fontSize=18;entryX=0.5;entryY=0;entryDx=0;entryDy=0;entryPerimeter=0;exitX=0.5;exitY=1;exitDx=0;exitDy=0;" parent="1" source="7xh4q1Sv84D6rDVdjl3a-51" target="si8xvzxJP4cne3jjyy44-117" edge="1">
          <mxGeometry width="50" height="50" relative="1" as="geometry">
            <mxPoint x="-318.5" y="1259" as="sourcePoint"/>
            <mxPoint x="-306.7000000000003" y="1340.8400000000001" as="targetPoint"/>
            <Array as="points"/>
          </mxGeometry>
        </mxCell>
        <mxCell id="7xh4q1Sv84D6rDVdjl3a-81" value="" style="endArrow=classic;html=1;fontSize=18;exitX=0.5;exitY=1;exitDx=0;exitDy=0;entryX=0.5;entryY=0;entryDx=0;entryDy=0;" parent="1" source="7xh4q1Sv84D6rDVdjl3a-69" target="si8xvzxJP4cne3jjyy44-125" edge="1">
          <mxGeometry width="50" height="50" relative="1" as="geometry">
            <mxPoint x="-786.5" y="1800" as="sourcePoint"/>
            <mxPoint x="-630" y="1680" as="targetPoint"/>
            <Array as="points">
              <mxPoint x="-860" y="1590"/>
            </Array>
          </mxGeometry>
        </mxCell>
        <mxCell id="7xh4q1Sv84D6rDVdjl3a-105" value="" style="group" parent="1" vertex="1" connectable="0">
          <mxGeometry x="-49.5" y="1044" width="80" height="80" as="geometry"/>
        </mxCell>
        <mxCell id="7xh4q1Sv84D6rDVdjl3a-106" value="" style="ellipse;whiteSpace=wrap;html=1;aspect=fixed;fillColor=#ffe6cc;strokeColor=#d79b00;" parent="7xh4q1Sv84D6rDVdjl3a-105" vertex="1">
          <mxGeometry width="80" height="80" as="geometry"/>
        </mxCell>
        <mxCell id="7xh4q1Sv84D6rDVdjl3a-107" value="" style="shape=flexArrow;endArrow=classic;html=1;fillColor=#ffffff;" parent="7xh4q1Sv84D6rDVdjl3a-105" edge="1">
          <mxGeometry width="50" height="50" relative="1" as="geometry">
            <mxPoint x="20" y="40" as="sourcePoint"/>
            <mxPoint x="60" y="40" as="targetPoint"/>
          </mxGeometry>
        </mxCell>
        <mxCell id="7xh4q1Sv84D6rDVdjl3a-113" value="" style="endArrow=classic;html=1;fontSize=18;exitX=0.5;exitY=1;exitDx=0;exitDy=0;entryX=0.5;entryY=0;entryDx=0;entryDy=0;entryPerimeter=0;" parent="1" source="7xh4q1Sv84D6rDVdjl3a-106" target="si8xvzxJP4cne3jjyy44-176" edge="1">
          <mxGeometry width="50" height="50" relative="1" as="geometry">
            <mxPoint x="-99.5" y="1184" as="sourcePoint"/>
            <mxPoint x="-59.5" y="1174" as="targetPoint"/>
          </mxGeometry>
        </mxCell>
        <mxCell id="7xh4q1Sv84D6rDVdjl3a-119" value="" style="endArrow=classic;html=1;fontSize=18;exitX=0.5;exitY=1;exitDx=0;exitDy=0;entryX=0.5;entryY=0;entryDx=0;entryDy=0;" parent="1" source="7xh4q1Sv84D6rDVdjl3a-106" target="7xh4q1Sv84D6rDVdjl3a-138" edge="1">
          <mxGeometry width="50" height="50" relative="1" as="geometry">
            <mxPoint x="90.5" y="1124" as="sourcePoint"/>
            <mxPoint x="90" y="1200" as="targetPoint"/>
            <Array as="points">
              <mxPoint x="73.5" y="1154"/>
            </Array>
          </mxGeometry>
        </mxCell>
        <mxCell id="7xh4q1Sv84D6rDVdjl3a-124" value="" style="group" parent="1" vertex="1" connectable="0">
          <mxGeometry x="-190" y="1309" width="100" height="80" as="geometry"/>
        </mxCell>
        <mxCell id="7xh4q1Sv84D6rDVdjl3a-125" value="" style="shape=loopLimit;whiteSpace=wrap;html=1;fillColor=#ffe6cc;strokeColor=#d79b00;strokeWidth=2;" parent="7xh4q1Sv84D6rDVdjl3a-124" vertex="1">
          <mxGeometry width="100" height="80" as="geometry"/>
        </mxCell>
        <mxCell id="7xh4q1Sv84D6rDVdjl3a-126" value="Find Escape spot" style="text;html=1;strokeColor=none;fillColor=none;align=center;verticalAlign=middle;whiteSpace=wrap;rounded=0;fontSize=18;" parent="7xh4q1Sv84D6rDVdjl3a-124" vertex="1">
          <mxGeometry x="10" y="20" width="80" height="40" as="geometry"/>
        </mxCell>
        <mxCell id="7xh4q1Sv84D6rDVdjl3a-137" value="" style="group;strokeColor=none;" parent="1" vertex="1" connectable="0">
          <mxGeometry x="166.5" y="1189" width="80" height="80" as="geometry"/>
        </mxCell>
        <mxCell id="7xh4q1Sv84D6rDVdjl3a-138" value="" style="ellipse;whiteSpace=wrap;html=1;aspect=fixed;fillColor=#ffe6cc;strokeColor=#d79b00;" parent="7xh4q1Sv84D6rDVdjl3a-137" vertex="1">
          <mxGeometry width="80" height="80" as="geometry"/>
        </mxCell>
        <mxCell id="7xh4q1Sv84D6rDVdjl3a-139" value="" style="shape=flexArrow;endArrow=classic;html=1;endWidth=8.20977056344623;endSize=6.232558139534884;width=4.697986577181208;fillColor=#ffffff;" parent="7xh4q1Sv84D6rDVdjl3a-137" edge="1">
          <mxGeometry width="50" height="50" relative="1" as="geometry">
            <mxPoint x="20" y="20" as="sourcePoint"/>
            <mxPoint x="70" y="20" as="targetPoint"/>
            <Array as="points"/>
          </mxGeometry>
        </mxCell>
        <mxCell id="7xh4q1Sv84D6rDVdjl3a-140" value="" style="shape=flexArrow;endArrow=classic;html=1;endWidth=8.20977056344623;endSize=6.232558139534884;width=4.697986577181208;fillColor=#ffffff;" parent="7xh4q1Sv84D6rDVdjl3a-137" edge="1">
          <mxGeometry width="50" height="50" relative="1" as="geometry">
            <mxPoint x="20" y="40" as="sourcePoint"/>
            <mxPoint x="70" y="40" as="targetPoint"/>
            <Array as="points"/>
          </mxGeometry>
        </mxCell>
        <mxCell id="7xh4q1Sv84D6rDVdjl3a-141" value="" style="shape=flexArrow;endArrow=classic;html=1;endWidth=8.20977056344623;endSize=6.232558139534884;width=4.697986577181208;fillColor=#ffffff;" parent="7xh4q1Sv84D6rDVdjl3a-137" edge="1">
          <mxGeometry width="50" height="50" relative="1" as="geometry">
            <mxPoint x="20" y="60" as="sourcePoint"/>
            <mxPoint x="70" y="60" as="targetPoint"/>
            <Array as="points"/>
          </mxGeometry>
        </mxCell>
        <mxCell id="7xh4q1Sv84D6rDVdjl3a-153" value="x" style="group" parent="1" vertex="1" connectable="0">
          <mxGeometry x="190" y="1400" width="100" height="100" as="geometry"/>
        </mxCell>
        <mxCell id="7xh4q1Sv84D6rDVdjl3a-154" value="" style="strokeWidth=2;html=1;shape=mxgraph.flowchart.decision;whiteSpace=wrap;fillColor=#ffe6cc;strokeColor=#d79b00;" parent="7xh4q1Sv84D6rDVdjl3a-153" vertex="1">
          <mxGeometry width="100" height="100" as="geometry"/>
        </mxCell>
        <mxCell id="7xh4q1Sv84D6rDVdjl3a-155" value="" style="html=1;shadow=0;dashed=0;align=center;verticalAlign=middle;shape=mxgraph.arrows2.uTurnArrow;dy=3.03;arrowHead=19.28;dx2=10.64;" parent="7xh4q1Sv84D6rDVdjl3a-153" vertex="1">
          <mxGeometry x="20" y="32.5" width="30" height="30" as="geometry"/>
        </mxCell>
        <mxCell id="7xh4q1Sv84D6rDVdjl3a-156" value="" style="html=1;shadow=0;dashed=0;align=center;verticalAlign=middle;shape=mxgraph.arrows2.uTurnArrow;dy=3.03;arrowHead=19.28;dx2=10.64;rotation=180;" parent="7xh4q1Sv84D6rDVdjl3a-153" vertex="1">
          <mxGeometry x="50" y="37.5" width="30" height="30" as="geometry"/>
        </mxCell>
        <mxCell id="7xh4q1Sv84D6rDVdjl3a-157" value="" style="endArrow=classic;html=1;fontSize=18;exitX=0.5;exitY=1;exitDx=0;exitDy=0;entryX=0.5;entryY=0;entryDx=0;entryDy=0;entryPerimeter=0;" parent="1" source="7xh4q1Sv84D6rDVdjl3a-138" target="7xh4q1Sv84D6rDVdjl3a-578" edge="1">
          <mxGeometry width="50" height="50" relative="1" as="geometry">
            <mxPoint x="-66.5" y="1840" as="sourcePoint"/>
            <mxPoint x="-16.5" y="1693" as="targetPoint"/>
            <Array as="points">
              <mxPoint x="140" y="1420"/>
              <mxPoint x="-30" y="1420"/>
            </Array>
          </mxGeometry>
        </mxCell>
        <mxCell id="7xh4q1Sv84D6rDVdjl3a-158" value="" style="endArrow=classic;html=1;fontSize=18;exitX=0.5;exitY=1;exitDx=0;exitDy=0;entryX=0.5;entryY=0;entryDx=0;entryDy=0;entryPerimeter=0;" parent="1" source="7xh4q1Sv84D6rDVdjl3a-138" target="7xh4q1Sv84D6rDVdjl3a-154" edge="1">
          <mxGeometry width="50" height="50" relative="1" as="geometry">
            <mxPoint x="253.5" y="1750" as="sourcePoint"/>
            <mxPoint x="123.5" y="1680" as="targetPoint"/>
          </mxGeometry>
        </mxCell>
        <mxCell id="7xh4q1Sv84D6rDVdjl3a-159" value="" style="group" parent="1" vertex="1" connectable="0">
          <mxGeometry x="200" y="1530" width="80" height="80" as="geometry"/>
        </mxCell>
        <mxCell id="7xh4q1Sv84D6rDVdjl3a-160" value="" style="ellipse;whiteSpace=wrap;html=1;aspect=fixed;fillColor=#ffe6cc;strokeColor=#d79b00;" parent="7xh4q1Sv84D6rDVdjl3a-159" vertex="1">
          <mxGeometry width="80" height="80" as="geometry"/>
        </mxCell>
        <mxCell id="7xh4q1Sv84D6rDVdjl3a-161" value="" style="shape=flexArrow;endArrow=classic;html=1;fillColor=#ffffff;" parent="7xh4q1Sv84D6rDVdjl3a-159" edge="1">
          <mxGeometry width="50" height="50" relative="1" as="geometry">
            <mxPoint x="20" y="40" as="sourcePoint"/>
            <mxPoint x="60" y="40" as="targetPoint"/>
          </mxGeometry>
        </mxCell>
        <mxCell id="7xh4q1Sv84D6rDVdjl3a-163" style="edgeStyle=orthogonalEdgeStyle;rounded=0;orthogonalLoop=1;jettySize=auto;html=1;exitX=0.5;exitY=1;exitDx=0;exitDy=0;exitPerimeter=0;entryX=0.5;entryY=0;entryDx=0;entryDy=0;fontSize=18;" parent="1" source="7xh4q1Sv84D6rDVdjl3a-154" target="7xh4q1Sv84D6rDVdjl3a-160" edge="1">
          <mxGeometry relative="1" as="geometry"/>
        </mxCell>
        <mxCell id="7xh4q1Sv84D6rDVdjl3a-169" value="" style="endArrow=classic;html=1;fontSize=18;exitX=0.5;exitY=1;exitDx=0;exitDy=0;entryX=0.5;entryY=0;entryDx=0;entryDy=0;entryPerimeter=0;" parent="1" source="7xh4q1Sv84D6rDVdjl3a-160" target="7xh4q1Sv84D6rDVdjl3a-540" edge="1">
          <mxGeometry width="50" height="50" relative="1" as="geometry">
            <mxPoint x="160.5" y="1900" as="sourcePoint"/>
            <mxPoint x="31.200000000000045" y="1867.3600000000001" as="targetPoint"/>
          </mxGeometry>
        </mxCell>
        <mxCell id="si8xvzxJP4cne3jjyy44-215" style="edgeStyle=orthogonalEdgeStyle;rounded=0;orthogonalLoop=1;jettySize=auto;html=1;exitX=0.5;exitY=1;exitDx=0;exitDy=0;entryX=0.5;entryY=0;entryDx=0;entryDy=0;" parent="1" source="7xh4q1Sv84D6rDVdjl3a-170" target="si8xvzxJP4cne3jjyy44-202" edge="1">
          <mxGeometry relative="1" as="geometry"/>
        </mxCell>
        <mxCell id="7xh4q1Sv84D6rDVdjl3a-170" value="Spotted by Guard?" style="rounded=0;whiteSpace=wrap;html=1;fontSize=18;fillColor=#ffe6cc;strokeColor=#d79b00;" parent="1" vertex="1">
          <mxGeometry x="253" y="1680" width="120" height="60" as="geometry"/>
        </mxCell>
        <mxCell id="7xh4q1Sv84D6rDVdjl3a-171" value="" style="endArrow=classic;html=1;fontSize=18;exitX=0.5;exitY=1;exitDx=0;exitDy=0;entryX=0.5;entryY=0;entryDx=0;entryDy=0;" parent="1" source="7xh4q1Sv84D6rDVdjl3a-160" target="7xh4q1Sv84D6rDVdjl3a-170" edge="1">
          <mxGeometry width="50" height="50" relative="1" as="geometry">
            <mxPoint x="330" y="1640" as="sourcePoint"/>
            <mxPoint x="380" y="1590" as="targetPoint"/>
          </mxGeometry>
        </mxCell>
        <mxCell id="7xh4q1Sv84D6rDVdjl3a-172" value="" style="group" parent="1" vertex="1" connectable="0">
          <mxGeometry x="70" y="1900" width="100" height="80" as="geometry"/>
        </mxCell>
        <mxCell id="7xh4q1Sv84D6rDVdjl3a-173" value="" style="shape=loopLimit;whiteSpace=wrap;html=1;fillColor=#ffe6cc;strokeColor=#d79b00;strokeWidth=2;" parent="7xh4q1Sv84D6rDVdjl3a-172" vertex="1">
          <mxGeometry width="100" height="80" as="geometry"/>
        </mxCell>
        <mxCell id="7xh4q1Sv84D6rDVdjl3a-174" value="Set Afraid" style="text;html=1;strokeColor=none;fillColor=none;align=center;verticalAlign=middle;whiteSpace=wrap;rounded=0;fontSize=18;" parent="7xh4q1Sv84D6rDVdjl3a-172" vertex="1">
          <mxGeometry x="30" y="30" width="40" height="20" as="geometry"/>
        </mxCell>
        <mxCell id="7xh4q1Sv84D6rDVdjl3a-176" value="Subtree NEEDS_TREE" style="shape=process;whiteSpace=wrap;html=1;backgroundOutline=1;strokeWidth=2;fontSize=18;fillColor=#dae8fc;strokeColor=#6c8ebf;" parent="1" vertex="1">
          <mxGeometry x="222.5" y="1050" width="262" height="60" as="geometry"/>
        </mxCell>
        <mxCell id="7xh4q1Sv84D6rDVdjl3a-177" value="" style="endArrow=classic;html=1;fontSize=18;exitX=1;exitY=1;exitDx=0;exitDy=0;entryX=0.5;entryY=0;entryDx=0;entryDy=0;" parent="1" source="swZC0YJ0A6inSVuOBq8i-77" target="7xh4q1Sv84D6rDVdjl3a-176" edge="1">
          <mxGeometry width="50" height="50" relative="1" as="geometry">
            <mxPoint x="133.5" y="760" as="sourcePoint"/>
            <mxPoint x="183.5" y="710" as="targetPoint"/>
          </mxGeometry>
        </mxCell>
        <mxCell id="7xh4q1Sv84D6rDVdjl3a-178" value="" style="group" parent="1" vertex="1" connectable="0">
          <mxGeometry x="914" y="795" width="110" height="110" as="geometry"/>
        </mxCell>
        <mxCell id="7xh4q1Sv84D6rDVdjl3a-287" value="" style="group" parent="7xh4q1Sv84D6rDVdjl3a-178" vertex="1" connectable="0">
          <mxGeometry width="110" height="110" as="geometry"/>
        </mxCell>
        <mxCell id="7xh4q1Sv84D6rDVdjl3a-179" value="" style="ellipse;whiteSpace=wrap;html=1;aspect=fixed;fillColor=#ffe6cc;strokeColor=#d79b00;" parent="7xh4q1Sv84D6rDVdjl3a-287" vertex="1">
          <mxGeometry width="110" height="110" as="geometry"/>
        </mxCell>
        <mxCell id="7xh4q1Sv84D6rDVdjl3a-180" value="?%" style="text;html=1;strokeColor=none;fillColor=none;align=center;verticalAlign=middle;whiteSpace=wrap;rounded=0;strokeWidth=5;labelBorderColor=none;fontSize=60;" parent="7xh4q1Sv84D6rDVdjl3a-287" vertex="1">
          <mxGeometry x="27.5" y="41.25" width="55" height="27.5" as="geometry"/>
        </mxCell>
        <mxCell id="7xh4q1Sv84D6rDVdjl3a-183" value="" style="endArrow=classic;html=1;fontSize=18;exitX=1;exitY=1;exitDx=0;exitDy=0;entryX=0;entryY=0;entryDx=0;entryDy=0;" parent="1" source="swZC0YJ0A6inSVuOBq8i-77" target="7xh4q1Sv84D6rDVdjl3a-179" edge="1">
          <mxGeometry width="50" height="50" relative="1" as="geometry">
            <mxPoint x="383.5" y="820" as="sourcePoint"/>
            <mxPoint x="433.5" y="770" as="targetPoint"/>
          </mxGeometry>
        </mxCell>
        <mxCell id="7xh4q1Sv84D6rDVdjl3a-184" value="" style="group;strokeColor=none;" parent="1" vertex="1" connectable="0">
          <mxGeometry x="940" y="1110" width="80" height="80" as="geometry"/>
        </mxCell>
        <mxCell id="7xh4q1Sv84D6rDVdjl3a-185" value="" style="ellipse;whiteSpace=wrap;html=1;aspect=fixed;fillColor=#ffe6cc;strokeColor=#d79b00;" parent="7xh4q1Sv84D6rDVdjl3a-184" vertex="1">
          <mxGeometry width="80" height="80" as="geometry"/>
        </mxCell>
        <mxCell id="7xh4q1Sv84D6rDVdjl3a-186" value="" style="shape=flexArrow;endArrow=classic;html=1;endWidth=8.20977056344623;endSize=6.232558139534884;width=4.697986577181208;fillColor=#ffffff;" parent="7xh4q1Sv84D6rDVdjl3a-184" edge="1">
          <mxGeometry width="50" height="50" relative="1" as="geometry">
            <mxPoint x="20" y="20" as="sourcePoint"/>
            <mxPoint x="70" y="20" as="targetPoint"/>
            <Array as="points"/>
          </mxGeometry>
        </mxCell>
        <mxCell id="7xh4q1Sv84D6rDVdjl3a-187" value="" style="shape=flexArrow;endArrow=classic;html=1;endWidth=8.20977056344623;endSize=6.232558139534884;width=4.697986577181208;fillColor=#ffffff;" parent="7xh4q1Sv84D6rDVdjl3a-184" edge="1">
          <mxGeometry width="50" height="50" relative="1" as="geometry">
            <mxPoint x="20" y="40" as="sourcePoint"/>
            <mxPoint x="70" y="40" as="targetPoint"/>
            <Array as="points"/>
          </mxGeometry>
        </mxCell>
        <mxCell id="7xh4q1Sv84D6rDVdjl3a-188" value="" style="shape=flexArrow;endArrow=classic;html=1;endWidth=8.20977056344623;endSize=6.232558139534884;width=4.697986577181208;fillColor=#ffffff;" parent="7xh4q1Sv84D6rDVdjl3a-184" edge="1">
          <mxGeometry width="50" height="50" relative="1" as="geometry">
            <mxPoint x="20" y="60" as="sourcePoint"/>
            <mxPoint x="70" y="60" as="targetPoint"/>
            <Array as="points"/>
          </mxGeometry>
        </mxCell>
        <mxCell id="7xh4q1Sv84D6rDVdjl3a-190" value="" style="group" parent="1" vertex="1" connectable="0">
          <mxGeometry x="1294" y="1000" width="80" height="80" as="geometry"/>
        </mxCell>
        <mxCell id="7xh4q1Sv84D6rDVdjl3a-191" value="" style="ellipse;whiteSpace=wrap;html=1;aspect=fixed;fillColor=#ffe6cc;strokeColor=#d79b00;" parent="7xh4q1Sv84D6rDVdjl3a-190" vertex="1">
          <mxGeometry width="80" height="80" as="geometry"/>
        </mxCell>
        <mxCell id="7xh4q1Sv84D6rDVdjl3a-192" value="" style="shape=flexArrow;endArrow=classic;html=1;fillColor=#ffffff;" parent="7xh4q1Sv84D6rDVdjl3a-190" edge="1">
          <mxGeometry width="50" height="50" relative="1" as="geometry">
            <mxPoint x="20" y="40" as="sourcePoint"/>
            <mxPoint x="60" y="40" as="targetPoint"/>
          </mxGeometry>
        </mxCell>
        <mxCell id="7xh4q1Sv84D6rDVdjl3a-195" value="" style="endArrow=classic;html=1;fontSize=18;exitX=1;exitY=1;exitDx=0;exitDy=0;entryX=0.5;entryY=0;entryDx=0;entryDy=0;" parent="1" source="7xh4q1Sv84D6rDVdjl3a-179" target="7xh4q1Sv84D6rDVdjl3a-191" edge="1">
          <mxGeometry width="50" height="50" relative="1" as="geometry">
            <mxPoint x="1054" y="990" as="sourcePoint"/>
            <mxPoint x="1104" y="940" as="targetPoint"/>
          </mxGeometry>
        </mxCell>
        <mxCell id="7xh4q1Sv84D6rDVdjl3a-201" value="" style="group" parent="1" vertex="1" connectable="0">
          <mxGeometry x="1024" y="1370" width="100" height="100" as="geometry"/>
        </mxCell>
        <mxCell id="7xh4q1Sv84D6rDVdjl3a-202" value="" style="strokeWidth=2;html=1;shape=mxgraph.flowchart.decision;whiteSpace=wrap;fillColor=#ffe6cc;strokeColor=#d79b00;" parent="7xh4q1Sv84D6rDVdjl3a-201" vertex="1">
          <mxGeometry width="100" height="100" as="geometry"/>
        </mxCell>
        <mxCell id="7xh4q1Sv84D6rDVdjl3a-203" value="" style="group" parent="7xh4q1Sv84D6rDVdjl3a-201" vertex="1" connectable="0">
          <mxGeometry x="20" y="35" width="60" height="30" as="geometry"/>
        </mxCell>
        <mxCell id="7xh4q1Sv84D6rDVdjl3a-204" value="" style="verticalLabelPosition=bottom;verticalAlign=top;html=1;shape=mxgraph.basic.rect;fillColor2=none;strokeWidth=2;size=20;indent=5;fontSize=18;" parent="7xh4q1Sv84D6rDVdjl3a-203" vertex="1">
          <mxGeometry x="10" y="20" width="40" height="10" as="geometry"/>
        </mxCell>
        <mxCell id="7xh4q1Sv84D6rDVdjl3a-205" value="" style="verticalLabelPosition=bottom;verticalAlign=top;html=1;shape=mxgraph.basic.rect;fillColor2=none;strokeWidth=2;size=20;indent=5;fontSize=18;" parent="7xh4q1Sv84D6rDVdjl3a-203" vertex="1">
          <mxGeometry x="10" width="40" height="10" as="geometry"/>
        </mxCell>
        <mxCell id="7xh4q1Sv84D6rDVdjl3a-206" value="" style="verticalLabelPosition=bottom;verticalAlign=top;html=1;shape=mxgraph.basic.rect;fillColor2=none;strokeWidth=1;size=20;indent=5;fontSize=18;rotation=-60;" parent="7xh4q1Sv84D6rDVdjl3a-203" vertex="1">
          <mxGeometry y="10" width="60" height="10" as="geometry"/>
        </mxCell>
        <mxCell id="7xh4q1Sv84D6rDVdjl3a-207" value="" style="verticalLabelPosition=bottom;verticalAlign=top;html=1;shape=mxgraph.basic.rect;fillColor2=none;strokeWidth=1;size=20;indent=5;fontSize=18;strokeColor=none;" parent="7xh4q1Sv84D6rDVdjl3a-203" vertex="1">
          <mxGeometry x="10" width="40" height="10" as="geometry"/>
        </mxCell>
        <mxCell id="7xh4q1Sv84D6rDVdjl3a-208" value="" style="verticalLabelPosition=bottom;verticalAlign=top;html=1;shape=mxgraph.basic.rect;fillColor2=none;strokeWidth=1;size=20;indent=5;fontSize=18;strokeColor=none;" parent="7xh4q1Sv84D6rDVdjl3a-203" vertex="1">
          <mxGeometry x="10" y="20" width="40" height="10" as="geometry"/>
        </mxCell>
        <mxCell id="7xh4q1Sv84D6rDVdjl3a-210" value="" style="endArrow=classic;html=1;fontSize=18;exitX=1;exitY=1;exitDx=0;exitDy=0;entryX=0.5;entryY=0;entryDx=0;entryDy=0;entryPerimeter=0;" parent="1" source="7xh4q1Sv84D6rDVdjl3a-185" target="7xh4q1Sv84D6rDVdjl3a-202" edge="1">
          <mxGeometry width="50" height="50" relative="1" as="geometry">
            <mxPoint x="1096" y="1370" as="sourcePoint"/>
            <mxPoint x="1146" y="1320" as="targetPoint"/>
          </mxGeometry>
        </mxCell>
        <mxCell id="7xh4q1Sv84D6rDVdjl3a-226" value="" style="group" parent="1" vertex="1" connectable="0">
          <mxGeometry x="1024" y="1520" width="100" height="100" as="geometry"/>
        </mxCell>
        <mxCell id="7xh4q1Sv84D6rDVdjl3a-227" value="" style="strokeWidth=2;html=1;shape=mxgraph.flowchart.decision;whiteSpace=wrap;fillColor=#ffe6cc;strokeColor=#d79b00;" parent="7xh4q1Sv84D6rDVdjl3a-226" vertex="1">
          <mxGeometry width="100" height="100" as="geometry"/>
        </mxCell>
        <mxCell id="7xh4q1Sv84D6rDVdjl3a-228" value="" style="html=1;shadow=0;dashed=0;align=center;verticalAlign=middle;shape=mxgraph.arrows2.uTurnArrow;dy=3.03;arrowHead=19.28;dx2=10.64;" parent="7xh4q1Sv84D6rDVdjl3a-226" vertex="1">
          <mxGeometry x="20" y="32.5" width="30" height="30" as="geometry"/>
        </mxCell>
        <mxCell id="7xh4q1Sv84D6rDVdjl3a-229" value="" style="html=1;shadow=0;dashed=0;align=center;verticalAlign=middle;shape=mxgraph.arrows2.uTurnArrow;dy=3.03;arrowHead=19.28;dx2=10.64;rotation=180;" parent="7xh4q1Sv84D6rDVdjl3a-226" vertex="1">
          <mxGeometry x="50" y="37.5" width="30" height="30" as="geometry"/>
        </mxCell>
        <mxCell id="7xh4q1Sv84D6rDVdjl3a-232" value="" style="group" parent="1" vertex="1" connectable="0">
          <mxGeometry x="1034" y="1650" width="80" height="80" as="geometry"/>
        </mxCell>
        <mxCell id="7xh4q1Sv84D6rDVdjl3a-233" value="" style="ellipse;whiteSpace=wrap;html=1;aspect=fixed;fillColor=#ffe6cc;strokeColor=#d79b00;" parent="7xh4q1Sv84D6rDVdjl3a-232" vertex="1">
          <mxGeometry width="80" height="80" as="geometry"/>
        </mxCell>
        <mxCell id="7xh4q1Sv84D6rDVdjl3a-234" value="" style="shape=flexArrow;endArrow=classic;html=1;fillColor=#ffffff;" parent="7xh4q1Sv84D6rDVdjl3a-232" edge="1">
          <mxGeometry width="50" height="50" relative="1" as="geometry">
            <mxPoint x="20" y="40" as="sourcePoint"/>
            <mxPoint x="60" y="40" as="targetPoint"/>
          </mxGeometry>
        </mxCell>
        <mxCell id="7xh4q1Sv84D6rDVdjl3a-235" style="edgeStyle=orthogonalEdgeStyle;rounded=0;orthogonalLoop=1;jettySize=auto;html=1;exitX=0.5;exitY=1;exitDx=0;exitDy=0;exitPerimeter=0;entryX=0.5;entryY=0;entryDx=0;entryDy=0;fontSize=18;" parent="1" source="7xh4q1Sv84D6rDVdjl3a-227" target="7xh4q1Sv84D6rDVdjl3a-233" edge="1">
          <mxGeometry relative="1" as="geometry"/>
        </mxCell>
        <mxCell id="7xh4q1Sv84D6rDVdjl3a-236" style="edgeStyle=orthogonalEdgeStyle;rounded=0;orthogonalLoop=1;jettySize=auto;html=1;exitX=0.5;exitY=1;exitDx=0;exitDy=0;exitPerimeter=0;entryX=0.5;entryY=0;entryDx=0;entryDy=0;entryPerimeter=0;fontSize=18;" parent="1" source="7xh4q1Sv84D6rDVdjl3a-202" target="7xh4q1Sv84D6rDVdjl3a-227" edge="1">
          <mxGeometry relative="1" as="geometry"/>
        </mxCell>
        <mxCell id="7xh4q1Sv84D6rDVdjl3a-241" value="Protesters Around?" style="rounded=0;whiteSpace=wrap;html=1;strokeWidth=2;fontSize=18;fillColor=#ffe6cc;strokeColor=#d79b00;" parent="1" vertex="1">
          <mxGeometry x="1000" y="1779.5" width="120" height="60" as="geometry"/>
        </mxCell>
        <mxCell id="7xh4q1Sv84D6rDVdjl3a-247" value="" style="endArrow=classic;html=1;fontSize=18;exitX=0;exitY=1;exitDx=0;exitDy=0;entryX=0.5;entryY=0;entryDx=0;entryDy=0;entryPerimeter=0;" parent="1" source="7xh4q1Sv84D6rDVdjl3a-233" target="7xh4q1Sv84D6rDVdjl3a-545" edge="1">
          <mxGeometry width="50" height="50" relative="1" as="geometry">
            <mxPoint x="1042" y="1813" as="sourcePoint"/>
            <mxPoint x="1002" y="1833" as="targetPoint"/>
          </mxGeometry>
        </mxCell>
        <mxCell id="7xh4q1Sv84D6rDVdjl3a-248" value="" style="endArrow=classic;html=1;fontSize=18;exitX=0.5;exitY=1;exitDx=0;exitDy=0;entryX=0.5;entryY=0;entryDx=0;entryDy=0;" parent="1" source="7xh4q1Sv84D6rDVdjl3a-233" target="7xh4q1Sv84D6rDVdjl3a-241" edge="1">
          <mxGeometry width="50" height="50" relative="1" as="geometry">
            <mxPoint x="1150" y="1783" as="sourcePoint"/>
            <mxPoint x="1200" y="1733" as="targetPoint"/>
          </mxGeometry>
        </mxCell>
        <mxCell id="7xh4q1Sv84D6rDVdjl3a-257" value="" style="group" parent="1" vertex="1" connectable="0">
          <mxGeometry x="1454" y="1110" width="100" height="80" as="geometry"/>
        </mxCell>
        <mxCell id="7xh4q1Sv84D6rDVdjl3a-258" value="" style="shape=loopLimit;whiteSpace=wrap;html=1;fillColor=#ffe6cc;strokeColor=#d79b00;strokeWidth=2;" parent="7xh4q1Sv84D6rDVdjl3a-257" vertex="1">
          <mxGeometry width="100" height="80" as="geometry"/>
        </mxCell>
        <mxCell id="7xh4q1Sv84D6rDVdjl3a-259" value="Disable Perception" style="text;html=1;strokeColor=none;fillColor=none;align=center;verticalAlign=middle;whiteSpace=wrap;rounded=0;fontSize=18;" parent="7xh4q1Sv84D6rDVdjl3a-257" vertex="1">
          <mxGeometry x="30" y="30" width="40" height="20" as="geometry"/>
        </mxCell>
        <mxCell id="7xh4q1Sv84D6rDVdjl3a-261" value="" style="group" parent="1" vertex="1" connectable="0">
          <mxGeometry x="1312" y="1108.5" width="80" height="80" as="geometry"/>
        </mxCell>
        <mxCell id="7xh4q1Sv84D6rDVdjl3a-262" value="" style="ellipse;whiteSpace=wrap;html=1;aspect=fixed;fillColor=#ffe6cc;strokeColor=#d79b00;" parent="7xh4q1Sv84D6rDVdjl3a-261" vertex="1">
          <mxGeometry width="80" height="80" as="geometry"/>
        </mxCell>
        <mxCell id="7xh4q1Sv84D6rDVdjl3a-263" value="" style="shape=flexArrow;endArrow=classic;html=1;fillColor=#ffffff;" parent="7xh4q1Sv84D6rDVdjl3a-261" edge="1">
          <mxGeometry width="50" height="50" relative="1" as="geometry">
            <mxPoint x="20" y="40" as="sourcePoint"/>
            <mxPoint x="60" y="40" as="targetPoint"/>
          </mxGeometry>
        </mxCell>
        <mxCell id="7xh4q1Sv84D6rDVdjl3a-264" value="" style="endArrow=classic;html=1;fontSize=18;exitX=0;exitY=1;exitDx=0;exitDy=0;entryX=1;entryY=0;entryDx=0;entryDy=0;" parent="1" source="7xh4q1Sv84D6rDVdjl3a-191" target="7xh4q1Sv84D6rDVdjl3a-425" edge="1">
          <mxGeometry width="50" height="50" relative="1" as="geometry">
            <mxPoint x="1184" y="1310" as="sourcePoint"/>
            <mxPoint x="1184" y="1140.0000000000002" as="targetPoint"/>
          </mxGeometry>
        </mxCell>
        <mxCell id="7xh4q1Sv84D6rDVdjl3a-265" value="" style="endArrow=classic;html=1;fontSize=18;exitX=1;exitY=1;exitDx=0;exitDy=0;entryX=0.5;entryY=0;entryDx=0;entryDy=0;" parent="1" source="7xh4q1Sv84D6rDVdjl3a-191" target="7xh4q1Sv84D6rDVdjl3a-258" edge="1">
          <mxGeometry width="50" height="50" relative="1" as="geometry">
            <mxPoint x="1544" y="1310" as="sourcePoint"/>
            <mxPoint x="1594" y="1260" as="targetPoint"/>
          </mxGeometry>
        </mxCell>
        <mxCell id="7xh4q1Sv84D6rDVdjl3a-266" value="" style="endArrow=classic;html=1;fontSize=18;exitX=0.5;exitY=1;exitDx=0;exitDy=0;entryX=0.5;entryY=0;entryDx=0;entryDy=0;" parent="1" source="7xh4q1Sv84D6rDVdjl3a-191" target="7xh4q1Sv84D6rDVdjl3a-262" edge="1">
          <mxGeometry width="50" height="50" relative="1" as="geometry">
            <mxPoint x="1464" y="1390" as="sourcePoint"/>
            <mxPoint x="1514" y="1340" as="targetPoint"/>
          </mxGeometry>
        </mxCell>
        <mxCell id="7xh4q1Sv84D6rDVdjl3a-267" value="" style="group" parent="1" vertex="1" connectable="0">
          <mxGeometry x="1454" y="1260" width="100" height="80" as="geometry"/>
        </mxCell>
        <mxCell id="7xh4q1Sv84D6rDVdjl3a-268" value="" style="shape=loopLimit;whiteSpace=wrap;html=1;fillColor=#ffe6cc;strokeColor=#d79b00;strokeWidth=2;" parent="7xh4q1Sv84D6rDVdjl3a-267" vertex="1">
          <mxGeometry width="100" height="80" as="geometry"/>
        </mxCell>
        <mxCell id="7xh4q1Sv84D6rDVdjl3a-269" value="Set Angry" style="text;html=1;strokeColor=none;fillColor=none;align=center;verticalAlign=middle;whiteSpace=wrap;rounded=0;fontSize=18;" parent="7xh4q1Sv84D6rDVdjl3a-267" vertex="1">
          <mxGeometry x="30" y="30" width="40" height="20" as="geometry"/>
        </mxCell>
        <mxCell id="7xh4q1Sv84D6rDVdjl3a-270" value="" style="endArrow=classic;html=1;fontSize=18;exitX=1;exitY=1;exitDx=0;exitDy=0;entryX=0.5;entryY=0;entryDx=0;entryDy=0;" parent="1" source="7xh4q1Sv84D6rDVdjl3a-262" target="7xh4q1Sv84D6rDVdjl3a-268" edge="1">
          <mxGeometry width="50" height="50" relative="1" as="geometry">
            <mxPoint x="1594" y="1290" as="sourcePoint"/>
            <mxPoint x="1644" y="1240" as="targetPoint"/>
          </mxGeometry>
        </mxCell>
        <mxCell id="7xh4q1Sv84D6rDVdjl3a-276" value="" style="endArrow=classic;html=1;fontSize=18;exitX=0.5;exitY=1;exitDx=0;exitDy=0;entryX=0.5;entryY=0;entryDx=0;entryDy=0;entryPerimeter=0;" parent="1" source="7xh4q1Sv84D6rDVdjl3a-262" target="7xh4q1Sv84D6rDVdjl3a-550" edge="1">
          <mxGeometry width="50" height="50" relative="1" as="geometry">
            <mxPoint x="1074" y="1300" as="sourcePoint"/>
            <mxPoint x="1289" y="1270" as="targetPoint"/>
          </mxGeometry>
        </mxCell>
        <mxCell id="7xh4q1Sv84D6rDVdjl3a-277" value="" style="group" parent="1" vertex="1" connectable="0">
          <mxGeometry x="1564" y="1440" width="100" height="100" as="geometry"/>
        </mxCell>
        <mxCell id="7xh4q1Sv84D6rDVdjl3a-278" value="" style="strokeWidth=2;html=1;shape=mxgraph.flowchart.decision;whiteSpace=wrap;fillColor=#ffe6cc;strokeColor=#d79b00;" parent="7xh4q1Sv84D6rDVdjl3a-277" vertex="1">
          <mxGeometry width="100" height="100" as="geometry"/>
        </mxCell>
        <mxCell id="7xh4q1Sv84D6rDVdjl3a-279" value="" style="html=1;shadow=0;dashed=0;align=center;verticalAlign=middle;shape=mxgraph.arrows2.uTurnArrow;dy=3.03;arrowHead=19.28;dx2=10.64;" parent="7xh4q1Sv84D6rDVdjl3a-277" vertex="1">
          <mxGeometry x="20" y="32.5" width="30" height="30" as="geometry"/>
        </mxCell>
        <mxCell id="7xh4q1Sv84D6rDVdjl3a-280" value="" style="html=1;shadow=0;dashed=0;align=center;verticalAlign=middle;shape=mxgraph.arrows2.uTurnArrow;dy=3.03;arrowHead=19.28;dx2=10.64;rotation=180;" parent="7xh4q1Sv84D6rDVdjl3a-277" vertex="1">
          <mxGeometry x="50" y="37.5" width="30" height="30" as="geometry"/>
        </mxCell>
        <mxCell id="7xh4q1Sv84D6rDVdjl3a-288" value="" style="group" parent="1" vertex="1" connectable="0">
          <mxGeometry x="1709" y="1709" width="80" height="80" as="geometry"/>
        </mxCell>
        <mxCell id="7xh4q1Sv84D6rDVdjl3a-289" value="" style="ellipse;whiteSpace=wrap;html=1;aspect=fixed;fillColor=#ffe6cc;strokeColor=#d79b00;" parent="7xh4q1Sv84D6rDVdjl3a-288" vertex="1">
          <mxGeometry width="80" height="80" as="geometry"/>
        </mxCell>
        <mxCell id="7xh4q1Sv84D6rDVdjl3a-290" value="?" style="text;html=1;strokeColor=none;fillColor=none;align=center;verticalAlign=middle;whiteSpace=wrap;rounded=0;strokeWidth=5;labelBorderColor=none;fontSize=60;" parent="7xh4q1Sv84D6rDVdjl3a-288" vertex="1">
          <mxGeometry x="20" y="30" width="40" height="20" as="geometry"/>
        </mxCell>
        <mxCell id="7xh4q1Sv84D6rDVdjl3a-300" value="" style="group" parent="1" vertex="1" connectable="0">
          <mxGeometry x="1569" y="1570" width="80" height="80" as="geometry"/>
        </mxCell>
        <mxCell id="7xh4q1Sv84D6rDVdjl3a-301" value="" style="ellipse;whiteSpace=wrap;html=1;aspect=fixed;fillColor=#ffe6cc;strokeColor=#d79b00;" parent="7xh4q1Sv84D6rDVdjl3a-300" vertex="1">
          <mxGeometry width="80" height="80" as="geometry"/>
        </mxCell>
        <mxCell id="7xh4q1Sv84D6rDVdjl3a-302" value="" style="shape=flexArrow;endArrow=classic;html=1;fillColor=#ffffff;" parent="7xh4q1Sv84D6rDVdjl3a-300" edge="1">
          <mxGeometry width="50" height="50" relative="1" as="geometry">
            <mxPoint x="20" y="40" as="sourcePoint"/>
            <mxPoint x="60" y="40" as="targetPoint"/>
          </mxGeometry>
        </mxCell>
        <mxCell id="7xh4q1Sv84D6rDVdjl3a-303" style="edgeStyle=orthogonalEdgeStyle;rounded=0;orthogonalLoop=1;jettySize=auto;html=1;exitX=0.5;exitY=1;exitDx=0;exitDy=0;exitPerimeter=0;entryX=0.5;entryY=0;entryDx=0;entryDy=0;fontSize=18;" parent="1" source="7xh4q1Sv84D6rDVdjl3a-278" target="7xh4q1Sv84D6rDVdjl3a-301" edge="1">
          <mxGeometry relative="1" as="geometry"/>
        </mxCell>
        <mxCell id="7xh4q1Sv84D6rDVdjl3a-306" value="" style="endArrow=classic;html=1;fontSize=18;exitX=0;exitY=1;exitDx=0;exitDy=0;entryX=0.5;entryY=0;entryDx=0;entryDy=0;entryPerimeter=0;" parent="1" source="7xh4q1Sv84D6rDVdjl3a-301" target="7xh4q1Sv84D6rDVdjl3a-555" edge="1">
          <mxGeometry width="50" height="50" relative="1" as="geometry">
            <mxPoint x="1389" y="1650" as="sourcePoint"/>
            <mxPoint x="1434" y="1700" as="targetPoint"/>
          </mxGeometry>
        </mxCell>
        <mxCell id="7xh4q1Sv84D6rDVdjl3a-318" style="edgeStyle=orthogonalEdgeStyle;rounded=0;orthogonalLoop=1;jettySize=auto;html=1;exitX=0.5;exitY=1;exitDx=0;exitDy=0;fontSize=18;entryX=0.5;entryY=0;entryDx=0;entryDy=0;" parent="1" source="7xh4q1Sv84D6rDVdjl3a-311" target="7xh4q1Sv84D6rDVdjl3a-316" edge="1">
          <mxGeometry relative="1" as="geometry">
            <mxPoint x="1649.0000000000005" y="1959" as="targetPoint"/>
          </mxGeometry>
        </mxCell>
        <mxCell id="7xh4q1Sv84D6rDVdjl3a-311" value="Hit by Guard?" style="rounded=0;whiteSpace=wrap;html=1;strokeWidth=2;fontSize=18;fillColor=#ffe6cc;strokeColor=#d79b00;" parent="1" vertex="1">
          <mxGeometry x="1589" y="1809" width="120" height="60" as="geometry"/>
        </mxCell>
        <mxCell id="7xh4q1Sv84D6rDVdjl3a-338" style="edgeStyle=orthogonalEdgeStyle;rounded=0;orthogonalLoop=1;jettySize=auto;html=1;exitX=0.5;exitY=1;exitDx=0;exitDy=0;entryX=0.5;entryY=0;entryDx=0;entryDy=0;fontSize=18;" parent="1" source="7xh4q1Sv84D6rDVdjl3a-312" target="7xh4q1Sv84D6rDVdjl3a-336" edge="1">
          <mxGeometry relative="1" as="geometry"/>
        </mxCell>
        <mxCell id="7xh4q1Sv84D6rDVdjl3a-312" value="Violence Nearby" style="rounded=0;whiteSpace=wrap;html=1;strokeWidth=2;fontSize=18;fillColor=#ffe6cc;strokeColor=#d79b00;" parent="1" vertex="1">
          <mxGeometry x="1789" y="1809" width="120" height="60" as="geometry"/>
        </mxCell>
        <mxCell id="7xh4q1Sv84D6rDVdjl3a-313" value="" style="endArrow=classic;html=1;fontSize=18;exitX=0;exitY=1;exitDx=0;exitDy=0;entryX=0.5;entryY=0;entryDx=0;entryDy=0;" parent="1" source="7xh4q1Sv84D6rDVdjl3a-289" target="7xh4q1Sv84D6rDVdjl3a-311" edge="1">
          <mxGeometry width="50" height="50" relative="1" as="geometry">
            <mxPoint x="1739" y="1989" as="sourcePoint"/>
            <mxPoint x="1789" y="1939" as="targetPoint"/>
          </mxGeometry>
        </mxCell>
        <mxCell id="7xh4q1Sv84D6rDVdjl3a-314" value="" style="endArrow=classic;html=1;fontSize=18;exitX=1;exitY=1;exitDx=0;exitDy=0;entryX=0.5;entryY=0;entryDx=0;entryDy=0;" parent="1" source="7xh4q1Sv84D6rDVdjl3a-289" target="7xh4q1Sv84D6rDVdjl3a-312" edge="1">
          <mxGeometry width="50" height="50" relative="1" as="geometry">
            <mxPoint x="1989" y="1889" as="sourcePoint"/>
            <mxPoint x="2039" y="1839" as="targetPoint"/>
          </mxGeometry>
        </mxCell>
        <mxCell id="7xh4q1Sv84D6rDVdjl3a-315" value="" style="group" parent="1" vertex="1" connectable="0">
          <mxGeometry x="1609" y="1909" width="80" height="80" as="geometry"/>
        </mxCell>
        <mxCell id="7xh4q1Sv84D6rDVdjl3a-316" value="" style="ellipse;whiteSpace=wrap;html=1;aspect=fixed;fillColor=#ffe6cc;strokeColor=#d79b00;" parent="7xh4q1Sv84D6rDVdjl3a-315" vertex="1">
          <mxGeometry width="80" height="80" as="geometry"/>
        </mxCell>
        <mxCell id="7xh4q1Sv84D6rDVdjl3a-317" value="" style="shape=flexArrow;endArrow=classic;html=1;fillColor=#ffffff;" parent="7xh4q1Sv84D6rDVdjl3a-315" edge="1">
          <mxGeometry width="50" height="50" relative="1" as="geometry">
            <mxPoint x="20" y="40" as="sourcePoint"/>
            <mxPoint x="60" y="40" as="targetPoint"/>
          </mxGeometry>
        </mxCell>
        <mxCell id="7xh4q1Sv84D6rDVdjl3a-319" value="" style="group" parent="1" vertex="1" connectable="0">
          <mxGeometry x="1672" y="2029" width="100" height="100" as="geometry"/>
        </mxCell>
        <mxCell id="7xh4q1Sv84D6rDVdjl3a-320" value="" style="strokeWidth=2;html=1;shape=mxgraph.flowchart.decision;whiteSpace=wrap;fillColor=#ffe6cc;strokeColor=#d79b00;" parent="7xh4q1Sv84D6rDVdjl3a-319" vertex="1">
          <mxGeometry width="100" height="100" as="geometry"/>
        </mxCell>
        <mxCell id="7xh4q1Sv84D6rDVdjl3a-321" value="" style="triangle;whiteSpace=wrap;html=1;strokeWidth=2;fontSize=18;rotation=-90;" parent="7xh4q1Sv84D6rDVdjl3a-319" vertex="1">
          <mxGeometry x="34" y="20" width="32" height="43" as="geometry"/>
        </mxCell>
        <mxCell id="7xh4q1Sv84D6rDVdjl3a-323" value="" style="endArrow=classic;html=1;fontSize=18;exitX=0;exitY=1;exitDx=0;exitDy=0;entryX=0.5;entryY=0;entryDx=0;entryDy=0;" parent="1" source="7xh4q1Sv84D6rDVdjl3a-316" target="7xh4q1Sv84D6rDVdjl3a-440" edge="1">
          <mxGeometry width="50" height="50" relative="1" as="geometry">
            <mxPoint x="1529" y="2039" as="sourcePoint"/>
            <mxPoint x="1559" y="2039.0000000000005" as="targetPoint"/>
          </mxGeometry>
        </mxCell>
        <mxCell id="7xh4q1Sv84D6rDVdjl3a-324" value="" style="endArrow=classic;html=1;fontSize=18;exitX=1;exitY=1;exitDx=0;exitDy=0;entryX=0.5;entryY=0;entryDx=0;entryDy=0;entryPerimeter=0;" parent="1" source="7xh4q1Sv84D6rDVdjl3a-316" target="7xh4q1Sv84D6rDVdjl3a-320" edge="1">
          <mxGeometry width="50" height="50" relative="1" as="geometry">
            <mxPoint x="1719" y="2029" as="sourcePoint"/>
            <mxPoint x="1769" y="1979" as="targetPoint"/>
          </mxGeometry>
        </mxCell>
        <mxCell id="7xh4q1Sv84D6rDVdjl3a-334" value="" style="edgeStyle=orthogonalEdgeStyle;rounded=0;orthogonalLoop=1;jettySize=auto;html=1;fontSize=18;entryX=0.5;entryY=0;entryDx=0;entryDy=0;" parent="1" source="7xh4q1Sv84D6rDVdjl3a-325" target="7xh4q1Sv84D6rDVdjl3a-328" edge="1">
          <mxGeometry relative="1" as="geometry">
            <mxPoint x="1722" y="2319" as="targetPoint"/>
          </mxGeometry>
        </mxCell>
        <mxCell id="7xh4q1Sv84D6rDVdjl3a-325" value="Damage &amp;gt; 100?" style="rounded=0;whiteSpace=wrap;html=1;strokeWidth=2;fontSize=18;fillColor=#ffe6cc;strokeColor=#d79b00;" parent="1" vertex="1">
          <mxGeometry x="1648.5" y="2159" width="147" height="60" as="geometry"/>
        </mxCell>
        <mxCell id="7xh4q1Sv84D6rDVdjl3a-326" style="edgeStyle=orthogonalEdgeStyle;rounded=0;orthogonalLoop=1;jettySize=auto;html=1;exitX=0.5;exitY=1;exitDx=0;exitDy=0;exitPerimeter=0;entryX=0.5;entryY=0;entryDx=0;entryDy=0;fontSize=18;" parent="1" source="7xh4q1Sv84D6rDVdjl3a-320" target="7xh4q1Sv84D6rDVdjl3a-325" edge="1">
          <mxGeometry relative="1" as="geometry"/>
        </mxCell>
        <mxCell id="7xh4q1Sv84D6rDVdjl3a-327" value="" style="group" parent="1" vertex="1" connectable="0">
          <mxGeometry x="1672" y="2239" width="100" height="80" as="geometry"/>
        </mxCell>
        <mxCell id="7xh4q1Sv84D6rDVdjl3a-328" value="" style="shape=loopLimit;whiteSpace=wrap;html=1;fillColor=#ffe6cc;strokeColor=#d79b00;strokeWidth=2;" parent="7xh4q1Sv84D6rDVdjl3a-327" vertex="1">
          <mxGeometry width="100" height="80" as="geometry"/>
        </mxCell>
        <mxCell id="7xh4q1Sv84D6rDVdjl3a-329" value="Set Dead" style="text;html=1;strokeColor=none;fillColor=none;align=center;verticalAlign=middle;whiteSpace=wrap;rounded=0;fontSize=18;" parent="7xh4q1Sv84D6rDVdjl3a-327" vertex="1">
          <mxGeometry x="30" y="40" width="40" height="20" as="geometry"/>
        </mxCell>
        <mxCell id="7xh4q1Sv84D6rDVdjl3a-335" value="" style="group" parent="1" vertex="1" connectable="0">
          <mxGeometry x="1799" y="1937" width="100" height="80" as="geometry"/>
        </mxCell>
        <mxCell id="7xh4q1Sv84D6rDVdjl3a-336" value="" style="shape=loopLimit;whiteSpace=wrap;html=1;fillColor=#ffe6cc;strokeColor=#d79b00;strokeWidth=2;" parent="7xh4q1Sv84D6rDVdjl3a-335" vertex="1">
          <mxGeometry width="100" height="80" as="geometry"/>
        </mxCell>
        <mxCell id="7xh4q1Sv84D6rDVdjl3a-337" value="&lt;div&gt;Set Afraid&lt;/div&gt;&lt;div&gt;&lt;br&gt;&lt;/div&gt;" style="text;html=1;strokeColor=none;fillColor=none;align=center;verticalAlign=middle;whiteSpace=wrap;rounded=0;fontSize=18;" parent="7xh4q1Sv84D6rDVdjl3a-335" vertex="1">
          <mxGeometry x="30" y="40" width="40" height="20" as="geometry"/>
        </mxCell>
        <mxCell id="7xh4q1Sv84D6rDVdjl3a-345" value="" style="group" parent="1" vertex="1" connectable="0">
          <mxGeometry x="-280" y="2010" width="80" height="80" as="geometry"/>
        </mxCell>
        <mxCell id="7xh4q1Sv84D6rDVdjl3a-346" value="" style="ellipse;whiteSpace=wrap;html=1;aspect=fixed;fillColor=#ffe6cc;strokeColor=#d79b00;" parent="7xh4q1Sv84D6rDVdjl3a-345" vertex="1">
          <mxGeometry width="80" height="80" as="geometry"/>
        </mxCell>
        <mxCell id="7xh4q1Sv84D6rDVdjl3a-347" value="" style="shape=flexArrow;endArrow=classic;html=1;fillColor=#ffffff;" parent="7xh4q1Sv84D6rDVdjl3a-345" edge="1">
          <mxGeometry width="50" height="50" relative="1" as="geometry">
            <mxPoint x="20" y="40" as="sourcePoint"/>
            <mxPoint x="60" y="40" as="targetPoint"/>
          </mxGeometry>
        </mxCell>
        <mxCell id="7xh4q1Sv84D6rDVdjl3a-350" value="" style="group" parent="1" vertex="1" connectable="0">
          <mxGeometry x="-341.5" y="2150" width="100" height="80" as="geometry"/>
        </mxCell>
        <mxCell id="7xh4q1Sv84D6rDVdjl3a-351" value="" style="shape=loopLimit;whiteSpace=wrap;html=1;fillColor=#ffe6cc;strokeColor=#d79b00;strokeWidth=2;" parent="7xh4q1Sv84D6rDVdjl3a-350" vertex="1">
          <mxGeometry width="100" height="80" as="geometry"/>
        </mxCell>
        <mxCell id="7xh4q1Sv84D6rDVdjl3a-352" value="Disable Perception" style="text;html=1;strokeColor=none;fillColor=none;align=center;verticalAlign=middle;whiteSpace=wrap;rounded=0;fontSize=18;" parent="7xh4q1Sv84D6rDVdjl3a-350" vertex="1">
          <mxGeometry x="30" y="30" width="40" height="20" as="geometry"/>
        </mxCell>
        <mxCell id="7xh4q1Sv84D6rDVdjl3a-353" value="" style="group" parent="1" vertex="1" connectable="0">
          <mxGeometry x="-200" y="2150" width="100" height="80" as="geometry"/>
        </mxCell>
        <mxCell id="7xh4q1Sv84D6rDVdjl3a-354" value="" style="shape=loopLimit;whiteSpace=wrap;html=1;fillColor=#ffe6cc;strokeColor=#d79b00;strokeWidth=2;" parent="7xh4q1Sv84D6rDVdjl3a-353" vertex="1">
          <mxGeometry width="100" height="80" as="geometry"/>
        </mxCell>
        <mxCell id="7xh4q1Sv84D6rDVdjl3a-355" value="Free my spot" style="text;html=1;strokeColor=none;fillColor=none;align=center;verticalAlign=middle;whiteSpace=wrap;rounded=0;fontSize=18;" parent="7xh4q1Sv84D6rDVdjl3a-353" vertex="1">
          <mxGeometry x="15" y="20" width="70" height="40" as="geometry"/>
        </mxCell>
        <mxCell id="7xh4q1Sv84D6rDVdjl3a-361" value="" style="endArrow=classic;html=1;fontSize=18;entryX=0.5;entryY=0;entryDx=0;entryDy=0;exitX=0.5;exitY=1;exitDx=0;exitDy=0;" parent="1" source="7xh4q1Sv84D6rDVdjl3a-346" target="7xh4q1Sv84D6rDVdjl3a-351" edge="1">
          <mxGeometry width="50" height="50" relative="1" as="geometry">
            <mxPoint x="-239.5" y="2051" as="sourcePoint"/>
            <mxPoint x="-203.5" y="2200" as="targetPoint"/>
          </mxGeometry>
        </mxCell>
        <mxCell id="7xh4q1Sv84D6rDVdjl3a-362" value="" style="endArrow=classic;html=1;fontSize=18;exitX=0.5;exitY=1;exitDx=0;exitDy=0;entryX=0.5;entryY=0;entryDx=0;entryDy=0;" parent="1" source="7xh4q1Sv84D6rDVdjl3a-346" target="7xh4q1Sv84D6rDVdjl3a-354" edge="1">
          <mxGeometry width="50" height="50" relative="1" as="geometry">
            <mxPoint x="-160" y="1610" as="sourcePoint"/>
            <mxPoint x="-110" y="1560" as="targetPoint"/>
          </mxGeometry>
        </mxCell>
        <mxCell id="7xh4q1Sv84D6rDVdjl3a-364" value="" style="group" parent="1" vertex="1" connectable="0">
          <mxGeometry x="-571.5" y="1360" width="80" height="80" as="geometry"/>
        </mxCell>
        <mxCell id="7xh4q1Sv84D6rDVdjl3a-365" value="" style="ellipse;whiteSpace=wrap;html=1;aspect=fixed;fillColor=#ffe6cc;strokeColor=#d79b00;" parent="7xh4q1Sv84D6rDVdjl3a-364" vertex="1">
          <mxGeometry width="80" height="80" as="geometry"/>
        </mxCell>
        <mxCell id="7xh4q1Sv84D6rDVdjl3a-366" value="" style="shape=flexArrow;endArrow=classic;html=1;fillColor=#ffffff;" parent="7xh4q1Sv84D6rDVdjl3a-364" edge="1">
          <mxGeometry width="50" height="50" relative="1" as="geometry">
            <mxPoint x="20" y="40" as="sourcePoint"/>
            <mxPoint x="60" y="40" as="targetPoint"/>
          </mxGeometry>
        </mxCell>
        <mxCell id="7xh4q1Sv84D6rDVdjl3a-374" value="" style="group" parent="1" vertex="1" connectable="0">
          <mxGeometry x="-581.5" y="1477.5" width="100" height="80" as="geometry"/>
        </mxCell>
        <mxCell id="7xh4q1Sv84D6rDVdjl3a-375" value="" style="group" parent="7xh4q1Sv84D6rDVdjl3a-374" vertex="1" connectable="0">
          <mxGeometry width="100" height="80" as="geometry"/>
        </mxCell>
        <mxCell id="7xh4q1Sv84D6rDVdjl3a-376" value="" style="shape=loopLimit;whiteSpace=wrap;html=1;fillColor=#ffe6cc;strokeColor=#d79b00;strokeWidth=2;" parent="7xh4q1Sv84D6rDVdjl3a-375" vertex="1">
          <mxGeometry width="100" height="80" as="geometry"/>
        </mxCell>
        <mxCell id="7xh4q1Sv84D6rDVdjl3a-377" value="Enable Perception" style="text;html=1;strokeColor=none;fillColor=none;align=center;verticalAlign=middle;whiteSpace=wrap;rounded=0;fontSize=18;" parent="7xh4q1Sv84D6rDVdjl3a-375" vertex="1">
          <mxGeometry x="30" y="30" width="40" height="20" as="geometry"/>
        </mxCell>
        <mxCell id="7xh4q1Sv84D6rDVdjl3a-378" value="" style="endArrow=classic;html=1;fontSize=18;exitX=0;exitY=1;exitDx=0;exitDy=0;entryX=0.5;entryY=0;entryDx=0;entryDy=0;" parent="1" source="7xh4q1Sv84D6rDVdjl3a-365" target="7xh4q1Sv84D6rDVdjl3a-372" edge="1">
          <mxGeometry width="50" height="50" relative="1" as="geometry">
            <mxPoint x="-650" y="1470" as="sourcePoint"/>
            <mxPoint x="-600" y="1420" as="targetPoint"/>
          </mxGeometry>
        </mxCell>
        <mxCell id="7xh4q1Sv84D6rDVdjl3a-379" value="" style="endArrow=classic;html=1;fontSize=18;exitX=0.5;exitY=1;exitDx=0;exitDy=0;entryX=0.5;entryY=0;entryDx=0;entryDy=0;" parent="1" source="7xh4q1Sv84D6rDVdjl3a-365" target="7xh4q1Sv84D6rDVdjl3a-376" edge="1">
          <mxGeometry width="50" height="50" relative="1" as="geometry">
            <mxPoint x="-460" y="1480" as="sourcePoint"/>
            <mxPoint x="-410" y="1430" as="targetPoint"/>
          </mxGeometry>
        </mxCell>
        <mxCell id="7xh4q1Sv84D6rDVdjl3a-380" value="" style="group" parent="1" vertex="1" connectable="0">
          <mxGeometry x="-40.5" y="1190" width="80" height="80" as="geometry"/>
        </mxCell>
        <mxCell id="7xh4q1Sv84D6rDVdjl3a-381" value="" style="ellipse;whiteSpace=wrap;html=1;aspect=fixed;fillColor=#ffe6cc;strokeColor=#d79b00;" parent="7xh4q1Sv84D6rDVdjl3a-380" vertex="1">
          <mxGeometry width="80" height="80" as="geometry"/>
        </mxCell>
        <mxCell id="7xh4q1Sv84D6rDVdjl3a-382" value="" style="shape=flexArrow;endArrow=classic;html=1;fillColor=#ffffff;" parent="7xh4q1Sv84D6rDVdjl3a-380" edge="1">
          <mxGeometry width="50" height="50" relative="1" as="geometry">
            <mxPoint x="20" y="40" as="sourcePoint"/>
            <mxPoint x="60" y="40" as="targetPoint"/>
          </mxGeometry>
        </mxCell>
        <mxCell id="7xh4q1Sv84D6rDVdjl3a-390" value="" style="group" parent="1" vertex="1" connectable="0">
          <mxGeometry x="-712" y="1480" width="100" height="80" as="geometry"/>
        </mxCell>
        <mxCell id="7xh4q1Sv84D6rDVdjl3a-370" value="" style="group" parent="7xh4q1Sv84D6rDVdjl3a-390" vertex="1" connectable="0">
          <mxGeometry width="100" height="80" as="geometry"/>
        </mxCell>
        <mxCell id="7xh4q1Sv84D6rDVdjl3a-371" value="" style="group" parent="7xh4q1Sv84D6rDVdjl3a-370" vertex="1" connectable="0">
          <mxGeometry width="100" height="80" as="geometry"/>
        </mxCell>
        <mxCell id="7xh4q1Sv84D6rDVdjl3a-372" value="" style="shape=loopLimit;whiteSpace=wrap;html=1;fillColor=#ffe6cc;strokeColor=#d79b00;strokeWidth=2;" parent="7xh4q1Sv84D6rDVdjl3a-371" vertex="1">
          <mxGeometry width="100" height="80" as="geometry"/>
        </mxCell>
        <mxCell id="7xh4q1Sv84D6rDVdjl3a-373" value="Start Run" style="text;html=1;strokeColor=none;fillColor=none;align=center;verticalAlign=middle;whiteSpace=wrap;rounded=0;fontSize=18;" parent="7xh4q1Sv84D6rDVdjl3a-371" vertex="1">
          <mxGeometry x="30" y="30" width="40" height="20" as="geometry"/>
        </mxCell>
        <mxCell id="7xh4q1Sv84D6rDVdjl3a-391" value="" style="group" parent="1" vertex="1" connectable="0">
          <mxGeometry x="33.5" y="1309" width="100" height="80" as="geometry"/>
        </mxCell>
        <mxCell id="7xh4q1Sv84D6rDVdjl3a-392" value="" style="group" parent="7xh4q1Sv84D6rDVdjl3a-391" vertex="1" connectable="0">
          <mxGeometry width="100" height="80" as="geometry"/>
        </mxCell>
        <mxCell id="7xh4q1Sv84D6rDVdjl3a-393" value="" style="shape=loopLimit;whiteSpace=wrap;html=1;fillColor=#ffe6cc;strokeColor=#d79b00;strokeWidth=2;" parent="7xh4q1Sv84D6rDVdjl3a-392" vertex="1">
          <mxGeometry width="100" height="80" as="geometry"/>
        </mxCell>
        <mxCell id="7xh4q1Sv84D6rDVdjl3a-394" value="Enable Perception" style="text;html=1;strokeColor=none;fillColor=none;align=center;verticalAlign=middle;whiteSpace=wrap;rounded=0;fontSize=18;" parent="7xh4q1Sv84D6rDVdjl3a-392" vertex="1">
          <mxGeometry x="30" y="30" width="40" height="20" as="geometry"/>
        </mxCell>
        <mxCell id="7xh4q1Sv84D6rDVdjl3a-395" value="" style="group" parent="1" vertex="1" connectable="0">
          <mxGeometry x="-80" y="1309" width="100" height="80" as="geometry"/>
        </mxCell>
        <mxCell id="7xh4q1Sv84D6rDVdjl3a-396" value="" style="group" parent="7xh4q1Sv84D6rDVdjl3a-395" vertex="1" connectable="0">
          <mxGeometry width="100" height="80" as="geometry"/>
        </mxCell>
        <mxCell id="7xh4q1Sv84D6rDVdjl3a-397" value="" style="group" parent="7xh4q1Sv84D6rDVdjl3a-396" vertex="1" connectable="0">
          <mxGeometry width="100" height="80" as="geometry"/>
        </mxCell>
        <mxCell id="7xh4q1Sv84D6rDVdjl3a-398" value="" style="shape=loopLimit;whiteSpace=wrap;html=1;fillColor=#ffe6cc;strokeColor=#d79b00;strokeWidth=2;" parent="7xh4q1Sv84D6rDVdjl3a-397" vertex="1">
          <mxGeometry width="100" height="80" as="geometry"/>
        </mxCell>
        <mxCell id="7xh4q1Sv84D6rDVdjl3a-399" value="Start Run" style="text;html=1;strokeColor=none;fillColor=none;align=center;verticalAlign=middle;whiteSpace=wrap;rounded=0;fontSize=18;" parent="7xh4q1Sv84D6rDVdjl3a-397" vertex="1">
          <mxGeometry x="30" y="30" width="40" height="20" as="geometry"/>
        </mxCell>
        <mxCell id="7xh4q1Sv84D6rDVdjl3a-400" value="" style="endArrow=classic;html=1;fontSize=18;exitX=0.5;exitY=1;exitDx=0;exitDy=0;entryX=0.5;entryY=0;entryDx=0;entryDy=0;" parent="1" source="7xh4q1Sv84D6rDVdjl3a-381" target="7xh4q1Sv84D6rDVdjl3a-398" edge="1">
          <mxGeometry width="50" height="50" relative="1" as="geometry">
            <mxPoint x="-40" y="1500" as="sourcePoint"/>
            <mxPoint x="10" y="1450" as="targetPoint"/>
          </mxGeometry>
        </mxCell>
        <mxCell id="7xh4q1Sv84D6rDVdjl3a-401" value="" style="endArrow=classic;html=1;fontSize=18;exitX=0.5;exitY=1;exitDx=0;exitDy=0;entryX=0.5;entryY=0;entryDx=0;entryDy=0;" parent="1" source="7xh4q1Sv84D6rDVdjl3a-381" target="7xh4q1Sv84D6rDVdjl3a-393" edge="1">
          <mxGeometry width="50" height="50" relative="1" as="geometry">
            <mxPoint x="130" y="1490" as="sourcePoint"/>
            <mxPoint x="180" y="1440" as="targetPoint"/>
          </mxGeometry>
        </mxCell>
        <mxCell id="7xh4q1Sv84D6rDVdjl3a-424" value="" style="group" parent="1" vertex="1" connectable="0">
          <mxGeometry x="1170" y="1100" width="80" height="80" as="geometry"/>
        </mxCell>
        <mxCell id="7xh4q1Sv84D6rDVdjl3a-425" value="" style="ellipse;whiteSpace=wrap;html=1;aspect=fixed;fillColor=#ffe6cc;strokeColor=#d79b00;" parent="7xh4q1Sv84D6rDVdjl3a-424" vertex="1">
          <mxGeometry width="80" height="80" as="geometry"/>
        </mxCell>
        <mxCell id="7xh4q1Sv84D6rDVdjl3a-426" value="" style="shape=flexArrow;endArrow=classic;html=1;fillColor=#ffffff;" parent="7xh4q1Sv84D6rDVdjl3a-424" edge="1">
          <mxGeometry width="50" height="50" relative="1" as="geometry">
            <mxPoint x="20" y="40" as="sourcePoint"/>
            <mxPoint x="60" y="40" as="targetPoint"/>
          </mxGeometry>
        </mxCell>
        <mxCell id="7xh4q1Sv84D6rDVdjl3a-427" value="" style="group" parent="1" vertex="1" connectable="0">
          <mxGeometry x="1080" y="1220" width="100" height="80" as="geometry"/>
        </mxCell>
        <mxCell id="7xh4q1Sv84D6rDVdjl3a-428" value="" style="shape=loopLimit;whiteSpace=wrap;html=1;fillColor=#ffe6cc;strokeColor=#d79b00;strokeWidth=2;" parent="7xh4q1Sv84D6rDVdjl3a-427" vertex="1">
          <mxGeometry width="100" height="80" as="geometry"/>
        </mxCell>
        <mxCell id="7xh4q1Sv84D6rDVdjl3a-429" value="Set Protesting" style="text;html=1;strokeColor=none;fillColor=none;align=center;verticalAlign=middle;whiteSpace=wrap;rounded=0;fontSize=18;" parent="7xh4q1Sv84D6rDVdjl3a-427" vertex="1">
          <mxGeometry x="30" y="30" width="40" height="20" as="geometry"/>
        </mxCell>
        <mxCell id="7xh4q1Sv84D6rDVdjl3a-430" value="" style="group" parent="1" vertex="1" connectable="0">
          <mxGeometry x="1206" y="1220" width="100" height="80" as="geometry"/>
        </mxCell>
        <mxCell id="7xh4q1Sv84D6rDVdjl3a-431" value="" style="shape=loopLimit;whiteSpace=wrap;html=1;fillColor=#ffe6cc;strokeColor=#d79b00;strokeWidth=2;" parent="7xh4q1Sv84D6rDVdjl3a-430" vertex="1">
          <mxGeometry width="100" height="80" as="geometry"/>
        </mxCell>
        <mxCell id="7xh4q1Sv84D6rDVdjl3a-432" value="Enable perception" style="text;html=1;strokeColor=none;fillColor=none;align=center;verticalAlign=middle;whiteSpace=wrap;rounded=0;fontSize=18;" parent="7xh4q1Sv84D6rDVdjl3a-430" vertex="1">
          <mxGeometry x="30" y="30" width="40" height="20" as="geometry"/>
        </mxCell>
        <mxCell id="7xh4q1Sv84D6rDVdjl3a-433" value="" style="endArrow=classic;html=1;fontSize=18;exitX=0;exitY=1;exitDx=0;exitDy=0;entryX=0.5;entryY=0;entryDx=0;entryDy=0;" parent="1" source="7xh4q1Sv84D6rDVdjl3a-425" target="7xh4q1Sv84D6rDVdjl3a-428" edge="1">
          <mxGeometry width="50" height="50" relative="1" as="geometry">
            <mxPoint x="1066" y="1190" as="sourcePoint"/>
            <mxPoint x="1116" y="1140" as="targetPoint"/>
          </mxGeometry>
        </mxCell>
        <mxCell id="7xh4q1Sv84D6rDVdjl3a-434" value="" style="endArrow=classic;html=1;fontSize=18;exitX=1;exitY=1;exitDx=0;exitDy=0;" parent="1" source="7xh4q1Sv84D6rDVdjl3a-425" target="7xh4q1Sv84D6rDVdjl3a-431" edge="1">
          <mxGeometry width="50" height="50" relative="1" as="geometry">
            <mxPoint x="1306" y="1210" as="sourcePoint"/>
            <mxPoint x="1356" y="1160" as="targetPoint"/>
          </mxGeometry>
        </mxCell>
        <mxCell id="7xh4q1Sv84D6rDVdjl3a-436" value="" style="group" parent="1" vertex="1" connectable="0">
          <mxGeometry x="1380" y="2159" width="100" height="80" as="geometry"/>
        </mxCell>
        <mxCell id="7xh4q1Sv84D6rDVdjl3a-437" value="" style="shape=loopLimit;whiteSpace=wrap;html=1;fillColor=#ffe6cc;strokeColor=#d79b00;strokeWidth=2;" parent="7xh4q1Sv84D6rDVdjl3a-436" vertex="1">
          <mxGeometry width="100" height="80" as="geometry"/>
        </mxCell>
        <mxCell id="7xh4q1Sv84D6rDVdjl3a-438" value="Set Fainted" style="text;html=1;strokeColor=none;fillColor=none;align=center;verticalAlign=middle;whiteSpace=wrap;rounded=0;fontSize=18;" parent="7xh4q1Sv84D6rDVdjl3a-436" vertex="1">
          <mxGeometry x="30" y="40" width="40" height="20" as="geometry"/>
        </mxCell>
        <mxCell id="7xh4q1Sv84D6rDVdjl3a-439" value="" style="group" parent="1" vertex="1" connectable="0">
          <mxGeometry x="1500" y="2029" width="80" height="80" as="geometry"/>
        </mxCell>
        <mxCell id="7xh4q1Sv84D6rDVdjl3a-440" value="" style="ellipse;whiteSpace=wrap;html=1;aspect=fixed;fillColor=#ffe6cc;strokeColor=#d79b00;" parent="7xh4q1Sv84D6rDVdjl3a-439" vertex="1">
          <mxGeometry width="80" height="80" as="geometry"/>
        </mxCell>
        <mxCell id="7xh4q1Sv84D6rDVdjl3a-441" value="" style="shape=flexArrow;endArrow=classic;html=1;fillColor=#ffffff;" parent="7xh4q1Sv84D6rDVdjl3a-439" edge="1">
          <mxGeometry width="50" height="50" relative="1" as="geometry">
            <mxPoint x="20" y="40" as="sourcePoint"/>
            <mxPoint x="60" y="40" as="targetPoint"/>
          </mxGeometry>
        </mxCell>
        <mxCell id="7xh4q1Sv84D6rDVdjl3a-442" value="" style="group" parent="1" vertex="1" connectable="0">
          <mxGeometry x="1520" y="2159" width="100" height="80" as="geometry"/>
        </mxCell>
        <mxCell id="7xh4q1Sv84D6rDVdjl3a-443" value="" style="shape=loopLimit;whiteSpace=wrap;html=1;fillColor=#ffe6cc;strokeColor=#d79b00;strokeWidth=2;" parent="7xh4q1Sv84D6rDVdjl3a-442" vertex="1">
          <mxGeometry width="100" height="80" as="geometry"/>
        </mxCell>
        <mxCell id="7xh4q1Sv84D6rDVdjl3a-444" value="Damage += 20" style="text;html=1;strokeColor=none;fillColor=none;align=center;verticalAlign=middle;whiteSpace=wrap;rounded=0;fontSize=18;" parent="7xh4q1Sv84D6rDVdjl3a-442" vertex="1">
          <mxGeometry x="30" y="40" width="40" height="20" as="geometry"/>
        </mxCell>
        <mxCell id="7xh4q1Sv84D6rDVdjl3a-445" value="" style="endArrow=classic;html=1;fontSize=18;exitX=0.5;exitY=1;exitDx=0;exitDy=0;entryX=0.5;entryY=0;entryDx=0;entryDy=0;" parent="1" source="7xh4q1Sv84D6rDVdjl3a-440" target="7xh4q1Sv84D6rDVdjl3a-437" edge="1">
          <mxGeometry width="50" height="50" relative="1" as="geometry">
            <mxPoint x="1320" y="2099" as="sourcePoint"/>
            <mxPoint x="1370" y="2049" as="targetPoint"/>
          </mxGeometry>
        </mxCell>
        <mxCell id="7xh4q1Sv84D6rDVdjl3a-446" value="" style="endArrow=classic;html=1;fontSize=18;exitX=0.5;exitY=1;exitDx=0;exitDy=0;entryX=0.5;entryY=0;entryDx=0;entryDy=0;" parent="1" source="7xh4q1Sv84D6rDVdjl3a-440" target="7xh4q1Sv84D6rDVdjl3a-443" edge="1">
          <mxGeometry width="50" height="50" relative="1" as="geometry">
            <mxPoint x="1370" y="2099" as="sourcePoint"/>
            <mxPoint x="1420" y="2049" as="targetPoint"/>
          </mxGeometry>
        </mxCell>
        <mxCell id="7xh4q1Sv84D6rDVdjl3a-456" value="" style="group" parent="1" vertex="1" connectable="0">
          <mxGeometry x="-440" y="2030" width="120" height="60" as="geometry"/>
        </mxCell>
        <mxCell id="7xh4q1Sv84D6rDVdjl3a-457" value="" style="rounded=0;whiteSpace=wrap;html=1;fontSize=18;fillColor=#ffe6cc;strokeColor=#d79b00;" parent="7xh4q1Sv84D6rDVdjl3a-456" vertex="1">
          <mxGeometry width="120" height="60" as="geometry"/>
        </mxCell>
        <mxCell id="7xh4q1Sv84D6rDVdjl3a-458" value="Spotted by guard ?" style="text;html=1;strokeColor=none;fillColor=none;align=center;verticalAlign=middle;whiteSpace=wrap;rounded=0;fontSize=18;" parent="7xh4q1Sv84D6rDVdjl3a-456" vertex="1">
          <mxGeometry y="10" width="120" height="40" as="geometry"/>
        </mxCell>
        <mxCell id="7xh4q1Sv84D6rDVdjl3a-459" value="" style="endArrow=classic;html=1;fontSize=18;exitX=0;exitY=1;exitDx=0;exitDy=0;entryX=0.5;entryY=0;entryDx=0;entryDy=0;entryPerimeter=0;" parent="1" source="7xh4q1Sv84D6rDVdjl3a-448" target="7xh4q1Sv84D6rDVdjl3a-514" edge="1">
          <mxGeometry width="50" height="50" relative="1" as="geometry">
            <mxPoint x="-570" y="2020" as="sourcePoint"/>
            <mxPoint x="-510" y="2030" as="targetPoint"/>
          </mxGeometry>
        </mxCell>
        <mxCell id="7xh4q1Sv84D6rDVdjl3a-460" value="" style="endArrow=classic;html=1;fontSize=18;exitX=0.5;exitY=1;exitDx=0;exitDy=0;entryX=0.5;entryY=0;entryDx=0;entryDy=0;" parent="1" source="7xh4q1Sv84D6rDVdjl3a-448" target="7xh4q1Sv84D6rDVdjl3a-457" edge="1">
          <mxGeometry width="50" height="50" relative="1" as="geometry">
            <mxPoint x="-320" y="2000" as="sourcePoint"/>
            <mxPoint x="-270" y="1950" as="targetPoint"/>
          </mxGeometry>
        </mxCell>
        <mxCell id="7xh4q1Sv84D6rDVdjl3a-462" value="" style="group" parent="1" vertex="1" connectable="0">
          <mxGeometry x="330" y="475" width="80" height="80" as="geometry"/>
        </mxCell>
        <mxCell id="7xh4q1Sv84D6rDVdjl3a-463" value="" style="ellipse;whiteSpace=wrap;html=1;aspect=fixed;fillColor=#ffe6cc;strokeColor=#d79b00;" parent="7xh4q1Sv84D6rDVdjl3a-462" vertex="1">
          <mxGeometry width="80" height="80" as="geometry"/>
        </mxCell>
        <mxCell id="7xh4q1Sv84D6rDVdjl3a-464" value="" style="shape=flexArrow;endArrow=classic;html=1;fillColor=#ffffff;" parent="7xh4q1Sv84D6rDVdjl3a-462" edge="1">
          <mxGeometry width="50" height="50" relative="1" as="geometry">
            <mxPoint x="20" y="40" as="sourcePoint"/>
            <mxPoint x="60" y="40" as="targetPoint"/>
          </mxGeometry>
        </mxCell>
        <mxCell id="7xh4q1Sv84D6rDVdjl3a-465" value="" style="group" parent="1" vertex="1" connectable="0">
          <mxGeometry x="590" y="475" width="80" height="80" as="geometry"/>
        </mxCell>
        <mxCell id="7xh4q1Sv84D6rDVdjl3a-466" value="" style="ellipse;whiteSpace=wrap;html=1;aspect=fixed;fillColor=#ffe6cc;strokeColor=#d79b00;" parent="7xh4q1Sv84D6rDVdjl3a-465" vertex="1">
          <mxGeometry width="80" height="80" as="geometry"/>
        </mxCell>
        <mxCell id="7xh4q1Sv84D6rDVdjl3a-467" value="" style="shape=flexArrow;endArrow=classic;html=1;fillColor=#ffffff;" parent="7xh4q1Sv84D6rDVdjl3a-465" edge="1">
          <mxGeometry width="50" height="50" relative="1" as="geometry">
            <mxPoint x="20" y="40" as="sourcePoint"/>
            <mxPoint x="60" y="40" as="targetPoint"/>
          </mxGeometry>
        </mxCell>
        <mxCell id="7xh4q1Sv84D6rDVdjl3a-471" value="" style="endArrow=classic;html=1;fontSize=18;exitX=0;exitY=1;exitDx=0;exitDy=0;entryX=0.5;entryY=0;entryDx=0;entryDy=0;" parent="1" source="swZC0YJ0A6inSVuOBq8i-7" target="swZC0YJ0A6inSVuOBq8i-9" edge="1">
          <mxGeometry width="50" height="50" relative="1" as="geometry">
            <mxPoint x="-70" y="190" as="sourcePoint"/>
            <mxPoint x="-20" y="140" as="targetPoint"/>
          </mxGeometry>
        </mxCell>
        <mxCell id="7xh4q1Sv84D6rDVdjl3a-479" value="" style="group" parent="1" vertex="1" connectable="0">
          <mxGeometry x="310" y="350" width="120" height="60" as="geometry"/>
        </mxCell>
        <mxCell id="7xh4q1Sv84D6rDVdjl3a-33" value="" style="rounded=0;whiteSpace=wrap;html=1;fontSize=18;fillColor=#ffe6cc;strokeColor=#d79b00;" parent="7xh4q1Sv84D6rDVdjl3a-479" vertex="1">
          <mxGeometry width="120" height="60" as="geometry"/>
        </mxCell>
        <mxCell id="7xh4q1Sv84D6rDVdjl3a-34" value="Dead?" style="text;html=1;strokeColor=none;fillColor=none;align=center;verticalAlign=middle;whiteSpace=wrap;rounded=0;fontSize=18;" parent="7xh4q1Sv84D6rDVdjl3a-479" vertex="1">
          <mxGeometry x="40" y="20" width="40" height="20" as="geometry"/>
        </mxCell>
        <mxCell id="7xh4q1Sv84D6rDVdjl3a-483" value="" style="group" parent="1" vertex="1" connectable="0">
          <mxGeometry x="569" y="340" width="205" height="65" as="geometry"/>
        </mxCell>
        <mxCell id="7xh4q1Sv84D6rDVdjl3a-35" value="" style="rounded=0;whiteSpace=wrap;html=1;fontSize=18;fillColor=#ffe6cc;strokeColor=#d79b00;" parent="7xh4q1Sv84D6rDVdjl3a-483" vertex="1">
          <mxGeometry y="5" width="120" height="60" as="geometry"/>
        </mxCell>
        <mxCell id="7xh4q1Sv84D6rDVdjl3a-36" value="Fainted?" style="text;html=1;strokeColor=none;fillColor=none;align=center;verticalAlign=middle;whiteSpace=wrap;rounded=0;fontSize=18;" parent="7xh4q1Sv84D6rDVdjl3a-483" vertex="1">
          <mxGeometry x="-5" y="5" width="130" height="60" as="geometry"/>
        </mxCell>
        <mxCell id="7xh4q1Sv84D6rDVdjl3a-485" style="edgeStyle=orthogonalEdgeStyle;rounded=0;orthogonalLoop=1;jettySize=auto;html=1;exitX=0.5;exitY=1;exitDx=0;exitDy=0;fontSize=18;entryX=0.5;entryY=0;entryDx=0;entryDy=0;" parent="1" source="7xh4q1Sv84D6rDVdjl3a-36" target="7xh4q1Sv84D6rDVdjl3a-466" edge="1">
          <mxGeometry relative="1" as="geometry">
            <mxPoint x="555.0714285714287" y="465" as="targetPoint"/>
          </mxGeometry>
        </mxCell>
        <mxCell id="7xh4q1Sv84D6rDVdjl3a-489" value="" style="group" parent="1" vertex="1" connectable="0">
          <mxGeometry x="386.5" y="575" width="100" height="80" as="geometry"/>
        </mxCell>
        <mxCell id="si8xvzxJP4cne3jjyy44-194" value="" style="group" parent="7xh4q1Sv84D6rDVdjl3a-489" vertex="1" connectable="0">
          <mxGeometry width="100" height="80" as="geometry"/>
        </mxCell>
        <mxCell id="7xh4q1Sv84D6rDVdjl3a-490" value="" style="shape=loopLimit;whiteSpace=wrap;html=1;fillColor=#ffe6cc;strokeColor=#d79b00;strokeWidth=2;" parent="si8xvzxJP4cne3jjyy44-194" vertex="1">
          <mxGeometry width="100" height="80" as="geometry"/>
        </mxCell>
        <mxCell id="7xh4q1Sv84D6rDVdjl3a-491" value="Destroy Agent" style="text;html=1;strokeColor=none;fillColor=none;align=center;verticalAlign=middle;whiteSpace=wrap;rounded=0;fontStyle=1;fontSize=18;" parent="si8xvzxJP4cne3jjyy44-194" vertex="1">
          <mxGeometry x="30" y="35" width="40" height="20" as="geometry"/>
        </mxCell>
        <mxCell id="7xh4q1Sv84D6rDVdjl3a-492" value="" style="endArrow=classic;html=1;fontSize=18;exitX=0.5;exitY=1;exitDx=0;exitDy=0;entryX=0.5;entryY=0;entryDx=0;entryDy=0;" parent="1" source="7xh4q1Sv84D6rDVdjl3a-463" target="7xh4q1Sv84D6rDVdjl3a-490" edge="1">
          <mxGeometry width="50" height="50" relative="1" as="geometry">
            <mxPoint x="426.5" y="555" as="sourcePoint"/>
            <mxPoint x="476.5" y="505" as="targetPoint"/>
          </mxGeometry>
        </mxCell>
        <mxCell id="7xh4q1Sv84D6rDVdjl3a-496" value="" style="group" parent="1" vertex="1" connectable="0">
          <mxGeometry x="640" y="575" width="100" height="80" as="geometry"/>
        </mxCell>
        <mxCell id="7xh4q1Sv84D6rDVdjl3a-497" value="" style="shape=loopLimit;whiteSpace=wrap;html=1;fillColor=#ffe6cc;strokeColor=#d79b00;strokeWidth=2;" parent="7xh4q1Sv84D6rDVdjl3a-496" vertex="1">
          <mxGeometry width="100" height="80" as="geometry"/>
        </mxCell>
        <mxCell id="7xh4q1Sv84D6rDVdjl3a-498" value="Set Idle" style="text;html=1;strokeColor=none;fillColor=none;align=center;verticalAlign=middle;whiteSpace=wrap;rounded=0;fontStyle=1;fontSize=18;" parent="7xh4q1Sv84D6rDVdjl3a-496" vertex="1">
          <mxGeometry x="30" y="35" width="40" height="20" as="geometry"/>
        </mxCell>
        <mxCell id="7xh4q1Sv84D6rDVdjl3a-499" value="" style="endArrow=classic;html=1;fontSize=18;exitX=0.5;exitY=1;exitDx=0;exitDy=0;entryX=0.5;entryY=0;entryDx=0;entryDy=0;entryPerimeter=0;" parent="1" source="7xh4q1Sv84D6rDVdjl3a-466" target="7xh4q1Sv84D6rDVdjl3a-527" edge="1">
          <mxGeometry width="50" height="50" relative="1" as="geometry">
            <mxPoint x="790" y="535" as="sourcePoint"/>
            <mxPoint x="560" y="575" as="targetPoint"/>
          </mxGeometry>
        </mxCell>
        <mxCell id="7xh4q1Sv84D6rDVdjl3a-500" value="" style="endArrow=classic;html=1;fontSize=18;exitX=0.5;exitY=1;exitDx=0;exitDy=0;entryX=0.5;entryY=0;entryDx=0;entryDy=0;" parent="1" source="7xh4q1Sv84D6rDVdjl3a-466" target="7xh4q1Sv84D6rDVdjl3a-497" edge="1">
          <mxGeometry width="50" height="50" relative="1" as="geometry">
            <mxPoint x="760" y="565" as="sourcePoint"/>
            <mxPoint x="810" y="515" as="targetPoint"/>
          </mxGeometry>
        </mxCell>
        <mxCell id="7xh4q1Sv84D6rDVdjl3a-504" value="" style="group" parent="1" vertex="1" connectable="0">
          <mxGeometry x="-1400" y="40" width="100" height="100" as="geometry"/>
        </mxCell>
        <mxCell id="7xh4q1Sv84D6rDVdjl3a-505" value="" style="strokeWidth=2;html=1;shape=mxgraph.flowchart.decision;whiteSpace=wrap;fontSize=18;fillColor=#ffe6cc;strokeColor=#d79b00;" parent="7xh4q1Sv84D6rDVdjl3a-504" vertex="1">
          <mxGeometry width="100" height="100" as="geometry"/>
        </mxCell>
        <mxCell id="7xh4q1Sv84D6rDVdjl3a-506" value="" style="html=1;verticalLabelPosition=bottom;align=center;labelBackgroundColor=#ffffff;verticalAlign=top;strokeWidth=2;strokeColor=#333333;shadow=0;dashed=0;shape=mxgraph.ios7.icons.alarm_clock;fontSize=18;" parent="7xh4q1Sv84D6rDVdjl3a-504" vertex="1">
          <mxGeometry x="36.5" y="35" width="27" height="30" as="geometry"/>
        </mxCell>
        <mxCell id="7xh4q1Sv84D6rDVdjl3a-524" value="" style="endArrow=classic;html=1;fontSize=18;exitX=0.5;exitY=1;exitDx=0;exitDy=0;entryX=0.5;entryY=0;entryDx=0;entryDy=0;entryPerimeter=0;" parent="1" source="7xh4q1Sv84D6rDVdjl3a-463" target="7xh4q1Sv84D6rDVdjl3a-522" edge="1">
          <mxGeometry width="50" height="50" relative="1" as="geometry">
            <mxPoint x="270" y="595" as="sourcePoint"/>
            <mxPoint x="320" y="545" as="targetPoint"/>
          </mxGeometry>
        </mxCell>
        <mxCell id="7xh4q1Sv84D6rDVdjl3a-530" value="" style="group" parent="1" vertex="1" connectable="0">
          <mxGeometry x="510" y="575" width="120" height="130" as="geometry"/>
        </mxCell>
        <mxCell id="7xh4q1Sv84D6rDVdjl3a-526" value="" style="group" parent="7xh4q1Sv84D6rDVdjl3a-530" vertex="1" connectable="0">
          <mxGeometry x="10" width="100" height="100" as="geometry"/>
        </mxCell>
        <mxCell id="7xh4q1Sv84D6rDVdjl3a-527" value="" style="strokeWidth=2;html=1;shape=mxgraph.flowchart.decision;whiteSpace=wrap;fontSize=18;fillColor=#ffe6cc;strokeColor=#d79b00;" parent="7xh4q1Sv84D6rDVdjl3a-526" vertex="1">
          <mxGeometry width="100" height="100" as="geometry"/>
        </mxCell>
        <mxCell id="7xh4q1Sv84D6rDVdjl3a-528" value="" style="html=1;verticalLabelPosition=bottom;align=center;labelBackgroundColor=#ffffff;verticalAlign=top;strokeWidth=2;strokeColor=#333333;shadow=0;dashed=0;shape=mxgraph.ios7.icons.alarm_clock;fontSize=18;" parent="7xh4q1Sv84D6rDVdjl3a-526" vertex="1">
          <mxGeometry x="36.5" y="35" width="27" height="30" as="geometry"/>
        </mxCell>
        <mxCell id="7xh4q1Sv84D6rDVdjl3a-529" value="Wait 15 Sec" style="rounded=0;whiteSpace=wrap;html=1;strokeColor=#d79b00;strokeWidth=2;fontSize=18;fillColor=#ffe6cc;" parent="7xh4q1Sv84D6rDVdjl3a-530" vertex="1">
          <mxGeometry y="70" width="120" height="60" as="geometry"/>
        </mxCell>
        <mxCell id="7xh4q1Sv84D6rDVdjl3a-531" value="" style="group" parent="1" vertex="1" connectable="0">
          <mxGeometry x="240" y="575" width="120" height="130" as="geometry"/>
        </mxCell>
        <mxCell id="7xh4q1Sv84D6rDVdjl3a-521" value="" style="group" parent="7xh4q1Sv84D6rDVdjl3a-531" vertex="1" connectable="0">
          <mxGeometry x="10" width="100" height="100" as="geometry"/>
        </mxCell>
        <mxCell id="7xh4q1Sv84D6rDVdjl3a-522" value="" style="strokeWidth=2;html=1;shape=mxgraph.flowchart.decision;whiteSpace=wrap;fontSize=18;fillColor=#ffe6cc;strokeColor=#d79b00;" parent="7xh4q1Sv84D6rDVdjl3a-521" vertex="1">
          <mxGeometry width="100" height="100" as="geometry"/>
        </mxCell>
        <mxCell id="7xh4q1Sv84D6rDVdjl3a-523" value="" style="html=1;verticalLabelPosition=bottom;align=center;labelBackgroundColor=#ffffff;verticalAlign=top;strokeWidth=2;strokeColor=#333333;shadow=0;dashed=0;shape=mxgraph.ios7.icons.alarm_clock;fontSize=18;" parent="7xh4q1Sv84D6rDVdjl3a-521" vertex="1">
          <mxGeometry x="36.5" y="35" width="27" height="30" as="geometry"/>
        </mxCell>
        <mxCell id="7xh4q1Sv84D6rDVdjl3a-525" value="Wait 15 Sec" style="rounded=0;whiteSpace=wrap;html=1;strokeColor=#d79b00;strokeWidth=2;fontSize=18;fillColor=#ffe6cc;" parent="7xh4q1Sv84D6rDVdjl3a-531" vertex="1">
          <mxGeometry y="70" width="120" height="60" as="geometry"/>
        </mxCell>
        <mxCell id="7xh4q1Sv84D6rDVdjl3a-532" value="" style="group" parent="1" vertex="1" connectable="0">
          <mxGeometry x="-1134" y="584.5" width="120" height="130" as="geometry"/>
        </mxCell>
        <mxCell id="7xh4q1Sv84D6rDVdjl3a-533" value="" style="group" parent="7xh4q1Sv84D6rDVdjl3a-532" vertex="1" connectable="0">
          <mxGeometry x="10" width="100" height="100" as="geometry"/>
        </mxCell>
        <mxCell id="7xh4q1Sv84D6rDVdjl3a-534" value="" style="strokeWidth=2;html=1;shape=mxgraph.flowchart.decision;whiteSpace=wrap;fontSize=18;fillColor=#ffe6cc;strokeColor=#d79b00;" parent="7xh4q1Sv84D6rDVdjl3a-533" vertex="1">
          <mxGeometry width="100" height="100" as="geometry"/>
        </mxCell>
        <mxCell id="7xh4q1Sv84D6rDVdjl3a-535" value="" style="html=1;verticalLabelPosition=bottom;align=center;labelBackgroundColor=#ffffff;verticalAlign=top;strokeWidth=2;strokeColor=#333333;shadow=0;dashed=0;shape=mxgraph.ios7.icons.alarm_clock;fontSize=18;" parent="7xh4q1Sv84D6rDVdjl3a-533" vertex="1">
          <mxGeometry x="36.5" y="35" width="27" height="30" as="geometry"/>
        </mxCell>
        <mxCell id="7xh4q1Sv84D6rDVdjl3a-536" value="Wait 0.5 Sec" style="rounded=0;whiteSpace=wrap;html=1;strokeColor=#d79b00;strokeWidth=2;fontSize=18;fillColor=#ffe6cc;" parent="7xh4q1Sv84D6rDVdjl3a-532" vertex="1">
          <mxGeometry y="70" width="120" height="60" as="geometry"/>
        </mxCell>
        <mxCell id="7xh4q1Sv84D6rDVdjl3a-537" value="" style="group" parent="1" vertex="1" connectable="0">
          <mxGeometry x="-580" y="2020" width="120" height="138" as="geometry"/>
        </mxCell>
        <mxCell id="7xh4q1Sv84D6rDVdjl3a-513" value="" style="group" parent="7xh4q1Sv84D6rDVdjl3a-537" vertex="1" connectable="0">
          <mxGeometry x="10" width="100" height="100" as="geometry"/>
        </mxCell>
        <mxCell id="7xh4q1Sv84D6rDVdjl3a-514" value="" style="strokeWidth=2;html=1;shape=mxgraph.flowchart.decision;whiteSpace=wrap;fontSize=18;fillColor=#ffe6cc;strokeColor=#d79b00;" parent="7xh4q1Sv84D6rDVdjl3a-513" vertex="1">
          <mxGeometry width="100" height="100" as="geometry"/>
        </mxCell>
        <mxCell id="7xh4q1Sv84D6rDVdjl3a-515" value="" style="html=1;verticalLabelPosition=bottom;align=center;labelBackgroundColor=#ffffff;verticalAlign=top;strokeWidth=2;strokeColor=#333333;shadow=0;dashed=0;shape=mxgraph.ios7.icons.alarm_clock;fontSize=18;" parent="7xh4q1Sv84D6rDVdjl3a-513" vertex="1">
          <mxGeometry x="36.5" y="35" width="27" height="30" as="geometry"/>
        </mxCell>
        <mxCell id="7xh4q1Sv84D6rDVdjl3a-516" value="Wait 0.5 seconds" style="rounded=0;whiteSpace=wrap;html=1;strokeColor=#d79b00;strokeWidth=2;fontSize=18;fillColor=#ffe6cc;" parent="7xh4q1Sv84D6rDVdjl3a-537" vertex="1">
          <mxGeometry y="78" width="120" height="60" as="geometry"/>
        </mxCell>
        <mxCell id="7xh4q1Sv84D6rDVdjl3a-538" value="" style="group" parent="1" vertex="1" connectable="0">
          <mxGeometry x="70" y="1670" width="120" height="138" as="geometry"/>
        </mxCell>
        <mxCell id="7xh4q1Sv84D6rDVdjl3a-539" value="" style="group" parent="7xh4q1Sv84D6rDVdjl3a-538" vertex="1" connectable="0">
          <mxGeometry x="10" width="100" height="100" as="geometry"/>
        </mxCell>
        <mxCell id="7xh4q1Sv84D6rDVdjl3a-540" value="" style="strokeWidth=2;html=1;shape=mxgraph.flowchart.decision;whiteSpace=wrap;fontSize=18;fillColor=#ffe6cc;strokeColor=#d79b00;" parent="7xh4q1Sv84D6rDVdjl3a-539" vertex="1">
          <mxGeometry width="100" height="100" as="geometry"/>
        </mxCell>
        <mxCell id="7xh4q1Sv84D6rDVdjl3a-541" value="" style="html=1;verticalLabelPosition=bottom;align=center;labelBackgroundColor=#ffffff;verticalAlign=top;strokeWidth=2;strokeColor=#333333;shadow=0;dashed=0;shape=mxgraph.ios7.icons.alarm_clock;fontSize=18;" parent="7xh4q1Sv84D6rDVdjl3a-539" vertex="1">
          <mxGeometry x="36.5" y="35" width="27" height="30" as="geometry"/>
        </mxCell>
        <mxCell id="7xh4q1Sv84D6rDVdjl3a-542" value="Wait 0.5 seconds" style="rounded=0;whiteSpace=wrap;html=1;strokeColor=#d79b00;strokeWidth=2;fontSize=18;fillColor=#ffe6cc;" parent="7xh4q1Sv84D6rDVdjl3a-538" vertex="1">
          <mxGeometry y="78" width="120" height="60" as="geometry"/>
        </mxCell>
        <mxCell id="7xh4q1Sv84D6rDVdjl3a-543" value="" style="group" parent="1" vertex="1" connectable="0">
          <mxGeometry x="772" y="1852.5" width="120" height="138" as="geometry"/>
        </mxCell>
        <mxCell id="7xh4q1Sv84D6rDVdjl3a-544" value="" style="group" parent="7xh4q1Sv84D6rDVdjl3a-543" vertex="1" connectable="0">
          <mxGeometry x="10" width="100" height="100" as="geometry"/>
        </mxCell>
        <mxCell id="7xh4q1Sv84D6rDVdjl3a-545" value="" style="strokeWidth=2;html=1;shape=mxgraph.flowchart.decision;whiteSpace=wrap;fontSize=18;fillColor=#ffe6cc;strokeColor=#d79b00;" parent="7xh4q1Sv84D6rDVdjl3a-544" vertex="1">
          <mxGeometry width="100" height="100" as="geometry"/>
        </mxCell>
        <mxCell id="7xh4q1Sv84D6rDVdjl3a-546" value="" style="html=1;verticalLabelPosition=bottom;align=center;labelBackgroundColor=#ffffff;verticalAlign=top;strokeWidth=2;strokeColor=#333333;shadow=0;dashed=0;shape=mxgraph.ios7.icons.alarm_clock;fontSize=18;" parent="7xh4q1Sv84D6rDVdjl3a-544" vertex="1">
          <mxGeometry x="36.5" y="35" width="27" height="30" as="geometry"/>
        </mxCell>
        <mxCell id="7xh4q1Sv84D6rDVdjl3a-547" value="Wait 0.5 seconds" style="rounded=0;whiteSpace=wrap;html=1;strokeColor=#d79b00;strokeWidth=2;fontSize=18;fillColor=#ffe6cc;" parent="7xh4q1Sv84D6rDVdjl3a-543" vertex="1">
          <mxGeometry y="78" width="120" height="60" as="geometry"/>
        </mxCell>
        <mxCell id="7xh4q1Sv84D6rDVdjl3a-548" value="" style="group" parent="1" vertex="1" connectable="0">
          <mxGeometry x="1305" y="1265.5" width="120" height="138" as="geometry"/>
        </mxCell>
        <mxCell id="7xh4q1Sv84D6rDVdjl3a-549" value="" style="group" parent="7xh4q1Sv84D6rDVdjl3a-548" vertex="1" connectable="0">
          <mxGeometry x="10" width="100" height="100" as="geometry"/>
        </mxCell>
        <mxCell id="7xh4q1Sv84D6rDVdjl3a-550" value="" style="strokeWidth=2;html=1;shape=mxgraph.flowchart.decision;whiteSpace=wrap;fontSize=18;fillColor=#ffe6cc;strokeColor=#d79b00;" parent="7xh4q1Sv84D6rDVdjl3a-549" vertex="1">
          <mxGeometry width="100" height="100" as="geometry"/>
        </mxCell>
        <mxCell id="7xh4q1Sv84D6rDVdjl3a-551" value="" style="html=1;verticalLabelPosition=bottom;align=center;labelBackgroundColor=#ffffff;verticalAlign=top;strokeWidth=2;strokeColor=#333333;shadow=0;dashed=0;shape=mxgraph.ios7.icons.alarm_clock;fontSize=18;" parent="7xh4q1Sv84D6rDVdjl3a-549" vertex="1">
          <mxGeometry x="36.5" y="35" width="27" height="30" as="geometry"/>
        </mxCell>
        <mxCell id="7xh4q1Sv84D6rDVdjl3a-552" value="TIMEOUT 15 seconds" style="rounded=0;whiteSpace=wrap;html=1;strokeColor=#d79b00;strokeWidth=2;fontSize=18;fillColor=#ffe6cc;" parent="7xh4q1Sv84D6rDVdjl3a-548" vertex="1">
          <mxGeometry y="89" width="120" height="60" as="geometry"/>
        </mxCell>
        <mxCell id="7xh4q1Sv84D6rDVdjl3a-553" value="" style="group" parent="1" vertex="1" connectable="0">
          <mxGeometry x="1440" y="1679" width="120" height="138" as="geometry"/>
        </mxCell>
        <mxCell id="7xh4q1Sv84D6rDVdjl3a-554" value="" style="group" parent="7xh4q1Sv84D6rDVdjl3a-553" vertex="1" connectable="0">
          <mxGeometry x="10" width="100" height="100" as="geometry"/>
        </mxCell>
        <mxCell id="7xh4q1Sv84D6rDVdjl3a-555" value="" style="strokeWidth=2;html=1;shape=mxgraph.flowchart.decision;whiteSpace=wrap;fontSize=18;fillColor=#ffe6cc;strokeColor=#d79b00;" parent="7xh4q1Sv84D6rDVdjl3a-554" vertex="1">
          <mxGeometry width="100" height="100" as="geometry"/>
        </mxCell>
        <mxCell id="7xh4q1Sv84D6rDVdjl3a-556" value="" style="html=1;verticalLabelPosition=bottom;align=center;labelBackgroundColor=#ffffff;verticalAlign=top;strokeWidth=2;strokeColor=#333333;shadow=0;dashed=0;shape=mxgraph.ios7.icons.alarm_clock;fontSize=18;" parent="7xh4q1Sv84D6rDVdjl3a-554" vertex="1">
          <mxGeometry x="36.5" y="35" width="27" height="30" as="geometry"/>
        </mxCell>
        <mxCell id="7xh4q1Sv84D6rDVdjl3a-557" value="Wait 0.5 seconds" style="rounded=0;whiteSpace=wrap;html=1;strokeColor=#d79b00;strokeWidth=2;fontSize=18;fillColor=#ffe6cc;" parent="7xh4q1Sv84D6rDVdjl3a-553" vertex="1">
          <mxGeometry y="78" width="120" height="60" as="geometry"/>
        </mxCell>
        <mxCell id="7xh4q1Sv84D6rDVdjl3a-571" value="" style="group" parent="1" vertex="1" connectable="0">
          <mxGeometry x="-100.5" y="1457" width="120" height="308" as="geometry"/>
        </mxCell>
        <mxCell id="7xh4q1Sv84D6rDVdjl3a-576" value="" style="group" parent="7xh4q1Sv84D6rDVdjl3a-571" vertex="1" connectable="0">
          <mxGeometry width="120" height="133" as="geometry"/>
        </mxCell>
        <mxCell id="7xh4q1Sv84D6rDVdjl3a-577" value="" style="group" parent="7xh4q1Sv84D6rDVdjl3a-576" vertex="1" connectable="0">
          <mxGeometry x="10" width="100" height="100" as="geometry"/>
        </mxCell>
        <mxCell id="7xh4q1Sv84D6rDVdjl3a-578" value="" style="strokeWidth=2;html=1;shape=mxgraph.flowchart.decision;whiteSpace=wrap;fontSize=18;fillColor=#ffe6cc;strokeColor=#d79b00;" parent="7xh4q1Sv84D6rDVdjl3a-577" vertex="1">
          <mxGeometry width="100" height="100" as="geometry"/>
        </mxCell>
        <mxCell id="7xh4q1Sv84D6rDVdjl3a-579" value="" style="html=1;verticalLabelPosition=bottom;align=center;labelBackgroundColor=#ffffff;verticalAlign=top;strokeWidth=2;strokeColor=#333333;shadow=0;dashed=0;shape=mxgraph.ios7.icons.alarm_clock;fontSize=18;" parent="7xh4q1Sv84D6rDVdjl3a-577" vertex="1">
          <mxGeometry x="36.5" y="35" width="27" height="30" as="geometry"/>
        </mxCell>
        <mxCell id="7xh4q1Sv84D6rDVdjl3a-580" value="&lt;div&gt;Until Finished path?&lt;br&gt;&lt;/div&gt;&lt;div&gt;&lt;br&gt;&lt;/div&gt;" style="rounded=0;whiteSpace=wrap;html=1;strokeColor=#d79b00;strokeWidth=2;fontSize=18;fillColor=#ffe6cc;" parent="7xh4q1Sv84D6rDVdjl3a-576" vertex="1">
          <mxGeometry y="73" width="120" height="60" as="geometry"/>
        </mxCell>
        <mxCell id="si8xvzxJP4cne3jjyy44-184" value="" style="group" parent="7xh4q1Sv84D6rDVdjl3a-571" vertex="1" connectable="0">
          <mxGeometry x="20" y="166" width="80" height="80" as="geometry"/>
        </mxCell>
        <mxCell id="si8xvzxJP4cne3jjyy44-185" value="" style="ellipse;whiteSpace=wrap;html=1;aspect=fixed;fillColor=#ffe6cc;strokeColor=#d79b00;" parent="si8xvzxJP4cne3jjyy44-184" vertex="1">
          <mxGeometry width="80" height="80" as="geometry"/>
        </mxCell>
        <mxCell id="si8xvzxJP4cne3jjyy44-186" value="" style="shape=flexArrow;endArrow=classic;html=1;fillColor=#ffffff;" parent="si8xvzxJP4cne3jjyy44-184" edge="1">
          <mxGeometry width="50" height="50" relative="1" as="geometry">
            <mxPoint x="20" y="40" as="sourcePoint"/>
            <mxPoint x="60" y="40" as="targetPoint"/>
          </mxGeometry>
        </mxCell>
        <mxCell id="si8xvzxJP4cne3jjyy44-200" style="edgeStyle=orthogonalEdgeStyle;rounded=0;orthogonalLoop=1;jettySize=auto;html=1;exitX=0.5;exitY=1;exitDx=0;exitDy=0;entryX=0.5;entryY=0;entryDx=0;entryDy=0;" parent="7xh4q1Sv84D6rDVdjl3a-571" source="7xh4q1Sv84D6rDVdjl3a-580" target="si8xvzxJP4cne3jjyy44-185" edge="1">
          <mxGeometry relative="1" as="geometry"/>
        </mxCell>
        <mxCell id="3F0t3Ccl5Vd54ddvtrLR-1" value="" style="group" parent="1" vertex="1" connectable="0">
          <mxGeometry x="-1400" y="150" width="100" height="100" as="geometry"/>
        </mxCell>
        <mxCell id="3F0t3Ccl5Vd54ddvtrLR-2" value="" style="strokeWidth=2;html=1;shape=mxgraph.flowchart.decision;whiteSpace=wrap;fillColor=#ffe6cc;strokeColor=#d79b00;" parent="3F0t3Ccl5Vd54ddvtrLR-1" vertex="1">
          <mxGeometry width="100" height="100" as="geometry"/>
        </mxCell>
        <mxCell id="3F0t3Ccl5Vd54ddvtrLR-3" value="" style="shape=tee;whiteSpace=wrap;html=1;strokeWidth=2;dx=5;dy=5;rotation=90;" parent="3F0t3Ccl5Vd54ddvtrLR-1" vertex="1">
          <mxGeometry x="15" y="35" width="30" height="30" as="geometry"/>
        </mxCell>
        <mxCell id="3F0t3Ccl5Vd54ddvtrLR-4" value="" style="shape=tee;whiteSpace=wrap;html=1;strokeWidth=2;dx=5;dy=5;rotation=-90;" parent="3F0t3Ccl5Vd54ddvtrLR-1" vertex="1">
          <mxGeometry x="55" y="35" width="30" height="30" as="geometry"/>
        </mxCell>
        <mxCell id="3F0t3Ccl5Vd54ddvtrLR-5" value="Wait until something happens" style="text;html=1;strokeColor=none;fillColor=none;align=center;verticalAlign=middle;whiteSpace=wrap;rounded=0;" parent="1" vertex="1">
          <mxGeometry x="-1302" y="80" width="92" height="20" as="geometry"/>
        </mxCell>
        <mxCell id="3F0t3Ccl5Vd54ddvtrLR-9" value="Interruptor" style="text;html=1;strokeColor=none;fillColor=none;align=center;verticalAlign=middle;whiteSpace=wrap;rounded=0;" parent="1" vertex="1">
          <mxGeometry x="-1282" y="190" width="40" height="20" as="geometry"/>
        </mxCell>
        <mxCell id="si8xvzxJP4cne3jjyy44-1" value="" style="group" parent="1" vertex="1" connectable="0">
          <mxGeometry x="73.5" y="170" width="100" height="100" as="geometry"/>
        </mxCell>
        <mxCell id="si8xvzxJP4cne3jjyy44-2" value="" style="group" parent="si8xvzxJP4cne3jjyy44-1" vertex="1" connectable="0">
          <mxGeometry width="100" height="100" as="geometry"/>
        </mxCell>
        <mxCell id="si8xvzxJP4cne3jjyy44-3" value="" style="strokeWidth=2;html=1;shape=mxgraph.flowchart.decision;whiteSpace=wrap;fillColor=#ffe6cc;strokeColor=#d79b00;" parent="si8xvzxJP4cne3jjyy44-2" vertex="1">
          <mxGeometry width="100" height="100" as="geometry"/>
        </mxCell>
        <mxCell id="si8xvzxJP4cne3jjyy44-4" value="" style="triangle;whiteSpace=wrap;html=1;strokeWidth=2;fontSize=18;rotation=-90;" parent="si8xvzxJP4cne3jjyy44-2" vertex="1">
          <mxGeometry x="34" y="20" width="32" height="43" as="geometry"/>
        </mxCell>
        <mxCell id="si8xvzxJP4cne3jjyy44-5" value="" style="group" parent="1" vertex="1" connectable="0">
          <mxGeometry x="460" y="110" width="100" height="100" as="geometry"/>
        </mxCell>
        <mxCell id="si8xvzxJP4cne3jjyy44-6" value="" style="group" parent="si8xvzxJP4cne3jjyy44-5" vertex="1" connectable="0">
          <mxGeometry width="100" height="100" as="geometry"/>
        </mxCell>
        <mxCell id="si8xvzxJP4cne3jjyy44-7" value="" style="strokeWidth=2;html=1;shape=mxgraph.flowchart.decision;whiteSpace=wrap;fillColor=#ffe6cc;strokeColor=#d79b00;" parent="si8xvzxJP4cne3jjyy44-6" vertex="1">
          <mxGeometry width="100" height="100" as="geometry"/>
        </mxCell>
        <mxCell id="si8xvzxJP4cne3jjyy44-8" value="" style="triangle;whiteSpace=wrap;html=1;strokeWidth=2;fontSize=18;rotation=-90;" parent="si8xvzxJP4cne3jjyy44-6" vertex="1">
          <mxGeometry x="34" y="20" width="32" height="43" as="geometry"/>
        </mxCell>
        <mxCell id="si8xvzxJP4cne3jjyy44-14" value="" style="endArrow=classic;html=1;exitX=0.5;exitY=1;exitDx=0;exitDy=0;exitPerimeter=0;entryX=0.5;entryY=0;entryDx=0;entryDy=0;" parent="1" source="si8xvzxJP4cne3jjyy44-7" target="si8xvzxJP4cne3jjyy44-26" edge="1">
          <mxGeometry width="50" height="50" relative="1" as="geometry">
            <mxPoint x="650" y="280" as="sourcePoint"/>
            <mxPoint x="510" y="240" as="targetPoint"/>
          </mxGeometry>
        </mxCell>
        <mxCell id="si8xvzxJP4cne3jjyy44-15" value="" style="endArrow=classic;html=1;exitX=1;exitY=1;exitDx=0;exitDy=0;entryX=0.5;entryY=0;entryDx=0;entryDy=0;" parent="1" source="si8xvzxJP4cne3jjyy44-26" target="7xh4q1Sv84D6rDVdjl3a-36" edge="1">
          <mxGeometry width="50" height="50" relative="1" as="geometry">
            <mxPoint x="538.2842712474621" y="308.28427124746213" as="sourcePoint"/>
            <mxPoint x="760" y="260" as="targetPoint"/>
          </mxGeometry>
        </mxCell>
        <mxCell id="si8xvzxJP4cne3jjyy44-16" value="" style="endArrow=classic;html=1;exitX=0;exitY=1;exitDx=0;exitDy=0;entryX=0.5;entryY=0;entryDx=0;entryDy=0;" parent="1" source="si8xvzxJP4cne3jjyy44-26" target="7xh4q1Sv84D6rDVdjl3a-33" edge="1">
          <mxGeometry width="50" height="50" relative="1" as="geometry">
            <mxPoint x="481.71572875253787" y="308.28427124746213" as="sourcePoint"/>
            <mxPoint x="320" y="260" as="targetPoint"/>
          </mxGeometry>
        </mxCell>
        <mxCell id="si8xvzxJP4cne3jjyy44-17" value="" style="group" parent="1" vertex="1" connectable="0">
          <mxGeometry x="60" y="310" width="120" height="60" as="geometry"/>
        </mxCell>
        <mxCell id="si8xvzxJP4cne3jjyy44-18" value="" style="rounded=0;whiteSpace=wrap;html=1;fontSize=18;fillColor=#ffe6cc;strokeColor=#d79b00;" parent="si8xvzxJP4cne3jjyy44-17" vertex="1">
          <mxGeometry width="120" height="60" as="geometry"/>
        </mxCell>
        <mxCell id="si8xvzxJP4cne3jjyy44-19" value="&lt;div&gt;Interrupted?&lt;/div&gt;" style="text;html=1;strokeColor=none;fillColor=none;align=center;verticalAlign=middle;whiteSpace=wrap;rounded=0;fontSize=18;" parent="si8xvzxJP4cne3jjyy44-17" vertex="1">
          <mxGeometry x="40" y="20" width="40" height="20" as="geometry"/>
        </mxCell>
        <mxCell id="si8xvzxJP4cne3jjyy44-20" value="" style="group" parent="1" vertex="1" connectable="0">
          <mxGeometry x="83.5" y="395" width="80" height="80" as="geometry"/>
        </mxCell>
        <mxCell id="si8xvzxJP4cne3jjyy44-21" value="" style="ellipse;whiteSpace=wrap;html=1;aspect=fixed;fillColor=#ffe6cc;strokeColor=#d79b00;" parent="si8xvzxJP4cne3jjyy44-20" vertex="1">
          <mxGeometry width="80" height="80" as="geometry"/>
        </mxCell>
        <mxCell id="si8xvzxJP4cne3jjyy44-22" value="" style="shape=flexArrow;endArrow=classic;html=1;fillColor=#ffffff;" parent="si8xvzxJP4cne3jjyy44-20" edge="1">
          <mxGeometry width="50" height="50" relative="1" as="geometry">
            <mxPoint x="20" y="40" as="sourcePoint"/>
            <mxPoint x="60" y="40" as="targetPoint"/>
          </mxGeometry>
        </mxCell>
        <mxCell id="si8xvzxJP4cne3jjyy44-25" value="" style="group" parent="1" vertex="1" connectable="0">
          <mxGeometry x="470" y="240" width="80" height="80" as="geometry"/>
        </mxCell>
        <mxCell id="si8xvzxJP4cne3jjyy44-26" value="" style="ellipse;whiteSpace=wrap;html=1;aspect=fixed;fillColor=#ffe6cc;strokeColor=#d79b00;" parent="si8xvzxJP4cne3jjyy44-25" vertex="1">
          <mxGeometry width="80" height="80" as="geometry"/>
        </mxCell>
        <mxCell id="si8xvzxJP4cne3jjyy44-27" value="?" style="text;html=1;strokeColor=none;fillColor=none;align=center;verticalAlign=middle;whiteSpace=wrap;rounded=0;strokeWidth=5;labelBorderColor=none;fontSize=60;" parent="si8xvzxJP4cne3jjyy44-25" vertex="1">
          <mxGeometry x="20" y="30" width="40" height="20" as="geometry"/>
        </mxCell>
        <mxCell id="si8xvzxJP4cne3jjyy44-28" value="" style="group" parent="1" vertex="1" connectable="0">
          <mxGeometry x="-0.5" y="540" width="100" height="80" as="geometry"/>
        </mxCell>
        <mxCell id="si8xvzxJP4cne3jjyy44-29" value="" style="shape=loopLimit;whiteSpace=wrap;html=1;fillColor=#ffe6cc;strokeColor=#d79b00;strokeWidth=2;" parent="si8xvzxJP4cne3jjyy44-28" vertex="1">
          <mxGeometry width="100" height="80" as="geometry"/>
        </mxCell>
        <mxCell id="si8xvzxJP4cne3jjyy44-30" value="&lt;div&gt;Disable Perception&lt;/div&gt;&lt;div&gt;&lt;br&gt;&lt;/div&gt;" style="text;html=1;strokeColor=none;fillColor=none;align=center;verticalAlign=middle;whiteSpace=wrap;rounded=0;fontStyle=1;fontSize=18;" parent="si8xvzxJP4cne3jjyy44-28" vertex="1">
          <mxGeometry x="30" y="35" width="40" height="20" as="geometry"/>
        </mxCell>
        <mxCell id="si8xvzxJP4cne3jjyy44-32" value="" style="group" parent="1" vertex="1" connectable="0">
          <mxGeometry x="113.5" y="640" width="100" height="80" as="geometry"/>
        </mxCell>
        <mxCell id="si8xvzxJP4cne3jjyy44-33" value="" style="shape=loopLimit;whiteSpace=wrap;html=1;fillColor=#ffe6cc;strokeColor=#d79b00;strokeWidth=2;" parent="si8xvzxJP4cne3jjyy44-32" vertex="1">
          <mxGeometry width="100" height="80" as="geometry"/>
        </mxCell>
        <mxCell id="si8xvzxJP4cne3jjyy44-34" value="Free my spot" style="text;html=1;strokeColor=none;fillColor=none;align=center;verticalAlign=middle;whiteSpace=wrap;rounded=0;fontStyle=1;fontSize=18;" parent="si8xvzxJP4cne3jjyy44-32" vertex="1">
          <mxGeometry x="30" y="35" width="40" height="20" as="geometry"/>
        </mxCell>
        <mxCell id="si8xvzxJP4cne3jjyy44-36" value="" style="group" parent="1" vertex="1" connectable="0">
          <mxGeometry x="120" y="540" width="120" height="60" as="geometry"/>
        </mxCell>
        <mxCell id="si8xvzxJP4cne3jjyy44-37" value="" style="rounded=0;whiteSpace=wrap;html=1;fontSize=18;fillColor=#ffe6cc;strokeColor=#d79b00;" parent="si8xvzxJP4cne3jjyy44-36" vertex="1">
          <mxGeometry width="120" height="60" as="geometry"/>
        </mxCell>
        <mxCell id="si8xvzxJP4cne3jjyy44-38" value="Spot Found?" style="text;html=1;strokeColor=none;fillColor=none;align=center;verticalAlign=middle;whiteSpace=wrap;rounded=0;fontSize=18;" parent="si8xvzxJP4cne3jjyy44-36" vertex="1">
          <mxGeometry x="40" y="20" width="40" height="20" as="geometry"/>
        </mxCell>
        <mxCell id="si8xvzxJP4cne3jjyy44-39" value="" style="endArrow=classic;html=1;exitX=0.5;exitY=1;exitDx=0;exitDy=0;entryX=0.5;entryY=0;entryDx=0;entryDy=0;" parent="1" source="si8xvzxJP4cne3jjyy44-21" target="si8xvzxJP4cne3jjyy44-37" edge="1">
          <mxGeometry width="50" height="50" relative="1" as="geometry">
            <mxPoint x="240" y="480" as="sourcePoint"/>
            <mxPoint x="290" y="430" as="targetPoint"/>
          </mxGeometry>
        </mxCell>
        <mxCell id="si8xvzxJP4cne3jjyy44-40" value="" style="endArrow=classic;html=1;exitX=0.5;exitY=1;exitDx=0;exitDy=0;entryX=0.5;entryY=0;entryDx=0;entryDy=0;" parent="1" source="si8xvzxJP4cne3jjyy44-21" target="si8xvzxJP4cne3jjyy44-29" edge="1">
          <mxGeometry width="50" height="50" relative="1" as="geometry">
            <mxPoint y="490" as="sourcePoint"/>
            <mxPoint x="50" y="440" as="targetPoint"/>
          </mxGeometry>
        </mxCell>
        <mxCell id="si8xvzxJP4cne3jjyy44-42" style="edgeStyle=orthogonalEdgeStyle;rounded=0;orthogonalLoop=1;jettySize=auto;html=1;exitX=0.5;exitY=1;exitDx=0;exitDy=0;entryX=0.5;entryY=0;entryDx=0;entryDy=0;" parent="1" source="si8xvzxJP4cne3jjyy44-18" target="si8xvzxJP4cne3jjyy44-21" edge="1">
          <mxGeometry relative="1" as="geometry"/>
        </mxCell>
        <mxCell id="si8xvzxJP4cne3jjyy44-43" style="edgeStyle=orthogonalEdgeStyle;rounded=0;orthogonalLoop=1;jettySize=auto;html=1;exitX=0.5;exitY=1;exitDx=0;exitDy=0;exitPerimeter=0;entryX=0.5;entryY=0;entryDx=0;entryDy=0;" parent="1" source="si8xvzxJP4cne3jjyy44-3" target="si8xvzxJP4cne3jjyy44-18" edge="1">
          <mxGeometry relative="1" as="geometry"/>
        </mxCell>
        <mxCell id="si8xvzxJP4cne3jjyy44-44" value="" style="endArrow=classic;html=1;exitX=1;exitY=1;exitDx=0;exitDy=0;entryX=0.5;entryY=0;entryDx=0;entryDy=0;entryPerimeter=0;" parent="1" source="swZC0YJ0A6inSVuOBq8i-7" target="si8xvzxJP4cne3jjyy44-7" edge="1">
          <mxGeometry width="50" height="50" relative="1" as="geometry">
            <mxPoint x="320" y="150" as="sourcePoint"/>
            <mxPoint x="370" y="100" as="targetPoint"/>
          </mxGeometry>
        </mxCell>
        <mxCell id="si8xvzxJP4cne3jjyy44-45" value="" style="endArrow=classic;html=1;exitX=0.5;exitY=1;exitDx=0;exitDy=0;entryX=0.5;entryY=0;entryDx=0;entryDy=0;entryPerimeter=0;" parent="1" source="swZC0YJ0A6inSVuOBq8i-7" target="si8xvzxJP4cne3jjyy44-3" edge="1">
          <mxGeometry width="50" height="50" relative="1" as="geometry">
            <mxPoint x="250" y="200" as="sourcePoint"/>
            <mxPoint x="300" y="150" as="targetPoint"/>
          </mxGeometry>
        </mxCell>
        <mxCell id="si8xvzxJP4cne3jjyy44-46" value="" style="endArrow=classic;html=1;exitX=0.5;exitY=1;exitDx=0;exitDy=0;entryX=0.5;entryY=0;entryDx=0;entryDy=0;" parent="1" source="si8xvzxJP4cne3jjyy44-37" target="si8xvzxJP4cne3jjyy44-33" edge="1">
          <mxGeometry width="50" height="50" relative="1" as="geometry">
            <mxPoint x="60" y="680" as="sourcePoint"/>
            <mxPoint x="110" y="630" as="targetPoint"/>
          </mxGeometry>
        </mxCell>
        <mxCell id="si8xvzxJP4cne3jjyy44-47" value="" style="endArrow=classic;html=1;exitX=0.5;exitY=1;exitDx=0;exitDy=0;entryX=0.5;entryY=0;entryDx=0;entryDy=0;" parent="1" source="swZC0YJ0A6inSVuOBq8i-9" target="swZC0YJ0A6inSVuOBq8i-70" edge="1">
          <mxGeometry width="50" height="50" relative="1" as="geometry">
            <mxPoint x="-180" y="280" as="sourcePoint"/>
            <mxPoint x="-130" y="230" as="targetPoint"/>
          </mxGeometry>
        </mxCell>
        <mxCell id="si8xvzxJP4cne3jjyy44-48" value="" style="endArrow=classic;html=1;exitX=0.5;exitY=1;exitDx=0;exitDy=0;entryX=0.5;entryY=0;entryDx=0;entryDy=0;" parent="1" source="swZC0YJ0A6inSVuOBq8i-70" target="swZC0YJ0A6inSVuOBq8i-77" edge="1">
          <mxGeometry width="50" height="50" relative="1" as="geometry">
            <mxPoint x="-70" y="710" as="sourcePoint"/>
            <mxPoint x="-20" y="660" as="targetPoint"/>
          </mxGeometry>
        </mxCell>
        <mxCell id="si8xvzxJP4cne3jjyy44-52" value="" style="endArrow=classic;html=1;exitX=0.5;exitY=1;exitDx=0;exitDy=0;entryX=0.5;entryY=0;entryDx=0;entryDy=0;entryPerimeter=0;" parent="1" source="swZC0YJ0A6inSVuOBq8i-33" target="7xh4q1Sv84D6rDVdjl3a-534" edge="1">
          <mxGeometry width="50" height="50" relative="1" as="geometry">
            <mxPoint x="-1024" y="550" as="sourcePoint"/>
            <mxPoint x="-974" y="500" as="targetPoint"/>
          </mxGeometry>
        </mxCell>
        <mxCell id="si8xvzxJP4cne3jjyy44-53" value="" style="endArrow=classic;html=1;exitX=0.5;exitY=1;exitDx=0;exitDy=0;entryX=0.5;entryY=0;entryDx=0;entryDy=0;" parent="1" source="swZC0YJ0A6inSVuOBq8i-33" target="si8xvzxJP4cne3jjyy44-60" edge="1">
          <mxGeometry width="50" height="50" relative="1" as="geometry">
            <mxPoint x="-854" y="610" as="sourcePoint"/>
            <mxPoint x="-904.0000000000001" y="584.0000000000001" as="targetPoint"/>
          </mxGeometry>
        </mxCell>
        <mxCell id="si8xvzxJP4cne3jjyy44-54" value="" style="endArrow=classic;html=1;exitX=0.5;exitY=1;exitDx=0;exitDy=0;entryX=0.5;entryY=0;entryDx=0;entryDy=0;" parent="1" source="swZC0YJ0A6inSVuOBq8i-33" target="swZC0YJ0A6inSVuOBq8i-51" edge="1">
          <mxGeometry width="50" height="50" relative="1" as="geometry">
            <mxPoint x="-684" y="550" as="sourcePoint"/>
            <mxPoint x="-720.5" y="580" as="targetPoint"/>
          </mxGeometry>
        </mxCell>
        <mxCell id="si8xvzxJP4cne3jjyy44-58" value="" style="group" parent="1" vertex="1" connectable="0">
          <mxGeometry x="-964" y="660" width="120" height="60" as="geometry"/>
        </mxCell>
        <mxCell id="si8xvzxJP4cne3jjyy44-56" value="" style="rounded=0;whiteSpace=wrap;html=1;fontSize=18;fillColor=#ffe6cc;strokeColor=#d79b00;" parent="si8xvzxJP4cne3jjyy44-58" vertex="1">
          <mxGeometry width="120" height="60" as="geometry"/>
        </mxCell>
        <mxCell id="si8xvzxJP4cne3jjyy44-57" value="&lt;div&gt;Not Fainted?&lt;/div&gt;" style="text;html=1;strokeColor=none;fillColor=none;align=center;verticalAlign=middle;whiteSpace=wrap;rounded=0;fontSize=18;" parent="si8xvzxJP4cne3jjyy44-58" vertex="1">
          <mxGeometry x="40" y="20" width="40" height="20" as="geometry"/>
        </mxCell>
        <mxCell id="si8xvzxJP4cne3jjyy44-59" value="" style="group" parent="1" vertex="1" connectable="0">
          <mxGeometry x="-964" y="590" width="120" height="60" as="geometry"/>
        </mxCell>
        <mxCell id="si8xvzxJP4cne3jjyy44-60" value="" style="rounded=0;whiteSpace=wrap;html=1;fontSize=18;fillColor=#ffe6cc;strokeColor=#d79b00;" parent="si8xvzxJP4cne3jjyy44-59" vertex="1">
          <mxGeometry width="120" height="60" as="geometry"/>
        </mxCell>
        <mxCell id="si8xvzxJP4cne3jjyy44-61" value="Alive?" style="text;html=1;strokeColor=none;fillColor=none;align=center;verticalAlign=middle;whiteSpace=wrap;rounded=0;fontSize=18;" parent="si8xvzxJP4cne3jjyy44-59" vertex="1">
          <mxGeometry x="40" y="20" width="40" height="20" as="geometry"/>
        </mxCell>
        <mxCell id="si8xvzxJP4cne3jjyy44-62" value="" style="group" parent="1" vertex="1" connectable="0">
          <mxGeometry x="-964" y="730" width="120" height="60" as="geometry"/>
        </mxCell>
        <mxCell id="si8xvzxJP4cne3jjyy44-63" value="" style="rounded=0;whiteSpace=wrap;html=1;fontSize=18;fillColor=#ffe6cc;strokeColor=#d79b00;" parent="si8xvzxJP4cne3jjyy44-62" vertex="1">
          <mxGeometry width="120" height="60" as="geometry"/>
        </mxCell>
        <mxCell id="si8xvzxJP4cne3jjyy44-64" value="&lt;div&gt;Hit by Guard?&lt;/div&gt;" style="text;html=1;strokeColor=none;fillColor=none;align=center;verticalAlign=middle;whiteSpace=wrap;rounded=0;fontSize=18;" parent="si8xvzxJP4cne3jjyy44-62" vertex="1">
          <mxGeometry x="40" y="20" width="40" height="20" as="geometry"/>
        </mxCell>
        <mxCell id="si8xvzxJP4cne3jjyy44-67" style="edgeStyle=orthogonalEdgeStyle;rounded=0;orthogonalLoop=1;jettySize=auto;html=1;exitX=0.5;exitY=1;exitDx=0;exitDy=0;entryX=0.5;entryY=0;entryDx=0;entryDy=0;" parent="1" source="si8xvzxJP4cne3jjyy44-60" target="si8xvzxJP4cne3jjyy44-56" edge="1">
          <mxGeometry relative="1" as="geometry"/>
        </mxCell>
        <mxCell id="si8xvzxJP4cne3jjyy44-68" style="edgeStyle=orthogonalEdgeStyle;rounded=0;orthogonalLoop=1;jettySize=auto;html=1;exitX=0.5;exitY=1;exitDx=0;exitDy=0;entryX=0.5;entryY=0;entryDx=0;entryDy=0;" parent="1" source="si8xvzxJP4cne3jjyy44-56" target="si8xvzxJP4cne3jjyy44-63" edge="1">
          <mxGeometry relative="1" as="geometry"/>
        </mxCell>
        <mxCell id="si8xvzxJP4cne3jjyy44-70" value="" style="group" parent="1" vertex="1" connectable="0">
          <mxGeometry x="-765.5" y="590" width="100" height="80" as="geometry"/>
        </mxCell>
        <mxCell id="swZC0YJ0A6inSVuOBq8i-51" value="" style="shape=loopLimit;whiteSpace=wrap;html=1;fillColor=#ffe6cc;strokeColor=#d79b00;strokeWidth=2;" parent="si8xvzxJP4cne3jjyy44-70" vertex="1">
          <mxGeometry width="100" height="80" as="geometry"/>
        </mxCell>
        <mxCell id="swZC0YJ0A6inSVuOBq8i-52" value="&lt;div&gt;&lt;br&gt;&lt;/div&gt;&lt;div&gt;Set Interrupted&lt;/div&gt;" style="text;html=1;strokeColor=none;fillColor=none;align=center;verticalAlign=middle;whiteSpace=wrap;rounded=0;" parent="si8xvzxJP4cne3jjyy44-70" vertex="1">
          <mxGeometry x="10" y="15" width="80" height="50" as="geometry"/>
        </mxCell>
        <mxCell id="si8xvzxJP4cne3jjyy44-73" value="" style="group" parent="1" vertex="1" connectable="0">
          <mxGeometry x="-984" y="870" width="80" height="80" as="geometry"/>
        </mxCell>
        <mxCell id="si8xvzxJP4cne3jjyy44-74" value="" style="ellipse;whiteSpace=wrap;html=1;aspect=fixed;fillColor=#ffe6cc;strokeColor=#d79b00;" parent="si8xvzxJP4cne3jjyy44-73" vertex="1">
          <mxGeometry width="80" height="80" as="geometry"/>
        </mxCell>
        <mxCell id="si8xvzxJP4cne3jjyy44-75" value="" style="shape=flexArrow;endArrow=classic;html=1;fillColor=#ffffff;" parent="si8xvzxJP4cne3jjyy44-73" edge="1">
          <mxGeometry width="50" height="50" relative="1" as="geometry">
            <mxPoint x="20" y="40" as="sourcePoint"/>
            <mxPoint x="60" y="40" as="targetPoint"/>
          </mxGeometry>
        </mxCell>
        <mxCell id="si8xvzxJP4cne3jjyy44-76" value="" style="group" parent="1" vertex="1" connectable="0">
          <mxGeometry x="-1145.5" y="970" width="80" height="80" as="geometry"/>
        </mxCell>
        <mxCell id="si8xvzxJP4cne3jjyy44-77" value="" style="ellipse;whiteSpace=wrap;html=1;aspect=fixed;fillColor=#ffe6cc;strokeColor=#d79b00;" parent="si8xvzxJP4cne3jjyy44-76" vertex="1">
          <mxGeometry width="80" height="80" as="geometry"/>
        </mxCell>
        <mxCell id="si8xvzxJP4cne3jjyy44-78" value="" style="shape=flexArrow;endArrow=classic;html=1;fillColor=#ffffff;" parent="si8xvzxJP4cne3jjyy44-76" edge="1">
          <mxGeometry width="50" height="50" relative="1" as="geometry">
            <mxPoint x="20" y="40" as="sourcePoint"/>
            <mxPoint x="60" y="40" as="targetPoint"/>
          </mxGeometry>
        </mxCell>
        <mxCell id="si8xvzxJP4cne3jjyy44-80" value="" style="endArrow=classic;html=1;exitX=0.5;exitY=1;exitDx=0;exitDy=0;entryX=0.5;entryY=0;entryDx=0;entryDy=0;" parent="1" source="si8xvzxJP4cne3jjyy44-63" target="si8xvzxJP4cne3jjyy44-74" edge="1">
          <mxGeometry width="50" height="50" relative="1" as="geometry">
            <mxPoint x="-834" y="880" as="sourcePoint"/>
            <mxPoint x="-784" y="830" as="targetPoint"/>
          </mxGeometry>
        </mxCell>
        <mxCell id="si8xvzxJP4cne3jjyy44-81" value="" style="group" parent="1" vertex="1" connectable="0">
          <mxGeometry x="-924" y="972" width="100" height="100" as="geometry"/>
        </mxCell>
        <mxCell id="si8xvzxJP4cne3jjyy44-82" value="" style="group" parent="si8xvzxJP4cne3jjyy44-81" vertex="1" connectable="0">
          <mxGeometry width="100" height="100" as="geometry"/>
        </mxCell>
        <mxCell id="si8xvzxJP4cne3jjyy44-83" value="" style="strokeWidth=2;html=1;shape=mxgraph.flowchart.decision;whiteSpace=wrap;fillColor=#ffe6cc;strokeColor=#d79b00;" parent="si8xvzxJP4cne3jjyy44-82" vertex="1">
          <mxGeometry width="100" height="100" as="geometry"/>
        </mxCell>
        <mxCell id="si8xvzxJP4cne3jjyy44-84" value="" style="triangle;whiteSpace=wrap;html=1;strokeWidth=2;fontSize=18;rotation=-90;" parent="si8xvzxJP4cne3jjyy44-82" vertex="1">
          <mxGeometry x="34" y="20" width="32" height="43" as="geometry"/>
        </mxCell>
        <mxCell id="si8xvzxJP4cne3jjyy44-86" value="" style="group" parent="1" vertex="1" connectable="0">
          <mxGeometry x="-935.5" y="1108.5" width="120" height="60" as="geometry"/>
        </mxCell>
        <mxCell id="si8xvzxJP4cne3jjyy44-87" value="" style="rounded=0;whiteSpace=wrap;html=1;fontSize=18;fillColor=#ffe6cc;strokeColor=#d79b00;" parent="si8xvzxJP4cne3jjyy44-86" vertex="1">
          <mxGeometry width="120" height="60" as="geometry"/>
        </mxCell>
        <mxCell id="si8xvzxJP4cne3jjyy44-88" value="Damage &amp;gt; 100?" style="text;html=1;strokeColor=none;fillColor=none;align=center;verticalAlign=middle;whiteSpace=wrap;rounded=0;fontSize=18;" parent="si8xvzxJP4cne3jjyy44-86" vertex="1">
          <mxGeometry y="10" width="120" height="40" as="geometry"/>
        </mxCell>
        <mxCell id="si8xvzxJP4cne3jjyy44-90" value="" style="group" parent="1" vertex="1" connectable="0">
          <mxGeometry x="-925.5" y="1209" width="100" height="80" as="geometry"/>
        </mxCell>
        <mxCell id="si8xvzxJP4cne3jjyy44-91" value="" style="shape=loopLimit;whiteSpace=wrap;html=1;fillColor=#ffe6cc;strokeColor=#d79b00;strokeWidth=2;" parent="si8xvzxJP4cne3jjyy44-90" vertex="1">
          <mxGeometry width="100" height="80" as="geometry"/>
        </mxCell>
        <mxCell id="si8xvzxJP4cne3jjyy44-92" value="Set Dead" style="text;html=1;strokeColor=none;fillColor=none;align=center;verticalAlign=middle;whiteSpace=wrap;rounded=0;fontStyle=1;fontSize=18;" parent="si8xvzxJP4cne3jjyy44-90" vertex="1">
          <mxGeometry x="30" y="35" width="40" height="20" as="geometry"/>
        </mxCell>
        <mxCell id="si8xvzxJP4cne3jjyy44-94" value="" style="endArrow=classic;html=1;exitX=0;exitY=1;exitDx=0;exitDy=0;entryX=0.5;entryY=0;entryDx=0;entryDy=0;" parent="1" source="si8xvzxJP4cne3jjyy44-74" target="si8xvzxJP4cne3jjyy44-77" edge="1">
          <mxGeometry width="50" height="50" relative="1" as="geometry">
            <mxPoint x="-1094" y="1170" as="sourcePoint"/>
            <mxPoint x="-1044" y="1120" as="targetPoint"/>
          </mxGeometry>
        </mxCell>
        <mxCell id="si8xvzxJP4cne3jjyy44-95" value="" style="endArrow=classic;html=1;exitX=1;exitY=1;exitDx=0;exitDy=0;entryX=0.5;entryY=0;entryDx=0;entryDy=0;entryPerimeter=0;" parent="1" source="si8xvzxJP4cne3jjyy44-74" target="si8xvzxJP4cne3jjyy44-83" edge="1">
          <mxGeometry width="50" height="50" relative="1" as="geometry">
            <mxPoint x="-784" y="920" as="sourcePoint"/>
            <mxPoint x="-734" y="870" as="targetPoint"/>
          </mxGeometry>
        </mxCell>
        <mxCell id="si8xvzxJP4cne3jjyy44-96" style="edgeStyle=orthogonalEdgeStyle;rounded=0;orthogonalLoop=1;jettySize=auto;html=1;exitX=0.5;exitY=1;exitDx=0;exitDy=0;exitPerimeter=0;entryX=0.5;entryY=0;entryDx=0;entryDy=0;" parent="1" source="si8xvzxJP4cne3jjyy44-83" target="si8xvzxJP4cne3jjyy44-87" edge="1">
          <mxGeometry relative="1" as="geometry"/>
        </mxCell>
        <mxCell id="si8xvzxJP4cne3jjyy44-97" style="edgeStyle=orthogonalEdgeStyle;rounded=0;orthogonalLoop=1;jettySize=auto;html=1;exitX=0.5;exitY=1;exitDx=0;exitDy=0;" parent="1" source="si8xvzxJP4cne3jjyy44-87" target="si8xvzxJP4cne3jjyy44-91" edge="1">
          <mxGeometry relative="1" as="geometry"/>
        </mxCell>
        <mxCell id="si8xvzxJP4cne3jjyy44-98" value="" style="group" parent="1" vertex="1" connectable="0">
          <mxGeometry x="-1176" y="1119" width="100" height="80" as="geometry"/>
        </mxCell>
        <mxCell id="si8xvzxJP4cne3jjyy44-99" value="" style="shape=loopLimit;whiteSpace=wrap;html=1;fillColor=#ffe6cc;strokeColor=#d79b00;strokeWidth=2;" parent="si8xvzxJP4cne3jjyy44-98" vertex="1">
          <mxGeometry width="100" height="80" as="geometry"/>
        </mxCell>
        <mxCell id="si8xvzxJP4cne3jjyy44-100" value="Set Fainted" style="text;html=1;strokeColor=none;fillColor=none;align=center;verticalAlign=middle;whiteSpace=wrap;rounded=0;fontStyle=1;fontSize=18;" parent="si8xvzxJP4cne3jjyy44-98" vertex="1">
          <mxGeometry x="30" y="35" width="40" height="20" as="geometry"/>
        </mxCell>
        <mxCell id="si8xvzxJP4cne3jjyy44-101" value="" style="group" parent="1" vertex="1" connectable="0">
          <mxGeometry x="-1290" y="1119" width="100" height="80" as="geometry"/>
        </mxCell>
        <mxCell id="si8xvzxJP4cne3jjyy44-102" value="" style="shape=loopLimit;whiteSpace=wrap;html=1;fillColor=#ffe6cc;strokeColor=#d79b00;strokeWidth=2;" parent="si8xvzxJP4cne3jjyy44-101" vertex="1">
          <mxGeometry width="100" height="80" as="geometry"/>
        </mxCell>
        <mxCell id="si8xvzxJP4cne3jjyy44-103" value="&lt;div&gt;Stop Movement&lt;/div&gt;" style="text;html=1;strokeColor=none;fillColor=none;align=center;verticalAlign=middle;whiteSpace=wrap;rounded=0;fontStyle=1;fontSize=18;" parent="si8xvzxJP4cne3jjyy44-101" vertex="1">
          <mxGeometry x="30" y="35" width="40" height="20" as="geometry"/>
        </mxCell>
        <mxCell id="si8xvzxJP4cne3jjyy44-104" value="" style="group" parent="1" vertex="1" connectable="0">
          <mxGeometry x="-1064" y="1120" width="100" height="80" as="geometry"/>
        </mxCell>
        <mxCell id="si8xvzxJP4cne3jjyy44-105" value="" style="shape=loopLimit;whiteSpace=wrap;html=1;fillColor=#ffe6cc;strokeColor=#d79b00;strokeWidth=2;" parent="si8xvzxJP4cne3jjyy44-104" vertex="1">
          <mxGeometry width="100" height="80" as="geometry"/>
        </mxCell>
        <mxCell id="si8xvzxJP4cne3jjyy44-106" value="Damage += 20" style="text;html=1;strokeColor=none;fillColor=none;align=center;verticalAlign=middle;whiteSpace=wrap;rounded=0;fontStyle=1;fontSize=18;" parent="si8xvzxJP4cne3jjyy44-104" vertex="1">
          <mxGeometry x="30" y="35" width="40" height="20" as="geometry"/>
        </mxCell>
        <mxCell id="si8xvzxJP4cne3jjyy44-107" value="" style="endArrow=classic;html=1;exitX=0.5;exitY=1;exitDx=0;exitDy=0;entryX=0.5;entryY=0;entryDx=0;entryDy=0;" parent="1" source="si8xvzxJP4cne3jjyy44-77" target="si8xvzxJP4cne3jjyy44-102" edge="1">
          <mxGeometry width="50" height="50" relative="1" as="geometry">
            <mxPoint x="-1294" y="1090" as="sourcePoint"/>
            <mxPoint x="-1244" y="1040" as="targetPoint"/>
          </mxGeometry>
        </mxCell>
        <mxCell id="si8xvzxJP4cne3jjyy44-108" value="" style="endArrow=classic;html=1;exitX=0.5;exitY=1;exitDx=0;exitDy=0;entryX=0.5;entryY=0;entryDx=0;entryDy=0;" parent="1" source="si8xvzxJP4cne3jjyy44-77" target="si8xvzxJP4cne3jjyy44-99" edge="1">
          <mxGeometry width="50" height="50" relative="1" as="geometry">
            <mxPoint x="-1014" y="1120" as="sourcePoint"/>
            <mxPoint x="-964" y="1070" as="targetPoint"/>
          </mxGeometry>
        </mxCell>
        <mxCell id="si8xvzxJP4cne3jjyy44-109" value="" style="endArrow=classic;html=1;exitX=0.5;exitY=1;exitDx=0;exitDy=0;entryX=0.5;entryY=0;entryDx=0;entryDy=0;" parent="1" source="si8xvzxJP4cne3jjyy44-77" target="si8xvzxJP4cne3jjyy44-105" edge="1">
          <mxGeometry width="50" height="50" relative="1" as="geometry">
            <mxPoint x="-1004" y="1080" as="sourcePoint"/>
            <mxPoint x="-954" y="1030" as="targetPoint"/>
          </mxGeometry>
        </mxCell>
        <mxCell id="si8xvzxJP4cne3jjyy44-110" value="" style="group" parent="1" vertex="1" connectable="0">
          <mxGeometry x="-411.5" y="1365" width="120" height="615" as="geometry"/>
        </mxCell>
        <mxCell id="si8xvzxJP4cne3jjyy44-115" value="" style="group" parent="si8xvzxJP4cne3jjyy44-110" vertex="1" connectable="0">
          <mxGeometry width="120" height="133" as="geometry"/>
        </mxCell>
        <mxCell id="si8xvzxJP4cne3jjyy44-116" value="" style="group" parent="si8xvzxJP4cne3jjyy44-115" vertex="1" connectable="0">
          <mxGeometry x="10" width="100" height="100" as="geometry"/>
        </mxCell>
        <mxCell id="si8xvzxJP4cne3jjyy44-117" value="" style="strokeWidth=2;html=1;shape=mxgraph.flowchart.decision;whiteSpace=wrap;fontSize=18;fillColor=#ffe6cc;strokeColor=#d79b00;" parent="si8xvzxJP4cne3jjyy44-116" vertex="1">
          <mxGeometry width="100" height="100" as="geometry"/>
        </mxCell>
        <mxCell id="si8xvzxJP4cne3jjyy44-118" value="" style="html=1;verticalLabelPosition=bottom;align=center;labelBackgroundColor=#ffffff;verticalAlign=top;strokeWidth=2;strokeColor=#333333;shadow=0;dashed=0;shape=mxgraph.ios7.icons.alarm_clock;fontSize=18;" parent="si8xvzxJP4cne3jjyy44-116" vertex="1">
          <mxGeometry x="36.5" y="35" width="27" height="30" as="geometry"/>
        </mxCell>
        <mxCell id="si8xvzxJP4cne3jjyy44-119" value="&lt;div&gt;Until Finished path?&lt;br&gt;&lt;/div&gt;&lt;div&gt;&lt;br&gt;&lt;/div&gt;" style="rounded=0;whiteSpace=wrap;html=1;strokeColor=#d79b00;strokeWidth=2;fontSize=18;fillColor=#ffe6cc;" parent="si8xvzxJP4cne3jjyy44-115" vertex="1">
          <mxGeometry y="73" width="120" height="60" as="geometry"/>
        </mxCell>
        <mxCell id="7xh4q1Sv84D6rDVdjl3a-68" value="" style="group;strokeColor=none;" parent="si8xvzxJP4cne3jjyy44-110" vertex="1" connectable="0">
          <mxGeometry x="-2.5" y="169" width="80" height="80" as="geometry"/>
        </mxCell>
        <mxCell id="7xh4q1Sv84D6rDVdjl3a-69" value="" style="ellipse;whiteSpace=wrap;html=1;aspect=fixed;fillColor=#ffe6cc;strokeColor=#d79b00;" parent="7xh4q1Sv84D6rDVdjl3a-68" vertex="1">
          <mxGeometry width="80" height="80" as="geometry"/>
        </mxCell>
        <mxCell id="7xh4q1Sv84D6rDVdjl3a-70" value="" style="shape=flexArrow;endArrow=classic;html=1;endWidth=8.20977056344623;endSize=6.232558139534884;width=4.697986577181208;fillColor=#ffffff;" parent="7xh4q1Sv84D6rDVdjl3a-68" edge="1">
          <mxGeometry width="50" height="50" relative="1" as="geometry">
            <mxPoint x="20" y="20" as="sourcePoint"/>
            <mxPoint x="70" y="20" as="targetPoint"/>
            <Array as="points"/>
          </mxGeometry>
        </mxCell>
        <mxCell id="7xh4q1Sv84D6rDVdjl3a-71" value="" style="shape=flexArrow;endArrow=classic;html=1;endWidth=8.20977056344623;endSize=6.232558139534884;width=4.697986577181208;fillColor=#ffffff;" parent="7xh4q1Sv84D6rDVdjl3a-68" edge="1">
          <mxGeometry width="50" height="50" relative="1" as="geometry">
            <mxPoint x="20" y="40" as="sourcePoint"/>
            <mxPoint x="70" y="40" as="targetPoint"/>
            <Array as="points"/>
          </mxGeometry>
        </mxCell>
        <mxCell id="7xh4q1Sv84D6rDVdjl3a-72" value="" style="shape=flexArrow;endArrow=classic;html=1;endWidth=8.20977056344623;endSize=6.232558139534884;width=4.697986577181208;fillColor=#ffffff;" parent="7xh4q1Sv84D6rDVdjl3a-68" edge="1">
          <mxGeometry width="50" height="50" relative="1" as="geometry">
            <mxPoint x="20" y="60" as="sourcePoint"/>
            <mxPoint x="70" y="60" as="targetPoint"/>
            <Array as="points"/>
          </mxGeometry>
        </mxCell>
        <mxCell id="7xh4q1Sv84D6rDVdjl3a-75" value="" style="endArrow=classic;html=1;fontSize=18;exitX=0.5;exitY=1;exitDx=0;exitDy=0;entryX=0.5;entryY=0;entryDx=0;entryDy=0;" parent="si8xvzxJP4cne3jjyy44-110" source="si8xvzxJP4cne3jjyy44-119" target="7xh4q1Sv84D6rDVdjl3a-69" edge="1">
          <mxGeometry width="50" height="50" relative="1" as="geometry">
            <mxPoint x="60" y="85" as="sourcePoint"/>
            <mxPoint x="275" y="85" as="targetPoint"/>
          </mxGeometry>
        </mxCell>
        <mxCell id="7xh4q1Sv84D6rDVdjl3a-83" value="" style="group" parent="si8xvzxJP4cne3jjyy44-110" vertex="1" connectable="0">
          <mxGeometry x="-22.5" y="295" width="100" height="100" as="geometry"/>
        </mxCell>
        <mxCell id="7xh4q1Sv84D6rDVdjl3a-84" value="" style="strokeWidth=2;html=1;shape=mxgraph.flowchart.decision;whiteSpace=wrap;fillColor=#ffe6cc;strokeColor=#d79b00;" parent="7xh4q1Sv84D6rDVdjl3a-83" vertex="1">
          <mxGeometry width="100" height="100" as="geometry"/>
        </mxCell>
        <mxCell id="7xh4q1Sv84D6rDVdjl3a-93" value="" style="group" parent="7xh4q1Sv84D6rDVdjl3a-83" vertex="1" connectable="0">
          <mxGeometry x="20" y="35" width="60" height="30" as="geometry"/>
        </mxCell>
        <mxCell id="7xh4q1Sv84D6rDVdjl3a-88" value="" style="verticalLabelPosition=bottom;verticalAlign=top;html=1;shape=mxgraph.basic.rect;fillColor2=none;strokeWidth=2;size=20;indent=5;fontSize=18;" parent="7xh4q1Sv84D6rDVdjl3a-93" vertex="1">
          <mxGeometry x="10" y="20" width="40" height="10" as="geometry"/>
        </mxCell>
        <mxCell id="7xh4q1Sv84D6rDVdjl3a-87" value="" style="verticalLabelPosition=bottom;verticalAlign=top;html=1;shape=mxgraph.basic.rect;fillColor2=none;strokeWidth=2;size=20;indent=5;fontSize=18;" parent="7xh4q1Sv84D6rDVdjl3a-93" vertex="1">
          <mxGeometry x="10" width="40" height="10" as="geometry"/>
        </mxCell>
        <mxCell id="7xh4q1Sv84D6rDVdjl3a-89" value="" style="verticalLabelPosition=bottom;verticalAlign=top;html=1;shape=mxgraph.basic.rect;fillColor2=none;strokeWidth=1;size=20;indent=5;fontSize=18;rotation=-60;" parent="7xh4q1Sv84D6rDVdjl3a-93" vertex="1">
          <mxGeometry y="10" width="60" height="10" as="geometry"/>
        </mxCell>
        <mxCell id="7xh4q1Sv84D6rDVdjl3a-90" value="" style="verticalLabelPosition=bottom;verticalAlign=top;html=1;shape=mxgraph.basic.rect;fillColor2=none;strokeWidth=1;size=20;indent=5;fontSize=18;strokeColor=none;" parent="7xh4q1Sv84D6rDVdjl3a-93" vertex="1">
          <mxGeometry x="10" width="40" height="10" as="geometry"/>
        </mxCell>
        <mxCell id="7xh4q1Sv84D6rDVdjl3a-92" value="" style="verticalLabelPosition=bottom;verticalAlign=top;html=1;shape=mxgraph.basic.rect;fillColor2=none;strokeWidth=1;size=20;indent=5;fontSize=18;strokeColor=none;" parent="7xh4q1Sv84D6rDVdjl3a-93" vertex="1">
          <mxGeometry x="10" y="20" width="40" height="10" as="geometry"/>
        </mxCell>
        <mxCell id="7xh4q1Sv84D6rDVdjl3a-97" value="" style="group" parent="si8xvzxJP4cne3jjyy44-110" vertex="1" connectable="0">
          <mxGeometry x="-22.5" y="415" width="100" height="100" as="geometry"/>
        </mxCell>
        <mxCell id="7xh4q1Sv84D6rDVdjl3a-98" value="" style="strokeWidth=2;html=1;shape=mxgraph.flowchart.decision;whiteSpace=wrap;fillColor=#ffe6cc;strokeColor=#d79b00;" parent="7xh4q1Sv84D6rDVdjl3a-97" vertex="1">
          <mxGeometry width="100" height="100" as="geometry"/>
        </mxCell>
        <mxCell id="7xh4q1Sv84D6rDVdjl3a-99" value="" style="html=1;shadow=0;dashed=0;align=center;verticalAlign=middle;shape=mxgraph.arrows2.uTurnArrow;dy=3.03;arrowHead=19.28;dx2=10.64;" parent="7xh4q1Sv84D6rDVdjl3a-97" vertex="1">
          <mxGeometry x="20" y="32.5" width="30" height="30" as="geometry"/>
        </mxCell>
        <mxCell id="7xh4q1Sv84D6rDVdjl3a-100" value="" style="html=1;shadow=0;dashed=0;align=center;verticalAlign=middle;shape=mxgraph.arrows2.uTurnArrow;dy=3.03;arrowHead=19.28;dx2=10.64;rotation=180;" parent="7xh4q1Sv84D6rDVdjl3a-97" vertex="1">
          <mxGeometry x="50" y="37.5" width="30" height="30" as="geometry"/>
        </mxCell>
        <mxCell id="7xh4q1Sv84D6rDVdjl3a-101" style="edgeStyle=orthogonalEdgeStyle;rounded=0;orthogonalLoop=1;jettySize=auto;html=1;exitX=0.5;exitY=1;exitDx=0;exitDy=0;exitPerimeter=0;entryX=0.5;entryY=0;entryDx=0;entryDy=0;entryPerimeter=0;fontSize=18;" parent="si8xvzxJP4cne3jjyy44-110" source="7xh4q1Sv84D6rDVdjl3a-84" target="7xh4q1Sv84D6rDVdjl3a-98" edge="1">
          <mxGeometry relative="1" as="geometry"/>
        </mxCell>
        <mxCell id="7xh4q1Sv84D6rDVdjl3a-104" style="edgeStyle=orthogonalEdgeStyle;rounded=0;orthogonalLoop=1;jettySize=auto;html=1;exitX=0.5;exitY=1;exitDx=0;exitDy=0;exitPerimeter=0;fontSize=18;entryX=0.5;entryY=0;entryDx=0;entryDy=0;" parent="si8xvzxJP4cne3jjyy44-110" source="7xh4q1Sv84D6rDVdjl3a-98" target="7xh4q1Sv84D6rDVdjl3a-448" edge="1">
          <mxGeometry relative="1" as="geometry">
            <mxPoint x="28" y="565" as="targetPoint"/>
          </mxGeometry>
        </mxCell>
        <mxCell id="7xh4q1Sv84D6rDVdjl3a-447" value="" style="group" parent="si8xvzxJP4cne3jjyy44-110" vertex="1" connectable="0">
          <mxGeometry x="-12.5" y="535" width="80" height="80" as="geometry"/>
        </mxCell>
        <mxCell id="7xh4q1Sv84D6rDVdjl3a-448" value="" style="ellipse;whiteSpace=wrap;html=1;aspect=fixed;fillColor=#ffe6cc;strokeColor=#d79b00;" parent="7xh4q1Sv84D6rDVdjl3a-447" vertex="1">
          <mxGeometry width="80" height="80" as="geometry"/>
        </mxCell>
        <mxCell id="7xh4q1Sv84D6rDVdjl3a-449" value="" style="shape=flexArrow;endArrow=classic;html=1;fillColor=#ffffff;" parent="7xh4q1Sv84D6rDVdjl3a-447" edge="1">
          <mxGeometry width="50" height="50" relative="1" as="geometry">
            <mxPoint x="20" y="40" as="sourcePoint"/>
            <mxPoint x="60" y="40" as="targetPoint"/>
          </mxGeometry>
        </mxCell>
        <mxCell id="7xh4q1Sv84D6rDVdjl3a-95" value="" style="endArrow=classic;html=1;fontSize=18;exitX=0.5;exitY=1;exitDx=0;exitDy=0;entryX=0.5;entryY=0;entryDx=0;entryDy=0;entryPerimeter=0;" parent="si8xvzxJP4cne3jjyy44-110" source="7xh4q1Sv84D6rDVdjl3a-69" target="7xh4q1Sv84D6rDVdjl3a-84" edge="1">
          <mxGeometry width="50" height="50" relative="1" as="geometry">
            <mxPoint x="-105" y="425" as="sourcePoint"/>
            <mxPoint x="-55" y="375" as="targetPoint"/>
          </mxGeometry>
        </mxCell>
        <mxCell id="si8xvzxJP4cne3jjyy44-122" value="" style="endArrow=classic;html=1;exitX=1;exitY=1;exitDx=0;exitDy=0;entryX=0.5;entryY=0;entryDx=0;entryDy=0;" parent="1" source="7xh4q1Sv84D6rDVdjl3a-448" target="7xh4q1Sv84D6rDVdjl3a-346" edge="1">
          <mxGeometry width="50" height="50" relative="1" as="geometry">
            <mxPoint x="-270" y="1920" as="sourcePoint"/>
            <mxPoint x="-220" y="1870" as="targetPoint"/>
          </mxGeometry>
        </mxCell>
        <mxCell id="si8xvzxJP4cne3jjyy44-124" value="" style="group" parent="1" vertex="1" connectable="0">
          <mxGeometry x="-916" y="1623" width="80" height="80" as="geometry"/>
        </mxCell>
        <mxCell id="si8xvzxJP4cne3jjyy44-125" value="" style="ellipse;whiteSpace=wrap;html=1;aspect=fixed;fillColor=#ffe6cc;strokeColor=#d79b00;" parent="si8xvzxJP4cne3jjyy44-124" vertex="1">
          <mxGeometry width="80" height="80" as="geometry"/>
        </mxCell>
        <mxCell id="si8xvzxJP4cne3jjyy44-126" value="" style="shape=flexArrow;endArrow=classic;html=1;fillColor=#ffffff;" parent="si8xvzxJP4cne3jjyy44-124" edge="1">
          <mxGeometry width="50" height="50" relative="1" as="geometry">
            <mxPoint x="20" y="40" as="sourcePoint"/>
            <mxPoint x="60" y="40" as="targetPoint"/>
          </mxGeometry>
        </mxCell>
        <mxCell id="si8xvzxJP4cne3jjyy44-128" value="" style="group" parent="1" vertex="1" connectable="0">
          <mxGeometry x="-1180" y="1770" width="100" height="80" as="geometry"/>
        </mxCell>
        <mxCell id="si8xvzxJP4cne3jjyy44-129" value="" style="shape=loopLimit;whiteSpace=wrap;html=1;fillColor=#ffe6cc;strokeColor=#d79b00;strokeWidth=2;" parent="si8xvzxJP4cne3jjyy44-128" vertex="1">
          <mxGeometry width="100" height="80" as="geometry"/>
        </mxCell>
        <mxCell id="si8xvzxJP4cne3jjyy44-130" value="&lt;div&gt;Stop Movement&lt;/div&gt;" style="text;html=1;strokeColor=none;fillColor=none;align=center;verticalAlign=middle;whiteSpace=wrap;rounded=0;fontStyle=1;fontSize=18;" parent="si8xvzxJP4cne3jjyy44-128" vertex="1">
          <mxGeometry x="30" y="35" width="40" height="20" as="geometry"/>
        </mxCell>
        <mxCell id="si8xvzxJP4cne3jjyy44-131" value="" style="group" parent="1" vertex="1" connectable="0">
          <mxGeometry x="-1068" y="1770" width="100" height="80" as="geometry"/>
        </mxCell>
        <mxCell id="si8xvzxJP4cne3jjyy44-132" value="" style="shape=loopLimit;whiteSpace=wrap;html=1;fillColor=#ffe6cc;strokeColor=#d79b00;strokeWidth=2;" parent="si8xvzxJP4cne3jjyy44-131" vertex="1">
          <mxGeometry width="100" height="80" as="geometry"/>
        </mxCell>
        <mxCell id="si8xvzxJP4cne3jjyy44-133" value="Set Waiting" style="text;html=1;strokeColor=none;fillColor=none;align=center;verticalAlign=middle;whiteSpace=wrap;rounded=0;fontStyle=1;fontSize=18;" parent="si8xvzxJP4cne3jjyy44-131" vertex="1">
          <mxGeometry x="30" y="35" width="40" height="20" as="geometry"/>
        </mxCell>
        <mxCell id="si8xvzxJP4cne3jjyy44-134" value="" style="group" parent="1" vertex="1" connectable="0">
          <mxGeometry x="-841.5" y="1770" width="100" height="80" as="geometry"/>
        </mxCell>
        <mxCell id="si8xvzxJP4cne3jjyy44-135" value="" style="shape=loopLimit;whiteSpace=wrap;html=1;fillColor=#ffe6cc;strokeColor=#d79b00;strokeWidth=2;" parent="si8xvzxJP4cne3jjyy44-134" vertex="1">
          <mxGeometry width="100" height="80" as="geometry"/>
        </mxCell>
        <mxCell id="si8xvzxJP4cne3jjyy44-136" value="Set not afraid" style="text;html=1;strokeColor=none;fillColor=none;align=center;verticalAlign=middle;whiteSpace=wrap;rounded=0;fontStyle=1;fontSize=18;" parent="si8xvzxJP4cne3jjyy44-134" vertex="1">
          <mxGeometry x="30" y="35" width="40" height="20" as="geometry"/>
        </mxCell>
        <mxCell id="si8xvzxJP4cne3jjyy44-137" value="" style="group" parent="1" vertex="1" connectable="0">
          <mxGeometry x="-730" y="1770" width="100" height="80" as="geometry"/>
        </mxCell>
        <mxCell id="si8xvzxJP4cne3jjyy44-138" value="" style="shape=loopLimit;whiteSpace=wrap;html=1;fillColor=#ffe6cc;strokeColor=#d79b00;strokeWidth=2;" parent="si8xvzxJP4cne3jjyy44-137" vertex="1">
          <mxGeometry width="100" height="80" as="geometry"/>
        </mxCell>
        <mxCell id="si8xvzxJP4cne3jjyy44-139" value="Disable perception" style="text;html=1;strokeColor=none;fillColor=none;align=center;verticalAlign=middle;whiteSpace=wrap;rounded=0;fontStyle=1;fontSize=18;" parent="si8xvzxJP4cne3jjyy44-137" vertex="1">
          <mxGeometry x="30" y="35" width="40" height="20" as="geometry"/>
        </mxCell>
        <mxCell id="si8xvzxJP4cne3jjyy44-140" value="" style="group" parent="1" vertex="1" connectable="0">
          <mxGeometry x="-620" y="1770" width="100" height="80" as="geometry"/>
        </mxCell>
        <mxCell id="si8xvzxJP4cne3jjyy44-141" value="" style="shape=loopLimit;whiteSpace=wrap;html=1;fillColor=#ffe6cc;strokeColor=#d79b00;strokeWidth=2;" parent="si8xvzxJP4cne3jjyy44-140" vertex="1">
          <mxGeometry width="100" height="80" as="geometry"/>
        </mxCell>
        <mxCell id="si8xvzxJP4cne3jjyy44-142" value="Free my spot" style="text;html=1;strokeColor=none;fillColor=none;align=center;verticalAlign=middle;whiteSpace=wrap;rounded=0;fontStyle=1;fontSize=18;" parent="si8xvzxJP4cne3jjyy44-140" vertex="1">
          <mxGeometry x="30" y="35" width="40" height="20" as="geometry"/>
        </mxCell>
        <mxCell id="si8xvzxJP4cne3jjyy44-143" value="" style="group" parent="1" vertex="1" connectable="0">
          <mxGeometry x="-964.5" y="1770" width="120" height="138" as="geometry"/>
        </mxCell>
        <mxCell id="si8xvzxJP4cne3jjyy44-144" value="" style="group" parent="si8xvzxJP4cne3jjyy44-143" vertex="1" connectable="0">
          <mxGeometry x="10" width="100" height="100" as="geometry"/>
        </mxCell>
        <mxCell id="si8xvzxJP4cne3jjyy44-145" value="" style="strokeWidth=2;html=1;shape=mxgraph.flowchart.decision;whiteSpace=wrap;fontSize=18;fillColor=#ffe6cc;strokeColor=#d79b00;" parent="si8xvzxJP4cne3jjyy44-144" vertex="1">
          <mxGeometry width="100" height="100" as="geometry"/>
        </mxCell>
        <mxCell id="si8xvzxJP4cne3jjyy44-146" value="" style="html=1;verticalLabelPosition=bottom;align=center;labelBackgroundColor=#ffffff;verticalAlign=top;strokeWidth=2;strokeColor=#333333;shadow=0;dashed=0;shape=mxgraph.ios7.icons.alarm_clock;fontSize=18;" parent="si8xvzxJP4cne3jjyy44-144" vertex="1">
          <mxGeometry x="36.5" y="35" width="27" height="30" as="geometry"/>
        </mxCell>
        <mxCell id="si8xvzxJP4cne3jjyy44-147" value="Wait 10 seconds" style="rounded=0;whiteSpace=wrap;html=1;strokeColor=#d79b00;strokeWidth=2;fontSize=18;fillColor=#ffe6cc;" parent="si8xvzxJP4cne3jjyy44-143" vertex="1">
          <mxGeometry y="78" width="120" height="60" as="geometry"/>
        </mxCell>
        <mxCell id="si8xvzxJP4cne3jjyy44-148" value="" style="endArrow=classic;html=1;exitX=0.5;exitY=1;exitDx=0;exitDy=0;entryX=0.5;entryY=0;entryDx=0;entryDy=0;" parent="1" source="si8xvzxJP4cne3jjyy44-125" target="si8xvzxJP4cne3jjyy44-129" edge="1">
          <mxGeometry width="50" height="50" relative="1" as="geometry">
            <mxPoint x="-1180" y="1720" as="sourcePoint"/>
            <mxPoint x="-1130" y="1670" as="targetPoint"/>
          </mxGeometry>
        </mxCell>
        <mxCell id="si8xvzxJP4cne3jjyy44-149" value="" style="endArrow=classic;html=1;exitX=0.5;exitY=1;exitDx=0;exitDy=0;entryX=0.5;entryY=0;entryDx=0;entryDy=0;" parent="1" source="si8xvzxJP4cne3jjyy44-125" target="si8xvzxJP4cne3jjyy44-132" edge="1">
          <mxGeometry width="50" height="50" relative="1" as="geometry">
            <mxPoint x="-680" y="1730" as="sourcePoint"/>
            <mxPoint x="-640" y="1690" as="targetPoint"/>
          </mxGeometry>
        </mxCell>
        <mxCell id="si8xvzxJP4cne3jjyy44-150" value="" style="endArrow=classic;html=1;exitX=0.5;exitY=1;exitDx=0;exitDy=0;entryX=0.5;entryY=0;entryDx=0;entryDy=0;entryPerimeter=0;" parent="1" source="si8xvzxJP4cne3jjyy44-125" target="si8xvzxJP4cne3jjyy44-145" edge="1">
          <mxGeometry width="50" height="50" relative="1" as="geometry">
            <mxPoint x="-700" y="1720" as="sourcePoint"/>
            <mxPoint x="-650" y="1670" as="targetPoint"/>
          </mxGeometry>
        </mxCell>
        <mxCell id="si8xvzxJP4cne3jjyy44-151" value="" style="endArrow=classic;html=1;exitX=0.5;exitY=1;exitDx=0;exitDy=0;entryX=0.5;entryY=0;entryDx=0;entryDy=0;" parent="1" source="si8xvzxJP4cne3jjyy44-125" target="si8xvzxJP4cne3jjyy44-135" edge="1">
          <mxGeometry width="50" height="50" relative="1" as="geometry">
            <mxPoint x="-740" y="1720" as="sourcePoint"/>
            <mxPoint x="-690" y="1670" as="targetPoint"/>
          </mxGeometry>
        </mxCell>
        <mxCell id="si8xvzxJP4cne3jjyy44-152" value="" style="endArrow=classic;html=1;exitX=0.5;exitY=1;exitDx=0;exitDy=0;entryX=0.5;entryY=0;entryDx=0;entryDy=0;" parent="1" source="si8xvzxJP4cne3jjyy44-125" target="si8xvzxJP4cne3jjyy44-138" edge="1">
          <mxGeometry width="50" height="50" relative="1" as="geometry">
            <mxPoint x="-700" y="1740" as="sourcePoint"/>
            <mxPoint x="-650" y="1690" as="targetPoint"/>
          </mxGeometry>
        </mxCell>
        <mxCell id="si8xvzxJP4cne3jjyy44-153" value="" style="endArrow=classic;html=1;exitX=0.5;exitY=1;exitDx=0;exitDy=0;entryX=0.5;entryY=0;entryDx=0;entryDy=0;" parent="1" source="si8xvzxJP4cne3jjyy44-125" target="si8xvzxJP4cne3jjyy44-141" edge="1">
          <mxGeometry width="50" height="50" relative="1" as="geometry">
            <mxPoint x="-880" y="1700" as="sourcePoint"/>
            <mxPoint x="-590" y="1700" as="targetPoint"/>
          </mxGeometry>
        </mxCell>
        <mxCell id="si8xvzxJP4cne3jjyy44-154" value="" style="group" parent="1" vertex="1" connectable="0">
          <mxGeometry x="-530" y="730" width="100" height="80" as="geometry"/>
        </mxCell>
        <mxCell id="swZC0YJ0A6inSVuOBq8i-73" value="" style="shape=loopLimit;whiteSpace=wrap;html=1;fillColor=#ffe6cc;strokeColor=#d79b00;strokeWidth=2;" parent="si8xvzxJP4cne3jjyy44-154" vertex="1">
          <mxGeometry width="100" height="80" as="geometry"/>
        </mxCell>
        <mxCell id="swZC0YJ0A6inSVuOBq8i-74" value="Calculate Threshold" style="text;html=1;strokeColor=none;fillColor=none;align=center;verticalAlign=middle;whiteSpace=wrap;rounded=0;" parent="si8xvzxJP4cne3jjyy44-154" vertex="1">
          <mxGeometry x="10" y="15" width="80" height="50" as="geometry"/>
        </mxCell>
        <mxCell id="si8xvzxJP4cne3jjyy44-158" value="" style="endArrow=classic;html=1;fontSize=18;exitX=0;exitY=1;exitDx=0;exitDy=0;entryX=0.5;entryY=0;entryDx=0;entryDy=0;" parent="1" target="si8xvzxJP4cne3jjyy44-160" edge="1">
          <mxGeometry width="50" height="50" relative="1" as="geometry">
            <mxPoint x="-24.78427124746213" y="788.2842712474626" as="sourcePoint"/>
            <mxPoint x="-556.5" y="970" as="targetPoint"/>
          </mxGeometry>
        </mxCell>
        <mxCell id="si8xvzxJP4cne3jjyy44-159" value="" style="group" parent="1" vertex="1" connectable="0">
          <mxGeometry x="-320" y="972" width="120" height="60" as="geometry"/>
        </mxCell>
        <mxCell id="si8xvzxJP4cne3jjyy44-160" value="" style="rounded=0;whiteSpace=wrap;html=1;fontSize=18;fillColor=#ffe6cc;strokeColor=#d79b00;" parent="si8xvzxJP4cne3jjyy44-159" vertex="1">
          <mxGeometry width="120" height="60" as="geometry"/>
        </mxCell>
        <mxCell id="si8xvzxJP4cne3jjyy44-161" value="Not Angry?" style="text;html=1;strokeColor=none;fillColor=none;align=center;verticalAlign=middle;whiteSpace=wrap;rounded=0;fontSize=18;" parent="si8xvzxJP4cne3jjyy44-159" vertex="1">
          <mxGeometry y="10" width="120" height="40" as="geometry"/>
        </mxCell>
        <mxCell id="si8xvzxJP4cne3jjyy44-164" value="" style="group" parent="1" vertex="1" connectable="0">
          <mxGeometry x="-320" y="1050" width="120" height="60" as="geometry"/>
        </mxCell>
        <mxCell id="si8xvzxJP4cne3jjyy44-165" value="" style="rounded=0;whiteSpace=wrap;html=1;fontSize=18;fillColor=#ffe6cc;strokeColor=#d79b00;" parent="si8xvzxJP4cne3jjyy44-164" vertex="1">
          <mxGeometry width="120" height="60" as="geometry"/>
        </mxCell>
        <mxCell id="si8xvzxJP4cne3jjyy44-166" value="Night time?" style="text;html=1;strokeColor=none;fillColor=none;align=center;verticalAlign=middle;whiteSpace=wrap;rounded=0;fontSize=18;" parent="si8xvzxJP4cne3jjyy44-164" vertex="1">
          <mxGeometry y="10" width="120" height="40" as="geometry"/>
        </mxCell>
        <mxCell id="si8xvzxJP4cne3jjyy44-167" value="" style="group" parent="1" vertex="1" connectable="0">
          <mxGeometry x="-310" y="1150" width="100" height="80" as="geometry"/>
        </mxCell>
        <mxCell id="si8xvzxJP4cne3jjyy44-168" value="" style="shape=loopLimit;whiteSpace=wrap;html=1;fillColor=#ffe6cc;strokeColor=#d79b00;strokeWidth=2;" parent="si8xvzxJP4cne3jjyy44-167" vertex="1">
          <mxGeometry width="100" height="80" as="geometry"/>
        </mxCell>
        <mxCell id="si8xvzxJP4cne3jjyy44-169" value="Random 50% Angry" style="text;html=1;strokeColor=none;fillColor=none;align=center;verticalAlign=middle;whiteSpace=wrap;rounded=0;fontSize=18;" parent="si8xvzxJP4cne3jjyy44-167" vertex="1">
          <mxGeometry x="10" y="20" width="80" height="40" as="geometry"/>
        </mxCell>
        <mxCell id="si8xvzxJP4cne3jjyy44-170" value="" style="endArrow=classic;html=1;exitX=0.5;exitY=1;exitDx=0;exitDy=0;entryX=0.5;entryY=0;entryDx=0;entryDy=0;" parent="1" source="si8xvzxJP4cne3jjyy44-165" target="si8xvzxJP4cne3jjyy44-168" edge="1">
          <mxGeometry width="50" height="50" relative="1" as="geometry">
            <mxPoint x="-170" y="1160" as="sourcePoint"/>
            <mxPoint x="-120" y="1110" as="targetPoint"/>
          </mxGeometry>
        </mxCell>
        <mxCell id="si8xvzxJP4cne3jjyy44-171" style="edgeStyle=orthogonalEdgeStyle;rounded=0;orthogonalLoop=1;jettySize=auto;html=1;exitX=0.5;exitY=1;exitDx=0;exitDy=0;entryX=0.5;entryY=0;entryDx=0;entryDy=0;" parent="1" source="si8xvzxJP4cne3jjyy44-160" target="si8xvzxJP4cne3jjyy44-165" edge="1">
          <mxGeometry relative="1" as="geometry"/>
        </mxCell>
        <mxCell id="si8xvzxJP4cne3jjyy44-175" value="" style="group" parent="1" vertex="1" connectable="0">
          <mxGeometry x="-189" y="1190" width="100" height="100" as="geometry"/>
        </mxCell>
        <mxCell id="si8xvzxJP4cne3jjyy44-176" value="" style="strokeWidth=2;html=1;shape=mxgraph.flowchart.decision;whiteSpace=wrap;fillColor=#ffe6cc;strokeColor=#d79b00;" parent="si8xvzxJP4cne3jjyy44-175" vertex="1">
          <mxGeometry width="100" height="100" as="geometry"/>
        </mxCell>
        <mxCell id="si8xvzxJP4cne3jjyy44-177" value="" style="html=1;shadow=0;dashed=0;align=center;verticalAlign=middle;shape=mxgraph.arrows2.uTurnArrow;dy=3.03;arrowHead=19.28;dx2=10.64;" parent="si8xvzxJP4cne3jjyy44-175" vertex="1">
          <mxGeometry x="20" y="32.5" width="30" height="30" as="geometry"/>
        </mxCell>
        <mxCell id="si8xvzxJP4cne3jjyy44-178" value="" style="html=1;shadow=0;dashed=0;align=center;verticalAlign=middle;shape=mxgraph.arrows2.uTurnArrow;dy=3.03;arrowHead=19.28;dx2=10.64;rotation=180;" parent="si8xvzxJP4cne3jjyy44-175" vertex="1">
          <mxGeometry x="50" y="37.5" width="30" height="30" as="geometry"/>
        </mxCell>
        <mxCell id="si8xvzxJP4cne3jjyy44-179" value="" style="endArrow=classic;html=1;exitX=0.5;exitY=1;exitDx=0;exitDy=0;exitPerimeter=0;entryX=0.5;entryY=0;entryDx=0;entryDy=0;" parent="1" source="si8xvzxJP4cne3jjyy44-176" target="7xh4q1Sv84D6rDVdjl3a-125" edge="1">
          <mxGeometry width="50" height="50" relative="1" as="geometry">
            <mxPoint x="-129" y="1382" as="sourcePoint"/>
            <mxPoint x="-79" y="1332" as="targetPoint"/>
          </mxGeometry>
        </mxCell>
        <mxCell id="si8xvzxJP4cne3jjyy44-183" value="" style="endArrow=classic;html=1;exitX=0.5;exitY=1;exitDx=0;exitDy=0;entryX=0.5;entryY=0;entryDx=0;entryDy=0;" parent="1" source="7xh4q1Sv84D6rDVdjl3a-106" target="7xh4q1Sv84D6rDVdjl3a-381" edge="1">
          <mxGeometry width="50" height="50" relative="1" as="geometry">
            <mxPoint x="150" y="1210" as="sourcePoint"/>
            <mxPoint x="200" y="1160" as="targetPoint"/>
          </mxGeometry>
        </mxCell>
        <mxCell id="si8xvzxJP4cne3jjyy44-189" value="" style="group" parent="1" vertex="1" connectable="0">
          <mxGeometry x="-180" y="1788" width="100" height="80" as="geometry"/>
        </mxCell>
        <mxCell id="si8xvzxJP4cne3jjyy44-190" value="" style="shape=loopLimit;whiteSpace=wrap;html=1;fillColor=#ffe6cc;strokeColor=#d79b00;strokeWidth=2;" parent="si8xvzxJP4cne3jjyy44-189" vertex="1">
          <mxGeometry width="100" height="80" as="geometry"/>
        </mxCell>
        <mxCell id="si8xvzxJP4cne3jjyy44-191" value="Free my spot" style="text;html=1;strokeColor=none;fillColor=none;align=center;verticalAlign=middle;whiteSpace=wrap;rounded=0;fontSize=18;" parent="si8xvzxJP4cne3jjyy44-189" vertex="1">
          <mxGeometry x="15" y="20" width="70" height="40" as="geometry"/>
        </mxCell>
        <mxCell id="si8xvzxJP4cne3jjyy44-195" value="" style="group" parent="1" vertex="1" connectable="0">
          <mxGeometry x="-60.5" y="1790" width="100" height="80" as="geometry"/>
        </mxCell>
        <mxCell id="si8xvzxJP4cne3jjyy44-196" value="" style="shape=loopLimit;whiteSpace=wrap;html=1;fillColor=#ffe6cc;strokeColor=#d79b00;strokeWidth=2;" parent="si8xvzxJP4cne3jjyy44-195" vertex="1">
          <mxGeometry width="100" height="80" as="geometry"/>
        </mxCell>
        <mxCell id="si8xvzxJP4cne3jjyy44-197" value="Destroy Agent" style="text;html=1;strokeColor=none;fillColor=none;align=center;verticalAlign=middle;whiteSpace=wrap;rounded=0;fontStyle=1;fontSize=18;" parent="si8xvzxJP4cne3jjyy44-195" vertex="1">
          <mxGeometry x="30" y="35" width="40" height="20" as="geometry"/>
        </mxCell>
        <mxCell id="si8xvzxJP4cne3jjyy44-198" value="" style="endArrow=classic;html=1;exitX=0.5;exitY=1;exitDx=0;exitDy=0;entryX=0.5;entryY=0;entryDx=0;entryDy=0;" parent="1" source="si8xvzxJP4cne3jjyy44-185" target="si8xvzxJP4cne3jjyy44-190" edge="1">
          <mxGeometry width="50" height="50" relative="1" as="geometry">
            <mxPoint x="-230" y="1750" as="sourcePoint"/>
            <mxPoint x="-180" y="1700" as="targetPoint"/>
          </mxGeometry>
        </mxCell>
        <mxCell id="si8xvzxJP4cne3jjyy44-199" value="" style="endArrow=classic;html=1;exitX=0.5;exitY=1;exitDx=0;exitDy=0;entryX=0.5;entryY=0;entryDx=0;entryDy=0;" parent="1" source="si8xvzxJP4cne3jjyy44-185" target="si8xvzxJP4cne3jjyy44-196" edge="1">
          <mxGeometry width="50" height="50" relative="1" as="geometry">
            <mxPoint x="20" y="1770" as="sourcePoint"/>
            <mxPoint x="70" y="1720" as="targetPoint"/>
          </mxGeometry>
        </mxCell>
        <mxCell id="si8xvzxJP4cne3jjyy44-201" value="" style="group" parent="1" vertex="1" connectable="0">
          <mxGeometry x="276.5" y="1760" width="80" height="80" as="geometry"/>
        </mxCell>
        <mxCell id="si8xvzxJP4cne3jjyy44-202" value="" style="ellipse;whiteSpace=wrap;html=1;aspect=fixed;fillColor=#ffe6cc;strokeColor=#d79b00;" parent="si8xvzxJP4cne3jjyy44-201" vertex="1">
          <mxGeometry width="80" height="80" as="geometry"/>
        </mxCell>
        <mxCell id="si8xvzxJP4cne3jjyy44-203" value="" style="shape=flexArrow;endArrow=classic;html=1;fillColor=#ffffff;" parent="si8xvzxJP4cne3jjyy44-201" edge="1">
          <mxGeometry width="50" height="50" relative="1" as="geometry">
            <mxPoint x="20" y="40" as="sourcePoint"/>
            <mxPoint x="60" y="40" as="targetPoint"/>
          </mxGeometry>
        </mxCell>
        <mxCell id="si8xvzxJP4cne3jjyy44-206" value="" style="group" parent="1" vertex="1" connectable="0">
          <mxGeometry x="186.5" y="1900" width="100" height="80" as="geometry"/>
        </mxCell>
        <mxCell id="si8xvzxJP4cne3jjyy44-207" value="" style="shape=loopLimit;whiteSpace=wrap;html=1;fillColor=#ffe6cc;strokeColor=#d79b00;strokeWidth=2;" parent="si8xvzxJP4cne3jjyy44-206" vertex="1">
          <mxGeometry width="100" height="80" as="geometry"/>
        </mxCell>
        <mxCell id="si8xvzxJP4cne3jjyy44-208" value="Set Not Angry" style="text;html=1;strokeColor=none;fillColor=none;align=center;verticalAlign=middle;whiteSpace=wrap;rounded=0;fontSize=18;" parent="si8xvzxJP4cne3jjyy44-206" vertex="1">
          <mxGeometry x="30" y="30" width="40" height="20" as="geometry"/>
        </mxCell>
        <mxCell id="si8xvzxJP4cne3jjyy44-209" value="" style="group" parent="1" vertex="1" connectable="0">
          <mxGeometry x="296.5" y="1900" width="100" height="80" as="geometry"/>
        </mxCell>
        <mxCell id="si8xvzxJP4cne3jjyy44-210" value="" style="shape=loopLimit;whiteSpace=wrap;html=1;fillColor=#ffe6cc;strokeColor=#d79b00;strokeWidth=2;" parent="si8xvzxJP4cne3jjyy44-209" vertex="1">
          <mxGeometry width="100" height="80" as="geometry"/>
        </mxCell>
        <mxCell id="si8xvzxJP4cne3jjyy44-211" value="Disable Perception" style="text;html=1;strokeColor=none;fillColor=none;align=center;verticalAlign=middle;whiteSpace=wrap;rounded=0;fontSize=18;" parent="si8xvzxJP4cne3jjyy44-209" vertex="1">
          <mxGeometry x="30" y="30" width="40" height="20" as="geometry"/>
        </mxCell>
        <mxCell id="si8xvzxJP4cne3jjyy44-212" value="" style="endArrow=classic;html=1;exitX=0.5;exitY=1;exitDx=0;exitDy=0;entryX=0.5;entryY=0;entryDx=0;entryDy=0;" parent="1" source="si8xvzxJP4cne3jjyy44-202" target="7xh4q1Sv84D6rDVdjl3a-173" edge="1">
          <mxGeometry width="50" height="50" relative="1" as="geometry">
            <mxPoint x="136.5" y="1910" as="sourcePoint"/>
            <mxPoint x="186.5" y="1860" as="targetPoint"/>
          </mxGeometry>
        </mxCell>
        <mxCell id="si8xvzxJP4cne3jjyy44-213" value="" style="endArrow=classic;html=1;exitX=0.5;exitY=1;exitDx=0;exitDy=0;entryX=0.5;entryY=0;entryDx=0;entryDy=0;" parent="1" source="si8xvzxJP4cne3jjyy44-202" target="si8xvzxJP4cne3jjyy44-207" edge="1">
          <mxGeometry width="50" height="50" relative="1" as="geometry">
            <mxPoint x="346.5" y="1940" as="sourcePoint"/>
            <mxPoint x="396.5" y="1890" as="targetPoint"/>
          </mxGeometry>
        </mxCell>
        <mxCell id="si8xvzxJP4cne3jjyy44-214" value="" style="endArrow=classic;html=1;exitX=0.5;exitY=1;exitDx=0;exitDy=0;entryX=0.5;entryY=0;entryDx=0;entryDy=0;" parent="1" source="si8xvzxJP4cne3jjyy44-202" target="si8xvzxJP4cne3jjyy44-210" edge="1">
          <mxGeometry width="50" height="50" relative="1" as="geometry">
            <mxPoint x="376.5" y="1920" as="sourcePoint"/>
            <mxPoint x="426.5" y="1870" as="targetPoint"/>
          </mxGeometry>
        </mxCell>
        <mxCell id="si8xvzxJP4cne3jjyy44-218" value="" style="endArrow=classic;html=1;exitX=0.5;exitY=1;exitDx=0;exitDy=0;entryX=0.5;entryY=0;entryDx=0;entryDy=0;entryPerimeter=0;" parent="1" source="7xh4q1Sv84D6rDVdjl3a-552" target="7xh4q1Sv84D6rDVdjl3a-278" edge="1">
          <mxGeometry width="50" height="50" relative="1" as="geometry">
            <mxPoint x="1500" y="1510" as="sourcePoint"/>
            <mxPoint x="1550" y="1460" as="targetPoint"/>
          </mxGeometry>
        </mxCell>
        <mxCell id="si8xvzxJP4cne3jjyy44-219" value="" style="endArrow=classic;html=1;exitX=0.5;exitY=1;exitDx=0;exitDy=0;entryX=0.5;entryY=0;entryDx=0;entryDy=0;" parent="1" source="7xh4q1Sv84D6rDVdjl3a-301" target="7xh4q1Sv84D6rDVdjl3a-289" edge="1">
          <mxGeometry width="50" height="50" relative="1" as="geometry">
            <mxPoint x="760" y="2389" as="sourcePoint"/>
            <mxPoint x="810" y="2339" as="targetPoint"/>
          </mxGeometry>
        </mxCell>
        <mxCell id="si8xvzxJP4cne3jjyy44-220" value="" style="group" parent="1" vertex="1" connectable="0">
          <mxGeometry x="720" y="990" width="80" height="80" as="geometry"/>
        </mxCell>
        <mxCell id="si8xvzxJP4cne3jjyy44-221" value="" style="ellipse;whiteSpace=wrap;html=1;aspect=fixed;fillColor=#ffe6cc;strokeColor=#d79b00;" parent="si8xvzxJP4cne3jjyy44-220" vertex="1">
          <mxGeometry width="80" height="80" as="geometry"/>
        </mxCell>
        <mxCell id="si8xvzxJP4cne3jjyy44-222" value="" style="shape=flexArrow;endArrow=classic;html=1;fillColor=#ffffff;" parent="si8xvzxJP4cne3jjyy44-220" edge="1">
          <mxGeometry width="50" height="50" relative="1" as="geometry">
            <mxPoint x="20" y="40" as="sourcePoint"/>
            <mxPoint x="60" y="40" as="targetPoint"/>
          </mxGeometry>
        </mxCell>
        <mxCell id="si8xvzxJP4cne3jjyy44-223" value="" style="endArrow=classic;html=1;exitX=0;exitY=1;exitDx=0;exitDy=0;entryX=0.5;entryY=0;entryDx=0;entryDy=0;" parent="1" source="7xh4q1Sv84D6rDVdjl3a-179" target="si8xvzxJP4cne3jjyy44-221" edge="1">
          <mxGeometry width="50" height="50" relative="1" as="geometry">
            <mxPoint x="870" y="1050" as="sourcePoint"/>
            <mxPoint x="920" y="1000" as="targetPoint"/>
          </mxGeometry>
        </mxCell>
        <mxCell id="si8xvzxJP4cne3jjyy44-227" value="" style="group" parent="1" vertex="1" connectable="0">
          <mxGeometry x="530" y="1138.5" width="100" height="100" as="geometry"/>
        </mxCell>
        <mxCell id="si8xvzxJP4cne3jjyy44-228" value="" style="strokeWidth=2;html=1;shape=mxgraph.flowchart.decision;whiteSpace=wrap;fillColor=#ffe6cc;strokeColor=#d79b00;" parent="si8xvzxJP4cne3jjyy44-227" vertex="1">
          <mxGeometry width="100" height="100" as="geometry"/>
        </mxCell>
        <mxCell id="si8xvzxJP4cne3jjyy44-229" value="" style="html=1;shadow=0;dashed=0;align=center;verticalAlign=middle;shape=mxgraph.arrows2.uTurnArrow;dy=3.03;arrowHead=19.28;dx2=10.64;" parent="si8xvzxJP4cne3jjyy44-227" vertex="1">
          <mxGeometry x="20" y="32.5" width="30" height="30" as="geometry"/>
        </mxCell>
        <mxCell id="si8xvzxJP4cne3jjyy44-230" value="" style="html=1;shadow=0;dashed=0;align=center;verticalAlign=middle;shape=mxgraph.arrows2.uTurnArrow;dy=3.03;arrowHead=19.28;dx2=10.64;rotation=180;" parent="si8xvzxJP4cne3jjyy44-227" vertex="1">
          <mxGeometry x="50" y="37.5" width="30" height="30" as="geometry"/>
        </mxCell>
        <mxCell id="si8xvzxJP4cne3jjyy44-231" value="" style="group" parent="1" vertex="1" connectable="0">
          <mxGeometry x="530" y="1250" width="100" height="80" as="geometry"/>
        </mxCell>
        <mxCell id="si8xvzxJP4cne3jjyy44-232" value="Find Wander Spot" style="shape=loopLimit;whiteSpace=wrap;html=1;fillColor=#ffe6cc;strokeColor=#d79b00;strokeWidth=2;" parent="si8xvzxJP4cne3jjyy44-231" vertex="1">
          <mxGeometry width="100" height="80" as="geometry"/>
        </mxCell>
        <mxCell id="si8xvzxJP4cne3jjyy44-233" value="" style="endArrow=classic;html=1;fontSize=18;exitX=0.5;exitY=1;exitDx=0;exitDy=0;exitPerimeter=0;entryX=0.5;entryY=0;entryDx=0;entryDy=0;" parent="1" source="si8xvzxJP4cne3jjyy44-228" target="si8xvzxJP4cne3jjyy44-232" edge="1">
          <mxGeometry width="50" height="50" relative="1" as="geometry">
            <mxPoint x="460" y="1230" as="sourcePoint"/>
            <mxPoint x="510" y="1180" as="targetPoint"/>
          </mxGeometry>
        </mxCell>
        <mxCell id="si8xvzxJP4cne3jjyy44-234" value="" style="endArrow=classic;html=1;exitX=0;exitY=1;exitDx=0;exitDy=0;entryX=0.5;entryY=0;entryDx=0;entryDy=0;entryPerimeter=0;" parent="1" source="si8xvzxJP4cne3jjyy44-221" target="si8xvzxJP4cne3jjyy44-228" edge="1">
          <mxGeometry width="50" height="50" relative="1" as="geometry">
            <mxPoint x="600" y="1030" as="sourcePoint"/>
            <mxPoint x="650" y="980" as="targetPoint"/>
          </mxGeometry>
        </mxCell>
        <mxCell id="si8xvzxJP4cne3jjyy44-235" value="" style="group" parent="1" vertex="1" connectable="0">
          <mxGeometry x="709.5" y="1206" width="80" height="124" as="geometry"/>
        </mxCell>
        <mxCell id="si8xvzxJP4cne3jjyy44-236" value="" style="group" parent="si8xvzxJP4cne3jjyy44-235" vertex="1" connectable="0">
          <mxGeometry y="-60" width="80" height="80" as="geometry"/>
        </mxCell>
        <mxCell id="si8xvzxJP4cne3jjyy44-237" value="" style="ellipse;whiteSpace=wrap;html=1;aspect=fixed;fillColor=#ffe6cc;strokeColor=#d79b00;" parent="si8xvzxJP4cne3jjyy44-236" vertex="1">
          <mxGeometry width="80" height="80" as="geometry"/>
        </mxCell>
        <mxCell id="si8xvzxJP4cne3jjyy44-238" value="" style="shape=flexArrow;endArrow=classic;html=1;fillColor=#ffffff;" parent="si8xvzxJP4cne3jjyy44-236" edge="1">
          <mxGeometry width="50" height="50" relative="1" as="geometry">
            <mxPoint x="20" y="40" as="sourcePoint"/>
            <mxPoint x="60" y="40" as="targetPoint"/>
          </mxGeometry>
        </mxCell>
        <mxCell id="si8xvzxJP4cne3jjyy44-239" value="" style="group" parent="si8xvzxJP4cne3jjyy44-235" vertex="1" connectable="0">
          <mxGeometry x="-65.5" y="44" width="100" height="80" as="geometry"/>
        </mxCell>
        <mxCell id="si8xvzxJP4cne3jjyy44-240" value="" style="shape=loopLimit;whiteSpace=wrap;html=1;fillColor=#ffe6cc;strokeColor=#d79b00;strokeWidth=2;" parent="si8xvzxJP4cne3jjyy44-239" vertex="1">
          <mxGeometry width="100" height="80" as="geometry"/>
        </mxCell>
        <mxCell id="si8xvzxJP4cne3jjyy44-241" value="Start Walk" style="text;html=1;strokeColor=none;fillColor=none;align=center;verticalAlign=middle;whiteSpace=wrap;rounded=0;fontSize=18;" parent="si8xvzxJP4cne3jjyy44-239" vertex="1">
          <mxGeometry x="30" y="30" width="40" height="20" as="geometry"/>
        </mxCell>
        <mxCell id="si8xvzxJP4cne3jjyy44-242" value="" style="endArrow=classic;html=1;fontSize=18;exitX=0.5;exitY=1;exitDx=0;exitDy=0;entryX=0.5;entryY=0;entryDx=0;entryDy=0;" parent="si8xvzxJP4cne3jjyy44-235" source="si8xvzxJP4cne3jjyy44-237" target="si8xvzxJP4cne3jjyy44-240" edge="1">
          <mxGeometry width="50" height="50" relative="1" as="geometry">
            <mxPoint x="150.5" y="210" as="sourcePoint"/>
            <mxPoint x="200.5" y="160" as="targetPoint"/>
          </mxGeometry>
        </mxCell>
        <mxCell id="si8xvzxJP4cne3jjyy44-243" value="" style="group" parent="1" vertex="1" connectable="0">
          <mxGeometry x="824" y="1206" width="80" height="124" as="geometry"/>
        </mxCell>
        <mxCell id="si8xvzxJP4cne3jjyy44-247" value="" style="group" parent="si8xvzxJP4cne3jjyy44-243" vertex="1" connectable="0">
          <mxGeometry x="-65.5" y="44" width="100" height="80" as="geometry"/>
        </mxCell>
        <mxCell id="si8xvzxJP4cne3jjyy44-248" value="" style="shape=loopLimit;whiteSpace=wrap;html=1;fillColor=#ffe6cc;strokeColor=#d79b00;strokeWidth=2;" parent="si8xvzxJP4cne3jjyy44-247" vertex="1">
          <mxGeometry width="100" height="80" as="geometry"/>
        </mxCell>
        <mxCell id="si8xvzxJP4cne3jjyy44-249" value="Enable Perception" style="text;html=1;strokeColor=none;fillColor=none;align=center;verticalAlign=middle;whiteSpace=wrap;rounded=0;fontSize=18;" parent="si8xvzxJP4cne3jjyy44-247" vertex="1">
          <mxGeometry x="30" y="30" width="40" height="20" as="geometry"/>
        </mxCell>
        <mxCell id="si8xvzxJP4cne3jjyy44-253" value="" style="endArrow=classic;html=1;exitX=0.5;exitY=1;exitDx=0;exitDy=0;entryX=0.5;entryY=0;entryDx=0;entryDy=0;" parent="1" source="si8xvzxJP4cne3jjyy44-237" target="si8xvzxJP4cne3jjyy44-248" edge="1">
          <mxGeometry width="50" height="50" relative="1" as="geometry">
            <mxPoint x="790" y="1270" as="sourcePoint"/>
            <mxPoint x="840" y="1220" as="targetPoint"/>
          </mxGeometry>
        </mxCell>
        <mxCell id="si8xvzxJP4cne3jjyy44-254" value="" style="endArrow=classic;html=1;exitX=0.5;exitY=1;exitDx=0;exitDy=0;entryX=0.5;entryY=0;entryDx=0;entryDy=0;" parent="1" source="si8xvzxJP4cne3jjyy44-221" target="si8xvzxJP4cne3jjyy44-237" edge="1">
          <mxGeometry width="50" height="50" relative="1" as="geometry">
            <mxPoint x="810" y="1150" as="sourcePoint"/>
            <mxPoint x="860" y="1100" as="targetPoint"/>
          </mxGeometry>
        </mxCell>
        <mxCell id="si8xvzxJP4cne3jjyy44-255" value="" style="group" parent="1" vertex="1" connectable="0">
          <mxGeometry x="1020" y="1879.5" width="80" height="80" as="geometry"/>
        </mxCell>
        <mxCell id="si8xvzxJP4cne3jjyy44-256" value="" style="ellipse;whiteSpace=wrap;html=1;aspect=fixed;fillColor=#ffe6cc;strokeColor=#d79b00;" parent="si8xvzxJP4cne3jjyy44-255" vertex="1">
          <mxGeometry width="80" height="80" as="geometry"/>
        </mxCell>
        <mxCell id="si8xvzxJP4cne3jjyy44-257" value="" style="shape=flexArrow;endArrow=classic;html=1;fillColor=#ffffff;" parent="si8xvzxJP4cne3jjyy44-255" edge="1">
          <mxGeometry width="50" height="50" relative="1" as="geometry">
            <mxPoint x="20" y="40" as="sourcePoint"/>
            <mxPoint x="60" y="40" as="targetPoint"/>
          </mxGeometry>
        </mxCell>
        <mxCell id="si8xvzxJP4cne3jjyy44-262" value="" style="group" parent="1" vertex="1" connectable="0">
          <mxGeometry x="1135" y="2040" width="100" height="100" as="geometry"/>
        </mxCell>
        <mxCell id="si8xvzxJP4cne3jjyy44-263" value="" style="strokeWidth=2;html=1;shape=mxgraph.flowchart.decision;whiteSpace=wrap;fillColor=#ffe6cc;strokeColor=#d79b00;" parent="si8xvzxJP4cne3jjyy44-262" vertex="1">
          <mxGeometry width="100" height="100" as="geometry"/>
        </mxCell>
        <mxCell id="si8xvzxJP4cne3jjyy44-264" value="" style="html=1;shadow=0;dashed=0;align=center;verticalAlign=middle;shape=mxgraph.arrows2.uTurnArrow;dy=3.03;arrowHead=19.28;dx2=10.64;" parent="si8xvzxJP4cne3jjyy44-262" vertex="1">
          <mxGeometry x="20" y="32.5" width="30" height="30" as="geometry"/>
        </mxCell>
        <mxCell id="si8xvzxJP4cne3jjyy44-265" value="" style="html=1;shadow=0;dashed=0;align=center;verticalAlign=middle;shape=mxgraph.arrows2.uTurnArrow;dy=3.03;arrowHead=19.28;dx2=10.64;rotation=180;" parent="si8xvzxJP4cne3jjyy44-262" vertex="1">
          <mxGeometry x="50" y="37.5" width="30" height="30" as="geometry"/>
        </mxCell>
        <mxCell id="si8xvzxJP4cne3jjyy44-267" value="Distance to target &amp;lt; 1,5?" style="rounded=0;whiteSpace=wrap;html=1;strokeWidth=2;fontSize=18;fillColor=#ffe6cc;strokeColor=#d79b00;" parent="1" vertex="1">
          <mxGeometry x="1125" y="2180" width="120" height="60" as="geometry"/>
        </mxCell>
        <mxCell id="si8xvzxJP4cne3jjyy44-268" value="" style="group" parent="1" vertex="1" connectable="0">
          <mxGeometry x="1070" y="2290" width="100" height="80" as="geometry"/>
        </mxCell>
        <mxCell id="si8xvzxJP4cne3jjyy44-269" value="" style="shape=loopLimit;whiteSpace=wrap;html=1;fillColor=#ffe6cc;strokeColor=#d79b00;strokeWidth=2;" parent="si8xvzxJP4cne3jjyy44-268" vertex="1">
          <mxGeometry width="100" height="80" as="geometry"/>
        </mxCell>
        <mxCell id="si8xvzxJP4cne3jjyy44-270" value="Stop Movement" style="text;html=1;strokeColor=none;fillColor=none;align=center;verticalAlign=middle;whiteSpace=wrap;rounded=0;fontSize=18;" parent="si8xvzxJP4cne3jjyy44-268" vertex="1">
          <mxGeometry x="15" y="20" width="70" height="40" as="geometry"/>
        </mxCell>
        <mxCell id="si8xvzxJP4cne3jjyy44-271" value="" style="group" parent="1" vertex="1" connectable="0">
          <mxGeometry x="1195" y="2290" width="100" height="80" as="geometry"/>
        </mxCell>
        <mxCell id="si8xvzxJP4cne3jjyy44-272" value="" style="shape=loopLimit;whiteSpace=wrap;html=1;fillColor=#ffe6cc;strokeColor=#d79b00;strokeWidth=2;" parent="si8xvzxJP4cne3jjyy44-271" vertex="1">
          <mxGeometry width="100" height="80" as="geometry"/>
        </mxCell>
        <mxCell id="si8xvzxJP4cne3jjyy44-273" value="Target = NULL" style="text;html=1;strokeColor=none;fillColor=none;align=center;verticalAlign=middle;whiteSpace=wrap;rounded=0;fontSize=18;" parent="si8xvzxJP4cne3jjyy44-271" vertex="1">
          <mxGeometry x="15" y="20" width="70" height="40" as="geometry"/>
        </mxCell>
        <mxCell id="si8xvzxJP4cne3jjyy44-274" value="" style="endArrow=classic;html=1;exitX=0.5;exitY=1;exitDx=0;exitDy=0;entryX=0.5;entryY=0;entryDx=0;entryDy=0;" parent="1" source="si8xvzxJP4cne3jjyy44-267" target="si8xvzxJP4cne3jjyy44-272" edge="1">
          <mxGeometry width="50" height="50" relative="1" as="geometry">
            <mxPoint x="1345" y="2140" as="sourcePoint"/>
            <mxPoint x="1395" y="2090" as="targetPoint"/>
          </mxGeometry>
        </mxCell>
        <mxCell id="si8xvzxJP4cne3jjyy44-275" value="" style="endArrow=classic;html=1;exitX=0.5;exitY=1;exitDx=0;exitDy=0;entryX=0.5;entryY=0;entryDx=0;entryDy=0;" parent="1" source="si8xvzxJP4cne3jjyy44-267" edge="1">
          <mxGeometry width="50" height="50" relative="1" as="geometry">
            <mxPoint x="855" y="2350" as="sourcePoint"/>
            <mxPoint x="1125" y="2290" as="targetPoint"/>
          </mxGeometry>
        </mxCell>
        <mxCell id="si8xvzxJP4cne3jjyy44-276" value="" style="endArrow=classic;html=1;exitX=0.5;exitY=1;exitDx=0;exitDy=0;exitPerimeter=0;entryX=0.5;entryY=0;entryDx=0;entryDy=0;" parent="1" source="si8xvzxJP4cne3jjyy44-263" target="si8xvzxJP4cne3jjyy44-267" edge="1">
          <mxGeometry width="50" height="50" relative="1" as="geometry">
            <mxPoint x="1265" y="2190" as="sourcePoint"/>
            <mxPoint x="1315" y="2140" as="targetPoint"/>
          </mxGeometry>
        </mxCell>
        <mxCell id="si8xvzxJP4cne3jjyy44-277" value="" style="endArrow=classic;html=1;exitX=0.5;exitY=1;exitDx=0;exitDy=0;entryX=0.5;entryY=0;entryDx=0;entryDy=0;entryPerimeter=0;" parent="1" source="si8xvzxJP4cne3jjyy44-256" target="si8xvzxJP4cne3jjyy44-263" edge="1">
          <mxGeometry width="50" height="50" relative="1" as="geometry">
            <mxPoint x="1312" y="1959.5" as="sourcePoint"/>
            <mxPoint x="1362" y="1909.5" as="targetPoint"/>
          </mxGeometry>
        </mxCell>
        <mxCell id="si8xvzxJP4cne3jjyy44-278" value="" style="endArrow=classic;html=1;exitX=0.5;exitY=1;exitDx=0;exitDy=0;entryX=0.5;entryY=0;entryDx=0;entryDy=0;" parent="1" source="7xh4q1Sv84D6rDVdjl3a-241" target="si8xvzxJP4cne3jjyy44-256" edge="1">
          <mxGeometry width="50" height="50" relative="1" as="geometry">
            <mxPoint x="1230" y="1859.5" as="sourcePoint"/>
            <mxPoint x="1280" y="1809.5" as="targetPoint"/>
          </mxGeometry>
        </mxCell>
        <mxCell id="si8xvzxJP4cne3jjyy44-279" value="" style="group" parent="1" vertex="1" connectable="0">
          <mxGeometry x="860" y="2040" width="80" height="80" as="geometry"/>
        </mxCell>
        <mxCell id="si8xvzxJP4cne3jjyy44-280" value="" style="ellipse;whiteSpace=wrap;html=1;aspect=fixed;fillColor=#ffe6cc;strokeColor=#d79b00;" parent="si8xvzxJP4cne3jjyy44-279" vertex="1">
          <mxGeometry width="80" height="80" as="geometry"/>
        </mxCell>
        <mxCell id="si8xvzxJP4cne3jjyy44-281" value="" style="shape=flexArrow;endArrow=classic;html=1;fillColor=#ffffff;" parent="si8xvzxJP4cne3jjyy44-279" edge="1">
          <mxGeometry width="50" height="50" relative="1" as="geometry">
            <mxPoint x="20" y="40" as="sourcePoint"/>
            <mxPoint x="60" y="40" as="targetPoint"/>
          </mxGeometry>
        </mxCell>
        <mxCell id="si8xvzxJP4cne3jjyy44-282" value="" style="endArrow=classic;html=1;exitX=0.5;exitY=1;exitDx=0;exitDy=0;entryX=0.5;entryY=0;entryDx=0;entryDy=0;" parent="1" source="si8xvzxJP4cne3jjyy44-256" target="si8xvzxJP4cne3jjyy44-280" edge="1">
          <mxGeometry width="50" height="50" relative="1" as="geometry">
            <mxPoint x="1102" y="2109.5" as="sourcePoint"/>
            <mxPoint x="1152" y="2059.5" as="targetPoint"/>
          </mxGeometry>
        </mxCell>
        <mxCell id="si8xvzxJP4cne3jjyy44-283" value="" style="group" parent="1" vertex="1" connectable="0">
          <mxGeometry x="750" y="2198" width="100" height="80" as="geometry"/>
        </mxCell>
        <mxCell id="si8xvzxJP4cne3jjyy44-284" value="" style="shape=loopLimit;whiteSpace=wrap;html=1;fillColor=#ffe6cc;strokeColor=#d79b00;strokeWidth=2;" parent="si8xvzxJP4cne3jjyy44-283" vertex="1">
          <mxGeometry width="100" height="80" as="geometry"/>
        </mxCell>
        <mxCell id="si8xvzxJP4cne3jjyy44-285" value="Free my spot" style="text;html=1;strokeColor=none;fillColor=none;align=center;verticalAlign=middle;whiteSpace=wrap;rounded=0;fontSize=18;" parent="si8xvzxJP4cne3jjyy44-283" vertex="1">
          <mxGeometry x="15" y="20" width="70" height="40" as="geometry"/>
        </mxCell>
        <mxCell id="si8xvzxJP4cne3jjyy44-286" value="" style="group" parent="1" vertex="1" connectable="0">
          <mxGeometry x="860" y="2200" width="100" height="80" as="geometry"/>
        </mxCell>
        <mxCell id="si8xvzxJP4cne3jjyy44-287" value="" style="shape=loopLimit;whiteSpace=wrap;html=1;fillColor=#ffe6cc;strokeColor=#d79b00;strokeWidth=2;" parent="si8xvzxJP4cne3jjyy44-286" vertex="1">
          <mxGeometry width="100" height="80" as="geometry"/>
        </mxCell>
        <mxCell id="si8xvzxJP4cne3jjyy44-288" value="Disable Perception" style="text;html=1;strokeColor=none;fillColor=none;align=center;verticalAlign=middle;whiteSpace=wrap;rounded=0;fontSize=18;" parent="si8xvzxJP4cne3jjyy44-286" vertex="1">
          <mxGeometry x="15" y="20" width="70" height="40" as="geometry"/>
        </mxCell>
        <mxCell id="si8xvzxJP4cne3jjyy44-289" value="" style="group" parent="1" vertex="1" connectable="0">
          <mxGeometry x="970" y="2200" width="100" height="80" as="geometry"/>
        </mxCell>
        <mxCell id="si8xvzxJP4cne3jjyy44-290" value="" style="shape=loopLimit;whiteSpace=wrap;html=1;fillColor=#ffe6cc;strokeColor=#d79b00;strokeWidth=2;" parent="si8xvzxJP4cne3jjyy44-289" vertex="1">
          <mxGeometry width="100" height="80" as="geometry"/>
        </mxCell>
        <mxCell id="si8xvzxJP4cne3jjyy44-291" value="Pursue" style="text;html=1;strokeColor=none;fillColor=none;align=center;verticalAlign=middle;whiteSpace=wrap;rounded=0;fontSize=18;" parent="si8xvzxJP4cne3jjyy44-289" vertex="1">
          <mxGeometry x="15" y="20" width="70" height="40" as="geometry"/>
        </mxCell>
        <mxCell id="si8xvzxJP4cne3jjyy44-292" value="" style="endArrow=classic;html=1;exitX=0.5;exitY=1;exitDx=0;exitDy=0;entryX=0.5;entryY=0;entryDx=0;entryDy=0;" parent="1" source="si8xvzxJP4cne3jjyy44-280" target="si8xvzxJP4cne3jjyy44-290" edge="1">
          <mxGeometry width="50" height="50" relative="1" as="geometry">
            <mxPoint x="1020" y="2150" as="sourcePoint"/>
            <mxPoint x="1070" y="2100" as="targetPoint"/>
          </mxGeometry>
        </mxCell>
        <mxCell id="si8xvzxJP4cne3jjyy44-293" value="" style="endArrow=classic;html=1;exitX=0.5;exitY=1;exitDx=0;exitDy=0;entryX=0.5;entryY=0;entryDx=0;entryDy=0;" parent="1" source="si8xvzxJP4cne3jjyy44-280" target="si8xvzxJP4cne3jjyy44-284" edge="1">
          <mxGeometry width="50" height="50" relative="1" as="geometry">
            <mxPoint x="780" y="2170" as="sourcePoint"/>
            <mxPoint x="830" y="2120" as="targetPoint"/>
          </mxGeometry>
        </mxCell>
        <mxCell id="si8xvzxJP4cne3jjyy44-294" value="" style="endArrow=classic;html=1;exitX=0.5;exitY=1;exitDx=0;exitDy=0;entryX=0.5;entryY=0;entryDx=0;entryDy=0;" parent="1" source="si8xvzxJP4cne3jjyy44-280" target="si8xvzxJP4cne3jjyy44-287" edge="1">
          <mxGeometry width="50" height="50" relative="1" as="geometry">
            <mxPoint x="840" y="2370" as="sourcePoint"/>
            <mxPoint x="890" y="2320" as="targetPoint"/>
          </mxGeometry>
        </mxCell>
        <mxCell id="si8xvzxJP4cne3jjyy44-295" value="" style="group" parent="1" vertex="1" connectable="0">
          <mxGeometry x="772" y="1300" width="120" height="615" as="geometry"/>
        </mxCell>
        <mxCell id="si8xvzxJP4cne3jjyy44-296" value="" style="group" parent="si8xvzxJP4cne3jjyy44-295" vertex="1" connectable="0">
          <mxGeometry x="-130" y="78.5" width="120" height="133" as="geometry"/>
        </mxCell>
        <mxCell id="si8xvzxJP4cne3jjyy44-297" value="" style="group" parent="si8xvzxJP4cne3jjyy44-296" vertex="1" connectable="0">
          <mxGeometry x="10" width="100" height="100" as="geometry"/>
        </mxCell>
        <mxCell id="si8xvzxJP4cne3jjyy44-298" value="" style="strokeWidth=2;html=1;shape=mxgraph.flowchart.decision;whiteSpace=wrap;fontSize=18;fillColor=#ffe6cc;strokeColor=#d79b00;" parent="si8xvzxJP4cne3jjyy44-297" vertex="1">
          <mxGeometry width="100" height="100" as="geometry"/>
        </mxCell>
        <mxCell id="si8xvzxJP4cne3jjyy44-299" value="" style="html=1;verticalLabelPosition=bottom;align=center;labelBackgroundColor=#ffffff;verticalAlign=top;strokeWidth=2;strokeColor=#333333;shadow=0;dashed=0;shape=mxgraph.ios7.icons.alarm_clock;fontSize=18;" parent="si8xvzxJP4cne3jjyy44-297" vertex="1">
          <mxGeometry x="36.5" y="35" width="27" height="30" as="geometry"/>
        </mxCell>
        <mxCell id="si8xvzxJP4cne3jjyy44-300" value="&lt;div&gt;Until Finished path?&lt;br&gt;&lt;/div&gt;&lt;div&gt;&lt;br&gt;&lt;/div&gt;" style="rounded=0;whiteSpace=wrap;html=1;strokeColor=#d79b00;strokeWidth=2;fontSize=18;fillColor=#ffe6cc;" parent="si8xvzxJP4cne3jjyy44-296" vertex="1">
          <mxGeometry y="73" width="120" height="60" as="geometry"/>
        </mxCell>
        <mxCell id="si8xvzxJP4cne3jjyy44-361" value="" style="group" parent="si8xvzxJP4cne3jjyy44-295" vertex="1" connectable="0">
          <mxGeometry x="-10.5" y="250" width="100" height="80" as="geometry"/>
        </mxCell>
        <mxCell id="si8xvzxJP4cne3jjyy44-362" value="" style="shape=loopLimit;whiteSpace=wrap;html=1;fillColor=#ffe6cc;strokeColor=#d79b00;strokeWidth=2;" parent="si8xvzxJP4cne3jjyy44-361" vertex="1">
          <mxGeometry width="100" height="80" as="geometry"/>
        </mxCell>
        <mxCell id="si8xvzxJP4cne3jjyy44-363" value="Free my spot" style="text;html=1;strokeColor=none;fillColor=none;align=center;verticalAlign=middle;whiteSpace=wrap;rounded=0;fontSize=18;" parent="si8xvzxJP4cne3jjyy44-361" vertex="1">
          <mxGeometry x="15" y="20" width="70" height="40" as="geometry"/>
        </mxCell>
        <mxCell id="si8xvzxJP4cne3jjyy44-381" value="" style="endArrow=classic;html=1;exitX=0.5;exitY=1;exitDx=0;exitDy=0;entryX=0.5;entryY=0;entryDx=0;entryDy=0;" parent="si8xvzxJP4cne3jjyy44-295" source="si8xvzxJP4cne3jjyy44-300" target="si8xvzxJP4cne3jjyy44-362" edge="1">
          <mxGeometry width="50" height="50" relative="1" as="geometry">
            <mxPoint x="180" y="180" as="sourcePoint"/>
            <mxPoint x="230" y="130" as="targetPoint"/>
          </mxGeometry>
        </mxCell>
        <mxCell id="si8xvzxJP4cne3jjyy44-358" value="" style="group" parent="1" vertex="1" connectable="0">
          <mxGeometry x="522" y="1550" width="100" height="80" as="geometry"/>
        </mxCell>
        <mxCell id="si8xvzxJP4cne3jjyy44-359" value="" style="shape=loopLimit;whiteSpace=wrap;html=1;fillColor=#ffe6cc;strokeColor=#d79b00;strokeWidth=2;" parent="si8xvzxJP4cne3jjyy44-358" vertex="1">
          <mxGeometry width="100" height="80" as="geometry"/>
        </mxCell>
        <mxCell id="si8xvzxJP4cne3jjyy44-360" value="Set Waiting" style="text;html=1;strokeColor=none;fillColor=none;align=center;verticalAlign=middle;whiteSpace=wrap;rounded=0;fontSize=18;" parent="si8xvzxJP4cne3jjyy44-358" vertex="1">
          <mxGeometry x="15" y="20" width="70" height="40" as="geometry"/>
        </mxCell>
        <mxCell id="si8xvzxJP4cne3jjyy44-365" value="" style="group" parent="1" vertex="1" connectable="0">
          <mxGeometry x="872" y="1550" width="100" height="80" as="geometry"/>
        </mxCell>
        <mxCell id="si8xvzxJP4cne3jjyy44-366" value="" style="shape=loopLimit;whiteSpace=wrap;html=1;fillColor=#ffe6cc;strokeColor=#d79b00;strokeWidth=2;" parent="si8xvzxJP4cne3jjyy44-365" vertex="1">
          <mxGeometry width="100" height="80" as="geometry"/>
        </mxCell>
        <mxCell id="si8xvzxJP4cne3jjyy44-367" value="Disable Perception" style="text;html=1;strokeColor=none;fillColor=none;align=center;verticalAlign=middle;whiteSpace=wrap;rounded=0;fontSize=18;" parent="si8xvzxJP4cne3jjyy44-365" vertex="1">
          <mxGeometry x="15" y="20" width="70" height="40" as="geometry"/>
        </mxCell>
        <mxCell id="si8xvzxJP4cne3jjyy44-368" value="" style="group" parent="1" vertex="1" connectable="0">
          <mxGeometry x="412" y="1550" width="100" height="80" as="geometry"/>
        </mxCell>
        <mxCell id="si8xvzxJP4cne3jjyy44-369" value="" style="shape=loopLimit;whiteSpace=wrap;html=1;fillColor=#ffe6cc;strokeColor=#d79b00;strokeWidth=2;" parent="si8xvzxJP4cne3jjyy44-368" vertex="1">
          <mxGeometry width="100" height="80" as="geometry"/>
        </mxCell>
        <mxCell id="si8xvzxJP4cne3jjyy44-370" value="Stop Movement" style="text;html=1;strokeColor=none;fillColor=none;align=center;verticalAlign=middle;whiteSpace=wrap;rounded=0;fontSize=18;" parent="si8xvzxJP4cne3jjyy44-368" vertex="1">
          <mxGeometry x="15" y="20" width="70" height="40" as="geometry"/>
        </mxCell>
        <mxCell id="si8xvzxJP4cne3jjyy44-371" value="" style="group" parent="1" vertex="1" connectable="0">
          <mxGeometry x="632" y="1550" width="120" height="138" as="geometry"/>
        </mxCell>
        <mxCell id="si8xvzxJP4cne3jjyy44-372" value="" style="group" parent="si8xvzxJP4cne3jjyy44-371" vertex="1" connectable="0">
          <mxGeometry x="10" width="100" height="100" as="geometry"/>
        </mxCell>
        <mxCell id="si8xvzxJP4cne3jjyy44-373" value="" style="strokeWidth=2;html=1;shape=mxgraph.flowchart.decision;whiteSpace=wrap;fontSize=18;fillColor=#ffe6cc;strokeColor=#d79b00;" parent="si8xvzxJP4cne3jjyy44-372" vertex="1">
          <mxGeometry width="100" height="100" as="geometry"/>
        </mxCell>
        <mxCell id="si8xvzxJP4cne3jjyy44-374" value="" style="html=1;verticalLabelPosition=bottom;align=center;labelBackgroundColor=#ffffff;verticalAlign=top;strokeWidth=2;strokeColor=#333333;shadow=0;dashed=0;shape=mxgraph.ios7.icons.alarm_clock;fontSize=18;" parent="si8xvzxJP4cne3jjyy44-372" vertex="1">
          <mxGeometry x="36.5" y="35" width="27" height="30" as="geometry"/>
        </mxCell>
        <mxCell id="si8xvzxJP4cne3jjyy44-375" value="Wait 10 seconds" style="rounded=0;whiteSpace=wrap;html=1;strokeColor=#d79b00;strokeWidth=2;fontSize=18;fillColor=#ffe6cc;" parent="si8xvzxJP4cne3jjyy44-371" vertex="1">
          <mxGeometry y="78" width="120" height="60" as="geometry"/>
        </mxCell>
        <mxCell id="si8xvzxJP4cne3jjyy44-377" value="" style="endArrow=classic;html=1;exitX=0;exitY=1;exitDx=0;exitDy=0;entryX=0.5;entryY=0;entryDx=0;entryDy=0;entryPerimeter=0;" parent="1" source="7xh4q1Sv84D6rDVdjl3a-185" target="si8xvzxJP4cne3jjyy44-298" edge="1">
          <mxGeometry width="50" height="50" relative="1" as="geometry">
            <mxPoint x="682" y="1350" as="sourcePoint"/>
            <mxPoint x="732" y="1300" as="targetPoint"/>
            <Array as="points">
              <mxPoint x="910" y="1350"/>
              <mxPoint x="730" y="1350"/>
            </Array>
          </mxGeometry>
        </mxCell>
        <mxCell id="si8xvzxJP4cne3jjyy44-378" value="" style="endArrow=classic;html=1;exitX=0.5;exitY=1;exitDx=0;exitDy=0;entryX=0.5;entryY=0;entryDx=0;entryDy=0;" parent="1" source="si8xvzxJP4cne3jjyy44-300" target="si8xvzxJP4cne3jjyy44-369" edge="1">
          <mxGeometry width="50" height="50" relative="1" as="geometry">
            <mxPoint x="522" y="1480" as="sourcePoint"/>
            <mxPoint x="572" y="1430" as="targetPoint"/>
          </mxGeometry>
        </mxCell>
        <mxCell id="si8xvzxJP4cne3jjyy44-379" value="" style="endArrow=classic;html=1;exitX=0.5;exitY=1;exitDx=0;exitDy=0;entryX=0.5;entryY=0;entryDx=0;entryDy=0;" parent="1" source="si8xvzxJP4cne3jjyy44-300" target="si8xvzxJP4cne3jjyy44-359" edge="1">
          <mxGeometry width="50" height="50" relative="1" as="geometry">
            <mxPoint x="562" y="1740" as="sourcePoint"/>
            <mxPoint x="612" y="1690" as="targetPoint"/>
          </mxGeometry>
        </mxCell>
        <mxCell id="si8xvzxJP4cne3jjyy44-380" value="" style="endArrow=classic;html=1;exitX=0.5;exitY=1;exitDx=0;exitDy=0;entryX=0.5;entryY=0;entryDx=0;entryDy=0;entryPerimeter=0;" parent="1" source="si8xvzxJP4cne3jjyy44-300" target="si8xvzxJP4cne3jjyy44-373" edge="1">
          <mxGeometry width="50" height="50" relative="1" as="geometry">
            <mxPoint x="822" y="1720" as="sourcePoint"/>
            <mxPoint x="872" y="1670" as="targetPoint"/>
          </mxGeometry>
        </mxCell>
        <mxCell id="si8xvzxJP4cne3jjyy44-382" value="" style="endArrow=classic;html=1;exitX=0.5;exitY=1;exitDx=0;exitDy=0;entryX=0.5;entryY=0;entryDx=0;entryDy=0;" parent="1" source="si8xvzxJP4cne3jjyy44-300" target="si8xvzxJP4cne3jjyy44-366" edge="1">
          <mxGeometry width="50" height="50" relative="1" as="geometry">
            <mxPoint x="852" y="1540" as="sourcePoint"/>
            <mxPoint x="902" y="1490" as="targetPoint"/>
          </mxGeometry>
        </mxCell>
        <mxCell id="si8xvzxJP4cne3jjyy44-383" value="" style="endArrow=classic;html=1;exitX=1;exitY=1;exitDx=0;exitDy=0;entryX=0.5;entryY=0;entryDx=0;entryDy=0;" parent="1" source="si8xvzxJP4cne3jjyy44-221" target="7xh4q1Sv84D6rDVdjl3a-185" edge="1">
          <mxGeometry width="50" height="50" relative="1" as="geometry">
            <mxPoint x="970" y="1170" as="sourcePoint"/>
            <mxPoint x="1020" y="1120" as="targetPoint"/>
          </mxGeometry>
        </mxCell>
        <mxCell id="si8xvzxJP4cne3jjyy44-384" value="" style="group" parent="1" vertex="1" connectable="0">
          <mxGeometry x="-1400" y="270" width="100" height="100" as="geometry"/>
        </mxCell>
        <mxCell id="si8xvzxJP4cne3jjyy44-385" value="" style="group" parent="si8xvzxJP4cne3jjyy44-384" vertex="1" connectable="0">
          <mxGeometry width="100" height="100" as="geometry"/>
        </mxCell>
        <mxCell id="si8xvzxJP4cne3jjyy44-386" value="" style="strokeWidth=2;html=1;shape=mxgraph.flowchart.decision;whiteSpace=wrap;fillColor=#ffe6cc;strokeColor=#d79b00;" parent="si8xvzxJP4cne3jjyy44-385" vertex="1">
          <mxGeometry width="100" height="100" as="geometry"/>
        </mxCell>
        <mxCell id="si8xvzxJP4cne3jjyy44-387" value="" style="triangle;whiteSpace=wrap;html=1;strokeWidth=2;fontSize=18;rotation=-90;" parent="si8xvzxJP4cne3jjyy44-385" vertex="1">
          <mxGeometry x="34" y="20" width="32" height="43" as="geometry"/>
        </mxCell>
        <mxCell id="si8xvzxJP4cne3jjyy44-391" value="Optional" style="text;html=1;strokeColor=none;fillColor=none;align=center;verticalAlign=middle;whiteSpace=wrap;rounded=0;" parent="1" vertex="1">
          <mxGeometry x="-1282" y="310" width="40" height="20" as="geometry"/>
        </mxCell>
      </root>
    </mxGraphModel>
  </diagram>
</mxfile>
